<?xml version="1.0" encoding="utf-8"?>
<!-- Generator: Adobe Illustrator 28.0.0, SVG Export Plug-In . SVG Version: 6.00 Build 0)  -->
<svg version="1.1" id="Layer_1" xmlns="http://www.w3.org/2000/svg" xmlns:xlink="http://www.w3.org/1999/xlink" x="0px" y="0px"
	 viewBox="0 0 600 214" style="enable-background:new 0 0 600 214;" xml:space="preserve">
<style type="text/css">
	.st0{fill:#23798B;}
	.st1{fill:#194259;}
	.st2{clip-path:url(#SVGID_00000046340471789453433640000005738241266724382855_);}
</style>
<g>
	<path class="st0" d="M170.8,20.3c1.3-0.8,2.3-1.6,2.9-2.5c0.6-0.9,1-1.9,1.2-2.8c0.1-1,0.2-1.9,0-2.9c-0.2-1.2-0.5-2.1-1.1-2.7
		c-0.6-0.7-1.3-0.9-2.3-0.8c-0.7,0.1-1.3,0.4-1.6,0.9c-0.4,0.5-0.6,1.1-0.7,1.8c-0.1,0.7-0.1,1.5,0.1,2.3c-1.5,0.2-2.7,0.2-3.8-0.1
		c-1-0.3-1.6-0.9-1.7-1.7c-0.2-1.2,0.3-2.3,1.4-3.3c1.1-1,3-1.7,5.7-2.1c1.7-0.2,3.3-0.2,4.7,0.1c1.4,0.3,2.6,1,3.5,1.8
		c0.9,0.9,1.5,2,1.7,3.4c0.3,1.9-0.1,3.6-1.1,5c-1,1.4-2.7,2.8-5,4.1l0,3.4l-2.7,0.4L170.8,20.3z M174.5,33.1
		c-0.8,0.1-1.6,0-2.2-0.3c-0.6-0.3-1-1.1-1.2-2.2c-0.2-1.1,0-1.9,0.5-2.4c0.5-0.5,1.2-0.8,2-0.9c0.8-0.1,1.5,0,2.2,0.3
		c0.7,0.3,1.1,1.1,1.2,2.2c0.2,1.1,0,1.9-0.6,2.4C175.9,32.7,175.3,33,174.5,33.1z"/>
</g>
<g id="pSJh0v.tif">
	<g>
		<path class="st1" d="M204.9,61.8c-0.1-1-0.2-1.9-0.3-2.9c-0.1-0.8,1.1-0.8,1.9-0.8c0.7-0.1,0.9,0.1,1,0.9c0.1,1.1,0.2,2.1,0.3,3.2
			c0,0.2,0.2,0.4,0.4,0.5c1.5,0.8,2.3,2.4,1.9,4.1c-0.2,0.7-0.5,1.4-0.8,2.1c-0.1,0.1-0.1,0.3-0.2,0.4c-0.2,1.6-0.3,3.1-0.1,4.7
			c0.5,4.6,0.9,9.2,1.4,13.8c0.6,5.8,1.2,11.6,1.7,17.4c0.1,1.4,0.3,2.8,0.4,4.2c0.1,0.7-0.1,0.9-0.9,1c-0.7,0.1-2.1,0.4-2.2-0.3
			c-0.6-6-1.2-11.9-1.8-17.9c-0.7-7-1.4-14-2.1-21c0-0.2-0.2-0.5-0.3-0.5c-2.5-0.7-3.8-1.9-6.3-2.6c-4.8-1.4-9.5-2.8-14.3-4.2
			c-0.1,0-0.2,0-0.4-0.1c0.1,0.8,0.2,1.5,0.3,2.3c0.5,3.2,0.9,6.4,1.4,9.7c0.2,1.4,0.4,2.8,0.7,4.2c0.1,0.3,0.3,0.6,0.6,0.8
			c4.4,2.4,8.8,4.8,13.1,7.2c0.3,0.2,0.6,0.4,0.7,0.7c2.5,5.5,4.9,11,7.3,16.6c1,2.2,0.1,4.6-2.2,5.6c-0.9,0.4-1.8,0.9-2.9,0.7
			c-1.7-0.2-2.9-1-3.6-2.6c-1.3-3-2.7-6.1-4-9.1c-0.7-1.5-1.3-3-2-4.5c-0.1-0.2-0.3-0.4-0.4-0.5c-2.3-1.3-4.7-2.6-7-3.8
			c0,0-0.1,0-0.2,0c0.2,1,0.3,2,0.5,3c0.1,0.9,0.3,1.9,0.5,2.8c0,0.2,0,0.5-0.1,0.7c-1.5,5.9-3,11.8-4.5,17.7c-0.6,2.3-2.7,3.6-5,3
			c-0.3-0.1-0.7-0.2-1-0.2c-2.4-0.7-3.7-2.8-3.1-5.2c1.2-4.8,2.4-9.5,3.7-14.3c0.3-1.1,0.4-2.2,0.2-3.4c-1.3-8.9-2.5-17.8-3.8-26.7
			c-0.4-2.9-0.8-5.8-1.2-8.8c-0.3-1.9,0.8-3.4,2.7-3.7c2-0.4,4.1-0.7,6.2-0.9c0.6-0.1,1.3,0.2,1.9,0.4c0.6,0.2,1.3,0.4,1.9,0.6
			C191.6,57.9,198.3,59.9,204.9,61.8C205.2,61.9,204.6,61.7,204.9,61.8z"/>
		<path class="st1" d="M165.8,53.5c0.6-0.1,1.1-0.2,1.7-0.2c1.5-0.1,2.8,0.9,3,2.4c0.5,3.3,0.9,6.6,1.4,9.8c0.7,4.8,1.3,9.7,2,14.5
			c0.1,0.5,0.1,1,0.2,1.5c0.1,1.5-0.9,2.8-2.3,3c-1.3,0.2-2.6,0.5-4,0.5c-1.7,0.1-2.8-1-3.9-2.1c-1.4-1.5-1.9-3.4-1.9-5.5
			c0-5.6-0.2-11.2-0.4-16.8c0-1.2,0.2-2.4,0.9-3.4c0.6-0.9,1.1-1.9,1.8-2.8C164.7,54.1,165.8,53.5,165.8,53.5z"/>
		<path class="st1" d="M174.6,38.4c4-1.1,8.1,1.3,9.2,5.3c1.1,4-1.3,8.2-5.3,9.2c-4,1.1-8.1-1.3-9.2-5.3
			C168.2,43.6,170.6,39.5,174.6,38.4z"/>
	</g>
</g>
<g id="OuDNfh.tif">
	<g>
		<path class="st0" d="M353.9,48.1c0-1.1-0.1-2.2,0-3.2c0.1-0.6,0.2-1.2,0.6-1.7c1-1.5,2.1-2.9,3.2-4.3c0.8-1.1,1.6-1,2.4,0
			c1.1,1.5,2.2,2.9,3.3,4.4c0.3,0.4,0.5,1,0.5,1.5c0.1,1.1,0,2.1,0,3.3c0.4,0,0.7,0,1,0c3.3,0,6.6,0,9.9,0c1.3,0,1.7,0.4,1.7,1.7
			c0,3.8,0,7.7,0,11.5c0,1.3-0.4,1.7-1.7,1.7c-3.3,0-6.5,0-9.8,0c-0.3,0-0.6,0-1,0c0,2.1,0,4.1,0,6.2c0.3,0,0.6,0,1,0
			c5.7,0,11.5,0,17.2,0c0.8,0,1.4,0.2,2,0.7c2.2,1.9,4.4,3.7,6.5,5.6c1,0.9,1,1.6,0,2.4c-2.3,1.9-4.5,3.9-6.8,5.8
			c-0.4,0.3-1,0.5-1.5,0.5c-5.8,0-11.5,0-17.3,0c-0.3,0-0.7,0-1.1,0c0,0.4,0,0.8,0,1.1c0,7.7,0,15.4,0,23.1c0,1.7-0.3,2-2,2
			c-2,0-4,0-6,0c-1.7,0-2-0.3-2-2c0-7.7,0-15.3,0-23c0-0.4,0-0.7,0-1.2c-0.4,0-0.7,0-1,0c-3.3,0-6.6,0-9.9,0c-1.3,0-1.7-0.4-1.7-1.6
			c0-3.9,0-7.7,0-11.6c0-1.3,0.4-1.7,1.7-1.7c3.2,0,6.5,0,9.7,0c0.3,0,0.7,0,1.1,0c0-2.1,0-4.1,0-6.2c-0.3,0-0.7,0-1,0
			c-5.8,0-11.5,0-17.3,0c-0.7,0-1.3-0.2-1.8-0.7c-2.2-1.9-4.4-3.7-6.5-5.6c-1.1-0.9-1.1-1.6,0-2.5c2.3-1.9,4.5-3.9,6.8-5.8
			c0.4-0.3,1-0.5,1.5-0.5c5.8,0,11.5,0,17.3,0C353.1,48.1,353.4,48.1,353.9,48.1z"/>
	</g>
</g>
<g>
	<path class="st1" d="M71.8,178.3c-1.2-10.6,3.8-13,12.5-16.5c6.1-2.6,11.8-4.8,16.7-9.6c2-2,0.7-6-2.4-6c-10.9,0.5-21.3,2.2-31.6,6
		c-2.4,0.9-4.8,2.4-7.2,2.9c-5.8,1.4-12.1-0.5-17.4-3.6c-4.4-2.6-8.5-7.2-12.1-11.3c0.5-2-1.5-3.6-3.4-3.8c-2.6-1.7-6,1.7-4.8,4.6
		c-3.2,7.8,0.7,16.7-3.2,24.4c-2.7,5.3-13.1,10.4-11.4,18.1c1.9,7.7,14.8,4.4,20,4.3c8.4-0.2,16.5-0.3,24.9-0.5
		c6-0.2,12.8,0.9,18.6-1c1.5-0.5,2.4-1.7,2.6-3.4C73.3,180.6,72,180.5,71.8,178.3z"/>
	<path class="st1" d="M362.3,152.2c2.6,6.5,7,11.6,13.1,15c3.6,1.9,7.5,2.7,11.3,4.3c6.7,2.9,8,8.4,9.2,15c0.5,2.6,4.1,3.4,5.8,1.5
		c6-6.5,7.2-20.6,0.2-26.8c-9.4-8.4-24.4-3.8-33.4-12.8c-1.5-3.9-8-2.2-6.7,2c0,0.2,0.2,0.2,0.2,0.3
		C361.8,151.1,361.9,151.6,362.3,152.2z"/>
	<path class="st1" d="M513.6,158.1c6.5,0.3,15.4,1.2,21.5-1.2c3.4-1.2,4.9-4.6,2.9-7.8c-1.2-1.9-2.9-1.9-4.4-3.1
		c-0.3,0.2-0.7,0.3-1,0.5c0.7-0.5,1.4-0.9,2-1.4c2-1.4,4.1-2.7,6.3-4.1c2.7-1.7,1.9-6.7-1.7-6.5c-7,0.3-14.7-0.2-21.3,2
		c-6,2-9.4,6.7-12.6,11.8c0,0,0,0.2-0.2,0.2c-13.8,1-26.4,5.6-38,17.2c-7.5,7.5-14.5,11.3-25.1,12.5c-6,0.7-11.9,0.7-17.7,2.4
		c-8.2,2.4-19.6,14.7-20.6,15.5c-2.7,1.9-5.3,3.8-8,5.6c-2.9,2-1.9,6.3,1.7,6.5c15.9,0.9,31.9,2.2,47.8,2.7c9.4,0.3,18.1-0.9,23.9-9
		c2.4-3.4,3.2-7.7,6.3-10.7c2.7-2.6,7.3-3.8,10.7-4.9c3.8-1.4,7.7-3.1,10.2-6.3c4.1-4.9,3.9-11.9,8.7-16.7
		C507.1,160.7,510.2,159.1,513.6,158.1z"/>
	<g>
		<g>
			<defs>
				<rect id="SVGID_1_" x="4.2" y="-73" width="592.8" height="546.2"/>
			</defs>
			<clipPath id="SVGID_00000088121537283601258570000017588990856914606475_">
				<use xlink:href="#SVGID_1_"  style="overflow:visible;"/>
			</clipPath>
			<g style="clip-path:url(#SVGID_00000088121537283601258570000017588990856914606475_);">
				<path class="st1" d="M800.8,150.1c-13.3,1.5-25.9-1.5-39.1,2.4c-5.1,1.5-10.2,3.4-15.4,5.5c-0.5,0.7-1.5,1-2.4,0.9
					c-5.1,1.9-10.2,3.8-15.7,5.1c-11.4,2.7-23.2,3.8-34.8,5.3c-14.5,1.9-28.8,4.9-42.6,9.7c-10.6,3.6-20.8,7.8-32.1,9.4
					c-25.2,3.2-51.7-3.4-75.6,7c-4.1,1.7-7.5-4.3-3.6-6c21.2-9,43-6.3,65.3-7c19.3-0.5,37-7.7,55.3-13.3c-4.1-0.9-8-2.6-11.8-5.3
					c-1-0.5-1.9-1.5-1.7-3.1c0.7-10.1,3.6-19.6,9.9-27.8c0.9-1.2,2-2.7,3.6-4.4c-2,0-4.3-0.2-6.3-0.5c-10.6-1.5-18.4-2-28.5,2
					c-4.3,1.7-8.4,3.2-13,3.4c-13.1,0.9-26.3-4.9-39.2-6.5c-27.5-3.1-55.8,1.9-82.6-6.5c-22.2-6.8-49.6-27.6-73-16.5
					c5.6,1,11.3,2.4,16.7,4.3c4.3,1.4,2.4,8.2-1.9,6.7c-8-2.7-16-4.4-24.2-5.3c-0.5,0-1,0-1.5-0.2c-19.4-2-39.2,0.2-58.7,4.1
					c14.5,3.8,29,7,43.7,10.1c4.4,0.9,2.6,7.7-1.9,6.7c-28.3-6.1-57-12.1-83.8-23.4c-12.5-5.1-24.2-12.5-38.2-11.6
					c-6.8,0.3-13.5,2.2-19.8,4.6c-0.2,0.2-0.2,0.2-0.3,0.3c-16.7,9.4,0.2,22.3,7.3,30.4c4.8,5.3,7.3,10.7,7.7,17.9
					c0.3,7.2,0.2,17.7-2.4,24.6c-2.7,6.8-9.4,8.2-16,9c-9.6,1.2-18.8-0.7-28.1-1.7c-13-1.2-22.9,1.7-35.1,4.9
					c-9.2,2.6-18.8,3.4-28.5,3.8c-8.4,0.2-16.5,1.2-24.2-2.7c-2.2-1.2-2.4-4.9,0-6c16.9-7.8-9.2-20.1-9.6-29.5
					c-0.2-6.5,4.9-10.4,10.2-13c9.9-4.8,21-6.8,30.7-11.9c1.9-1,3.8-2.4,5.6-3.8c-24.9,1.5-50.3-0.9-75.1-4.3
					c-41.5-5.8-82.2-13-123.7-12.3c-0.3,1.2-1.2,2-2.6,2c-22.7,6.8-45.4,13.6-68.1,20.5c-11.1,3.2-22.2,6.7-33.1,9.9
					c-6.1,1.9-15.7,3.4-23.4,6.8c24.1-7.7,49.3-10.6,74.7-8.4c3.6,0.3,5.1,6.1,0.9,6.8c-20.8,3.1-41.3,6.5-61.2,12.6
					c-18.1,5.6-35.7,12.8-53.6,18.8c-10.1,3.2-30.7,13.1-41.3,6c-4.3-3.1-2.9-5.1-4.4-9.2c-3.8-9.4-22.5-6.3-31-6.8
					c-2.9-0.2-4.8-3.8-2.4-6c6.3-6.1,13.5-10.6,22.2-12.5c11.3-2.4,26.8,1.7,35.1-8.2c-6.1-2.4-12.5-4.4-19.6-5.1
					c-12.3-1.2-24.7,0.3-36.7,3.2c-25.4,6.5-48.3,20.5-70.4,34.1c-3.8,2.4-7.3-3.8-3.6-6c23.9-14.5,48.4-29.5,76.1-35.8
					c12.6-2.9,25.6-3.9,38.6-2.2c13,1.7,23,8,35.3,11.4c3.4,0.9,7,1,10.4,0.7c5.3-0.9,10.4-2.6,15-4.3c6.3-2.7,12.3-6,18.1-8.5
					c5.1-2.2,10.2-4.3,15.5-6.1c7.2-3.1,14.5-5.8,22-8c8.9-2.7,18.1-4.6,27.3-6.1c13.1-2.7,26.4-4.8,39.7-6
					c53.6-4.9,105.2,6.8,158.1,13.3c24.1,2.9,48.6,4.3,72.8,1.5l0,0c3.2-0.9,6.7-1.2,10.1-1.4c5.8-1,11.4-2.2,17.1-3.8
					c2.7-1.2,5.3-2.4,8-3.6c9.9-4.1,20.1-7.7,30.4-11.1c3.6-1.5,7.3-2.7,11.1-3.8c23.4-6.5,40.4,4.6,61.7,12.6
					c6.1,2.4,12.3,4.4,18.6,6.3c0.3-0.2,0.7-0.3,1.2-0.5c23.5-5.3,47.8-9,71.5-6.7c18.8-14,42-7.3,61.7,1.5
					c16.4,7.3,31.4,13,49.5,14.3c15.5,1,31,0.2,46.6,1c6.7,0.3,13.3,1,19.8,2.2c8.5,1.5,17.2,5.1,26.1,4.9c7.8-0.2,14-4.8,21.3-6.7
					c5.8-1.5,11.9-0.7,17.7,0.2c16.5,2.4,32.8-0.7,49.3,0.5c14.8,1,29.3,3.9,43.8,6.8c8.9-1,16.9-6.3,25.9-7.7
					c7.5-1.2,15.2-1,22.7-0.2c18.4,2.4,35.5,10.4,52.2,18.3c4.1,1.9,0.5,7.8-3.6,6c-3.4-1.5-6.8-3.2-10.2-4.8
					C820.8,144.1,811.2,148.7,800.8,150.1z"/>
				<path class="st1" d="M751.5,132.5c-2.7,1-5.6,1.7-8.9,2c-0.7,0-1.2,0-1.7-0.3c-16-3.2-32.2-6.5-48.6-7c-4.1-0.2-8.2,0-12.5,0.3
					c0.7,0.5,1.2,1,1.7,1.4c4.8,2.9,10.1,4.8,14.8,7.3c10.6,5.5,20.3,12.8,29,20.8l0.2,0.2c5.1-1.4,10.1-2.9,15-4.8
					C742.3,145.3,746.3,138.2,751.5,132.5z"/>
				<path class="st1" d="M798.6,142.8c8-1,15.4-3.6,23-7.2c-11.3-4.8-23-8.5-35.3-9.4c-1.4-0.2-2.7-0.2-4.1-0.2
					C788.7,130.8,794.5,138.3,798.6,142.8z"/>
			</g>
		</g>
	</g>
</g>
</svg>
