<?xml version="1.0" encoding="utf-8"?>
<!-- Generator: Adobe Illustrator 28.0.0, SVG Export Plug-In . SVG Version: 6.00 Build 0)  -->
<svg version="1.1" id="Layer_1" xmlns="http://www.w3.org/2000/svg" xmlns:xlink="http://www.w3.org/1999/xlink" x="0px" y="0px"
	 viewBox="0 0 125 125" style="enable-background:new 0 0 125 125;" xml:space="preserve">
<style type="text/css">
	.st0{display:none;}
	.st1{display:inline;fill:#D9D9D9;}
	.st2{fill:#D9D9D9;}
</style>
<g class="st0">
	<path class="st1" d="M68.8,91.7c0.2,0,0.5-0.1,0.9-0.2c-0.3-0.6-0.5-1.2-0.9-1.6c-0.8-1-1.6-2-2.5-2.9c-2.7,1.7-5.3,3.2-7.6,4.7
		c0.5,0,1,0,1.5,0C63.1,91.6,65.9,91.6,68.8,91.7z"/>
	<path class="st1" d="M58.6,91.6c2.4-1.4,4.9-3,7.6-4.7c-0.3-0.4-0.6-0.7-0.9-1.1c-0.8-0.9-1.6-1.8-2.4-2.8
		c-5.2,3.2-9.6,5.9-13.5,8.2c0.3,0,0.6,0.1,0.9,0.1C53.1,91.4,55.9,91.5,58.6,91.6z"/>
	<path class="st1" d="M60.5,76.6c2.1-2,4.2-4.1,6.3-6.2c-0.2-0.3-0.4-0.6-0.6-0.8c-0.1-0.1-0.1-0.2-0.2-0.2
		c-0.7,0.5-1.5,0.9-2.2,1.3c-2,1.2-3.9,2.3-5.7,3.4C58.9,75,59.7,75.9,60.5,76.6z"/>
	<path class="st1" d="M68.6,68.4c0-0.2,0.1-0.3,0.1-0.5c0,0,0-0.1,0-0.1c-0.3,0.2-0.6,0.3-0.8,0.5C68.1,68.4,68.3,68.5,68.6,68.4z"
		/>
	<path class="st1" d="M66,69.4c-0.4-0.4-0.7-0.8-1.1-1.3c-0.7-0.9-1.3-1.9-2-2.9c-0.3-0.5-0.8-0.8-1.4-1c-2.3,2.3-4.6,4.7-6.9,7
		c1.3,0.8,2.4,1.8,3.5,2.9c1.5-0.9,3-1.8,4.6-2.8C63.8,70.7,64.9,70,66,69.4z"/>
	<path class="st1" d="M69.7,72.8c-0.3,0.1-0.6,0.2-0.8,0.1c-0.7-0.3-1,0.1-1.4,0.5c-0.6,0.6-1.2,1.1-1.8,1.6c-0.4,0.3-0.7,0.6-1.1,1
		c-0.7,0.7-1.5,1.5-2.2,2.2c-0.1,0.1-0.3,0.3-0.4,0.5c0.1,0.2,0.2,0.3,0.4,0.4c0.8,0.8,1.5,1.7,2.2,2.5c0,0,0.1,0.1,0.1,0.1
		c0.8-0.5,1.6-1,2.4-1.5c1.2-0.7,2.4-1.5,3.7-2.3c-0.3-0.9-0.4-1.8-0.6-2.7C70.2,74.5,70,73.7,69.7,72.8z"/>
	<path class="st1" d="M64.9,81.8c0.5,0.7,1.1,1.4,1.6,2c0.5,0.6,1.1,1.2,1.7,1.9c1.3-0.8,2.6-1.6,4-2.4c-0.1-0.4-0.2-0.8-0.2-1.2
		c-0.2-0.9-0.1-2-0.5-2.8c-0.2-0.4-0.3-0.8-0.4-1.1c-0.8,0.5-1.5,0.9-2.3,1.4C67.4,80.3,66.1,81.1,64.9,81.8z"/>
	<path class="st1" d="M60.8,52.5c-0.5,0.3-0.8,0.5-0.7,1.1C60.4,53.3,60.8,53.3,60.8,52.5z"/>
	<path class="st1" d="M62.5,82.6c-0.6-0.7-1.2-1.4-1.9-2.2c-1.5,1.4-2.9,2.5-4.2,3.8c-2,2-4,4-6.4,5.7c-0.4,0.3-1,0.6-1.1,1.4
		c0.1,0,0.1,0,0.2,0c4-2.4,8.5-5.2,13.6-8.3C62.7,82.8,62.6,82.7,62.5,82.6z"/>
	<path class="st1" d="M41.7,93.6c-0.7,0-1.4,0-2.2,0c-0.3,0-0.6,0-0.9-0.1c-0.8-0.2-1.1-0.8-0.6-1.5c0.4-0.6,0.8-1.1,1.7-1
		c1.1,0.1,2.3,0,3.4,0c0.8,0,0.9,0,1.1-0.7c0.4-1.2,1-2.3,0.9-3.6c0-0.1,0.1-0.3,0.1-0.4c0.6-0.7,1-1.5,0.8-2.4
		c0-0.1,0.1-0.3,0.2-0.4c0.7-1,1.3-2.1,1.6-3.3C19,97.9,19.2,98.4,20.2,100c0.2,0.4,0.5,0.6,1,0.7c1,0.3,3.5-0.8,10.6-4.9
		c-14.5,9.1-14.1,9.8-13.4,11.1c0.2,0.4,0.5,0.6,0.9,0.7c1.4,0.4,6.2-2.1,25.9-14C44,93.7,42.8,93.7,41.7,93.6z"/>
	<path class="st1" d="M67.3,60.5c0-0.2-0.1-0.5-0.2-0.8c-1.4,0.9-2.6,1.8-3.7,3.1c0.5,0.6,1,1.1,1.4,1.6c0.9,1.2,1.8,2.4,2.7,3.6
		c0.1,0.1,0.2,0.2,0.3,0.3c0.3-0.2,0.6-0.4,0.9-0.6c-0.2-1.4-0.5-2.9-0.8-4.3C67.7,62.4,67.2,61.5,67.3,60.5z"/>
	<path class="st1" d="M59.7,58.2c0.7,0.8,1.5,1.6,2.4,2.5c1-0.9,1.9-1.9,2.9-2.8c0.3-0.3,0.4-0.6,0.2-0.9c-0.6-1.1-1.3-2-2.5-2.4
		c-0.7,0.6-1.4,1.2-2,1.7c-0.3,0.2-0.6,0.4-0.9,0.7C59.5,57.4,59.4,57.9,59.7,58.2z"/>
	<path class="st1" d="M63.1,51.1c0.5-0.4,0.9-0.9,1.4-1.2c0.5-0.4,0.7-0.7,0.4-1.3c-0.1-0.2-0.1-0.4-0.2-0.6c-2.2-0.1-2.6,0.1-3.1,2
		C62,50.2,62.5,50.6,63.1,51.1z"/>
	<path class="st1" d="M68.1,85.8C68.2,85.8,68.2,85.8,68.1,85.8c1.2,1.4,2.2,2.7,3.3,3.9c0.5,0.5,1,1,1.2,1.8
		c0.2-0.1,0.4-0.2,0.5-0.4c0.4-0.8,0.5-1.6,0.1-2.4c-0.1-0.2-0.3-0.5-0.3-0.7c0.1-1.4-0.6-2.6-0.7-3.9c0-0.3-0.1-0.6-0.1-0.8
		c-0.4,0.2-0.8,0.5-1.2,0.7C70,84.7,69,85.2,68.1,85.8z"/>
	<path class="st1" d="M64,45c0.2-0.3,0.3-0.6,0.5-0.9C65,43.3,65,43,64,42.7c-0.4-0.1-0.8-0.2-1.2-0.2c-0.5,0-0.8,0.4-0.8,0.8
		c0.1,0.8,0.3,1.5,0.9,2C63.4,45.6,63.7,45.5,64,45z"/>
	<path class="st1" d="M50.2,93.7c-1.6,0-3.1,0-4.7,0c-19.9,12.3-19.6,12.8-18.8,14.3c0.2,0.4,0.5,0.6,1,0.7c1.5,0.4,6.8-2.4,27.5-15
		C53.5,93.7,51.9,93.7,50.2,93.7z"/>
	<path class="st1" d="M65.3,52.1c-0.1,0.2-0.3,0.4-0.5,0.7c0.3,0.2,0.6,0.4,0.9,0.7C65.8,52.4,65.8,52.1,65.3,52.1z"/>
	<path class="st1" d="M79.7,61.2c-0.4,0.3-0.9,0.5-1.3,0.8c0.1,0,0.2,0,0.2-0.1C79,61.7,79.4,61.5,79.7,61.2z"/>
	<path class="st1" d="M123.8,63.4c-0.2-0.3-0.6-0.6-0.9-0.7c-1-0.3-3.3,0.7-15.9,8.2c1.6-1,3.2-2,4.6-2.9c3.9-2.5,6.8-4.4,8.8-5.8
		c2.8-2,4.2-3.1,3.4-4.5c-0.2-0.3-0.6-0.6-0.9-0.7c-1-0.3-3.6,0.9-15.4,7.8c14.5-9.2,14.1-9.9,13.4-11.2c-0.2-0.4-0.6-0.6-1-0.7
		c-1-0.2-3.5,0.7-9.8,4.3c9.6-6.3,9.2-6.9,8.5-8.1c-0.2-0.4-0.5-0.6-1-0.7c-0.9-0.2-3.1,0.6-8.5,3.7c12.6-8,12.2-8.7,11.5-9.9
		c-0.2-0.4-0.6-0.6-1-0.7c-1-0.2-3.5,0.8-8.9,3.7c6.5-4.4,6.1-5,5.5-6c-0.2-0.4-0.6-0.6-1-0.7c-0.7-0.2-2,0.2-4.7,1.6
		c8.7-5.7,8.8-6.7,8.1-8c-0.2-0.3-0.6-0.6-0.9-0.7c-1.1-0.3-4.3,1.1-19.4,10.1c18.7-11.4,18.4-12,17.6-13.4
		c-0.2-0.3-0.6-0.6-0.9-0.7c-1-0.3-3.7,0.9-15.6,7.9c7.9-5.1,7.5-5.7,6.9-6.8c-0.2-0.4-0.6-0.6-1-0.7c-0.6-0.1-1.7,0.2-4,1.2
		c5.9-3.9,5.6-4.5,5-5.4c-0.2-0.4-0.5-0.6-0.9-0.7c-0.8-0.2-2.5,0.4-7.1,3c4.1-2.9,5.3-4,4.5-5.4c-0.2-0.4-0.6-0.6-1-0.7
		c-0.9-0.2-2.9,0.5-7.1,2.8c7.9-5.2,7.6-5.7,7-6.8c-0.2-0.3-0.6-0.6-0.9-0.7c-0.8-0.2-2.6,0.4-10.6,5.1c10.7-6.8,10.4-7.4,9.7-8.5
		c-0.2-0.4-0.6-0.6-1-0.7c-1.3-0.3-5.4,1.6-17.6,8.7c1.2-0.8,2.2-1.5,3.1-2.1c3.2-2.3,4.6-3.5,3.8-4.9c-0.2-0.4-0.5-0.6-1-0.7
		c-0.6-0.1-1.7,0.1-3.9,1.3c0.5-0.3,0.9-0.6,1.3-0.9c2.5-1.7,4.2-2.9,3.3-4.4c-0.2-0.3-0.6-0.6-0.9-0.7c-0.9-0.2-2.8,0.5-11.7,5.7
		C83,7.5,82.7,6.9,82,5.9c-0.2-0.3-0.6-0.6-0.9-0.7C80,4.9,77.5,6,62.3,15.1c2.7-1.8,4.8-3.2,6.3-4.2c2.3-1.6,3.9-2.8,3.1-4.3
		c-0.2-0.3-0.6-0.6-0.9-0.7c-1-0.3-2.8,0.5-15.2,8c1.4-0.9,2.7-1.8,4-2.6c9.6-6.3,9.7-6.8,9-8.1c-0.2-0.3-0.5-0.6-0.9-0.7
		c-1-0.3-2.3,0.2-20,10.9c1.9-1.3,3.8-2.5,5.4-3.5c8.1-5.4,8.5-6,7.7-7.3c-0.2-0.3-0.5-0.6-0.9-0.7c-1-0.3-1.2-0.3-22.5,12.7
		c-3.2,1.9-6.7,4.1-10.1,6.1c0.8-0.6,1.5-1.1,2.3-1.6c3.9-2.8,7.6-5.5,10.4-7.6C44.3,8,45.3,7.3,44.5,6c-0.2-0.3-0.5-0.6-0.9-0.7
		c-0.8-0.2-0.8-0.2-8.4,4.4c-2.7,1.7-6.4,3.9-7.3,4.3c-0.2,0-0.3,0.1-0.5,0.2c-0.7,0.4-0.9,1.2-0.5,1.9c0.2,0.3,0.5,0.5,0.8,0.6
		c0,0,0,0,0,0C9.5,29.9,9.5,30,10.4,31.5c0.2,0.3,0.5,0.6,0.9,0.7c0.7,0.2,1.5,0,7.6-3.5c-0.5,0.3-1,0.7-1.5,1
		c-8.3,5.6-8.8,6.2-8,7.6c0.2,0.3,0.5,0.6,0.9,0.7c0.8,0.2,2.1-0.3,9.3-4.4c-0.4,0.2-0.7,0.5-1.1,0.7c-9.7,6.4-9.9,6.9-9.1,8.3
		c0.2,0.4,0.5,0.6,1,0.7c0.5,0.1,1.2,0,2.8-0.7c-0.2,0.2-0.5,0.3-0.7,0.4C3.8,48.5,1.1,50.2,2.1,52c0.2,0.3,0.6,0.6,0.9,0.7
		c0.9,0.2,2.7-0.5,9.5-4.4C2.1,55,2.4,55.5,3.1,56.7C3.3,57,3.6,57.3,4,57.4c0.6,0.2,2-0.3,5.1-1.9c-2.6,1.8-3.9,3-3.1,4.3
		c0.2,0.4,0.6,0.6,1,0.7c0.9,0.2,3-0.6,8.3-3.5c-3.7,2.3-6.4,4.1-8.2,5.4c-2.8,2-4.3,3.1-3.4,4.5c0.2,0.3,0.6,0.6,0.9,0.7
		c0.7,0.2,1.9-0.2,6.3-2.6c-10.7,6.9-10.4,7.4-9.7,8.6c0.2,0.4,0.6,0.6,1,0.7c1,0.3,3.6-0.8,9.8-4.2c-3.5,2.4-4.8,3.6-4,5
		c0.2,0.4,0.6,0.6,1,0.7c0.6,0.1,1.7-0.1,3.5-1c-8.9,5.7-8.6,6.3-8,7.4c0.2,0.4,0.6,0.6,1,0.7c0.5,0.1,1.3-0.1,2.8-0.7
		c-5.1,3.5-4.7,4.1-4.2,5c0.2,0.4,0.6,0.6,1,0.7c0.7,0.2,2.3-0.3,5.6-2c-3.2,2.3-4.3,3.3-3.6,4.7c0.2,0.3,0.6,0.6,0.9,0.7
		c1,0.3,3.8-1,12-5.7c-0.7,0.5-1.4,0.9-2,1.3c-4.5,3.1-5.7,4.2-4.8,5.6c0.2,0.4,0.5,0.6,0.9,0.7c1,0.3,3.8-1,12-5.6
		c-2,1.3-3.6,2.3-4.9,3.3c-3.5,2.5-5,3.7-4.1,5.1c0.2,0.3,0.6,0.6,0.9,0.7c1.5,0.4,6.4-2.3,29.8-16.5c0.1-0.4,0.2-0.8,0.3-1.2
		c0-0.2,0.1-0.4,0.2-0.6c0.8-1.8,1.6-3.7,2.3-5.5c0.5-1.3,0.9-2.6,1.3-3.9c-1.2,0.7-2.4,1.5-3.6,2.2c1.2-0.7,2.4-1.5,3.6-2.2
		c0.1-0.3,0.2-0.5,0.3-0.8c0.7-1.9,1.4-3.9,2.1-5.8c0.7-1.8,1.4-3.6,2-5.4c0.3-0.9,0.7-1.8,1-2.7c0.2-0.8,0.5-1.5,0.6-2.3
		c0.4-1.8,1.3-3.5,2.2-5.1c0.4-0.7,0.4-1.1,0.1-1.8c-0.3-0.6-0.4-1.4-0.5-2.1c-0.2-1.6,1-2.5,1.8-3.7c0-0.1,0.1-0.1,0.2-0.1
		c1.2-1.1,2-1.2,3.5-0.4c0.2,0.1,0.4,0.4,0.6,0.5c0.3,0.3,0.6,0.5,0.9,0.8c0.6,0.6,1.1,1.2,1.2,2.1c0,0.9-0.1,1.8-0.5,2.7
		c-0.2,0.3-0.3,0.7-0.3,1.1c0,0.7,0,1.3,0.8,1.6c0.2,0.1,0.4,0.3,0.6,0.4c0.7,0.6,0.7,1.3,0,1.9c-0.1,0.1-0.3,0.2-0.5,0.4
		c0.2,1.4,0.4,2.8,0.6,4.1c0.1,0.3,0.2,0.7,0.4,0.8c0.9,0.5,0.7,1.3,0.5,1.9c-0.3,0.7-0.2,1.3,0,2c0.3,1.5,0.6,3.1,0.8,4.6
		c0.1,0.8,0.3,1.6,0.5,2.3c1.7-1,3.4-2.1,5-3.1c0.1-0.4,0.5-0.7,1.1-1.2c0.1-0.1,0.2-0.2,0.3-0.3c0,0,0.1,0.1,0.1,0.1
		c0.3,0,0.6,0,0.8,0c0.7-0.4,1.4-0.8,2.1-1.3c0.9-0.9,1.9-1.8,2.5-3c0.3-0.6,0.7-1.2,1-1.8c0.8-1.5,1.7-3,2.1-4.7
		c0.3-1.3,0.7-2.7,0.9-4c0.3-1.6,0.3-3.1,0-4.7c-0.4-1.9-0.8-3.8-1.4-5.6c-0.8-2.2-1.8-4.3-3.6-5.9c-0.2-0.2-0.4-0.4-0.6-0.6
		c-1.5-1.6-3.3-2.7-5.5-3.2c-0.6-0.1-1-0.5-1.4-1c-0.5-0.8-0.2-1.5,0.7-1.6c0.5-0.1,1.1,0,1.6,0c0.2,0,0.3,0.1,0.5,0.2
		c1.4,0.9,2.9,1.6,4.3,2.6c1.7,1.2,3.2,2.7,4.1,4.5c1,2,2.3,4.1,2.5,6.4c0,0.2,0.1,0.3,0.2,0.5c0.8,1.1,0.7,2.5,0.9,3.7
		c0.1,0.5,0.1,1.1,0.1,1.6c0,0.7-0.1,1.4-0.2,2c-0.1,1.1-0.3,2.3-0.5,3.4c-0.2,0.8-0.4,1.7-0.7,2.5c-0.6,1.7-0.8,3.5-1.8,5
		c3.4-2,6.6-4,9.7-5.8c-3.1,1.9-6.4,4-9.9,6.1c-0.1,0.2-0.3,0.4-0.5,0.6c-0.3,1.4-1.5,2.2-2.3,3.2c-0.5,0.6-0.9,1.2-1.6,1.7
		c-0.8,0.6-1.6,1.3-2.3,2c-0.3,0.3-0.6,0.7-0.9,1c-0.7,0.5-2.1,0-2.2-0.8c-0.2-0.7-0.2-1.1-0.2-1.5c-1.7,1-3.3,2-5,3
		c0.1,0.3,0.1,0.7,0.2,1c0,0.2,0.1,0.4,0.2,0.6c0.5,0.9,0.8,1.8,0.4,2.8c-0.1,0.4,0.2,0.9,0.3,1.3c0.4,1.5,0.7,2.9,1.1,4.4
		c0,0,0,0.1,0,0.1C80,72.5,87.4,68,94.2,63.9C87.5,68.1,80,72.6,72.8,77c0.2,0.6,0.3,1.1,0.5,1.7c0.1,0.3,0.1,0.7,0.1,1
		c-0.1,0.9,0.1,1.7,0.4,2.6c7.6-4.7,15.8-9.7,23.2-14.2c-7.3,4.5-15.5,9.5-23.2,14.2c0,0.1,0,0.1,0.1,0.2c0.2,0.4,0.2,0.8,0.2,1.2
		c0,0.2,0.1,0.5,0.2,0.7c0.6,1.3,0.7,2.7,0.9,4.1c0.1,0.4,0.3,0.8,0.4,1.2c0.1,0.4,0.4,0.8,0.4,1.3c0.1,0.5,0.4,0.7,0.8,0.8
		c0.2,0,0.3,0,0.5,0c0.5,0,1.1-0.1,1.5,0c1.5,0.4,2.9,0,4.3-0.2c0.4,0,0.8,0,1.1,0c0.7,0,1,0.2,1.1,0.9c0,0.2,0,0.5,0.1,0.7
		c0,0.1,0,0.3,0,0.5c-0.3,0-0.6,0.1-0.9,0.1c-6.1,0-12.2,0-18.3,0c-3.7,0-7.4,0-11.1,0.1C28.6,110,28.8,110.4,29.8,112
		c0.2,0.3,0.6,0.6,0.9,0.7c1.2,0.3,4.2-1.1,22.9-12.3c-15,9.5-14.6,10.1-13.9,11.5c0.2,0.3,0.6,0.6,0.9,0.7
		c1.2,0.3,4.6-1.3,22.6-12.1c-21,13.2-20.7,13.6-19.9,15.1c0.2,0.3,0.6,0.6,0.9,0.7c1.1,0.3,3.4-0.8,18.5-9.8
		c-15,9.5-14.8,9.8-14,11.2c0.2,0.4,0.5,0.6,0.9,0.7c0.8,0.2,2.1-0.2,6.6-2.7c-5.6,3.9-5.3,4.4-4.8,5.4c0.2,0.3,0.5,0.6,0.9,0.7
		c0.1,0,0.2,0,0.3,0c1.5,0,5.5-2.2,27.3-15.4c-2.5,1.7-4.9,3.3-7,4.7c-9.4,6.4-9.5,6.9-8.8,8.3c0.2,0.3,0.5,0.6,0.9,0.7
		c1.1,0.3,2-0.1,20.9-11.7c0.9-0.5,1.8-1.1,2.7-1.6c-3.5,2.5-7,4.9-9.7,6.8c-5.3,3.9-6.1,4.5-5.3,5.8c0.2,0.3,0.5,0.6,0.9,0.7
		c0.9,0.2,1.1,0.3,14.7-8c4.1-2.5,9.1-5.6,10.2-6.1c0.2,0,0.4-0.1,0.5-0.2c0.7-0.4,0.9-1.2,0.5-1.9c-0.2-0.3-0.5-0.6-0.9-0.7
		c-0.4-0.1-0.6-0.2-2,0.6c2.3-1.6,4.4-3.2,6.3-4.5c5.5-4,6.4-4.8,5.6-6.1c-0.2-0.3-0.6-0.6-0.9-0.7c-0.8-0.2-2,0.2-7.9,3.7
		c3-2,5.7-3.8,8-5.3c7.3-5,7.8-5.5,7.1-6.8c-0.2-0.3-0.5-0.6-0.9-0.7c-0.7-0.2-1.7,0.1-6.3,2.7c10.5-6.7,10.2-7.1,9.5-8.3
		c-0.2-0.3-0.6-0.6-0.9-0.7c-0.7-0.2-1.8,0.1-5.8,2.4c9.9-6.4,9.6-7,8.9-8.1c-0.2-0.3-0.6-0.6-0.9-0.7c-1-0.3-3.2,0.6-15.1,7.7
		C124.8,65.2,124.6,64.8,123.8,63.4z M51.7,65.1c-0.2,0.8-1.6,1.4-2.2,0.8c-0.3-0.3-0.6-0.7-0.9-1c-0.7-0.7-1.5-1.5-2.3-2
		c-0.7-0.5-1.1-1.1-1.6-1.7c-0.8-1-2-1.8-2.3-3.2c-1.6-1.6-1.7-3.9-2.5-5.9c-0.3-0.8-0.6-1.6-0.7-2.5c-0.2-1.1-0.3-2.3-0.5-3.4
		c-0.1-0.7-0.2-1.4-0.2-2c0-0.5,0-1.1,0.1-1.6c0.3-1.3,0.2-2.6,0.9-3.7c0.1-0.1,0.2-0.3,0.2-0.5c0.2-2.4,1.5-4.4,2.5-6.4
		c0.9-1.8,2.4-3.2,4.1-4.5c1.4-1,2.9-1.7,4.3-2.6c0.1-0.1,0.3-0.2,0.5-0.2c0.5,0,1.1,0,1.6,0c1,0.1,1.3,0.8,0.7,1.6
		c-0.3,0.5-0.7,0.8-1.4,1c-2.2,0.5-4,1.6-5.5,3.2c-0.2,0.2-0.4,0.4-0.6,0.6c-1.8,1.6-2.9,3.7-3.6,5.9c-0.6,1.8-1,3.7-1.4,5.6
		c-0.3,1.5-0.4,3.1,0,4.7c0.3,1.3,0.6,2.7,0.9,4c0.4,1.7,1.2,3.2,2.1,4.7c0.3,0.6,0.8,1.1,1,1.8c0.6,1.4,1.8,2.2,2.8,3.3
		c0.3,0.4,0.8,0.7,1.2,0.9c0.4,0.2,1,0.1,1.4,0.2c0,0,0.1-0.1,0.1-0.1c0.1,0.1,0.2,0.2,0.3,0.3C52.1,63.4,52.1,63.4,51.7,65.1z
		 M54,57.8c-0.3,0.3-0.7,0.5-1.1,0.4c-0.7-0.2-1.4-0.5-1.9-0.9c-0.5-0.4-0.9-1-1.7-0.9c-0.7-1.2-1.3-2.3-1.9-3.4
		c-0.4-0.6-0.5-1.3-0.7-2c-0.7-2.3-0.5-4.7-0.4-7c0-1,0.5-1.9,0.8-2.9c0.3-1.1,0.7-2.3,1-3.4c0-0.1,0-0.1,0.1-0.2
		c1.2-1.5,1.5-3.5,3-4.7c0.5-0.4,0.9-1,1.3-1.6c0.3-0.4,0.7-0.6,1.2-0.5c0.6,0.1,1.1-0.1,1.6-0.4c0.4-0.2,0.8-0.3,1.3-0.2
		c1,0,1.3,0.7,1.5,1.4c0.4,0.9-0.7,1.9-1.8,1.6c-1.4-0.3-2.3,0.1-3.1,1.3c-0.1,0.1-0.1,0.3-0.3,0.4c-1.5,1-1.8,2.9-2.6,4.3
		c-0.4,0.7-0.6,1.5-0.8,2.3c-0.3,1.1-0.7,2.2-0.9,3.3c-0.1,0.6-0.1,1.2-0.1,1.7c0,1.6,0.1,3.1,0.9,4.6c0.3,0.5,0.5,1,0.5,1.6
		c0,0.5,0.3,1,0.8,1.3c0.2,0.1,0.4,0.2,0.5,0.3c0.6,0.5,1.2,1.1,2.1,0.6c0.1,0,0.3,0,0.4,0.1C54.5,55.4,54.7,57.1,54,57.8z M59.9,37
		c-0.1,0.9-0.7,1.5-1.6,1.4c-0.3,0-0.8-0.2-0.9,0c-0.3,0.3-0.6,0.7-0.7,1.1c-0.2,1-0.3,2-0.4,2.9c-0.1,0.4,0.1,0.7,0.5,1
		c1,0.6,1.4,1.5,1.5,2.6c0.1,0.8-0.3,1.5-0.9,2.1c-0.1,0.1-0.3,0.2-0.5,0.1c-0.8-0.3-1.6-0.5-1.9-1.4c-0.3-0.7-0.6-1.3-0.9-1.9
		c-0.4-0.9-0.3-1.9-0.2-2.9c0-0.1,0.1-0.3,0-0.4c-0.2-1.3,0.3-2.4,0.8-3.5c0.3-0.7,0.9-1.3,1.4-1.9c0.3-0.3,0.9-0.4,1.3-0.5
		c0.4-0.1,0.8,0,1.1,0C59.5,35.5,60,36.1,59.9,37z M59.1,24.5c-0.8,0.2-1.6-0.2-1.9-1c-0.2-0.6,0.5-1.6,1.2-1.8c1-0.2,2-0.5,3-0.7
		c0.3-0.1,0.5-0.1,0.8-0.1c1.3,0,2.6,0.3,3.9,0c0.1,0,0.3,0,0.4,0c1,0.5,2.1,0.3,3.2,0.2c0.4,0,0.8,0,1.1,0.1c0.5,0.2,1,0.4,1.5,0.7
		c0.7,0.4,0.7,1.7-0.1,2.2c-0.4,0.3-1.1,0.4-1.5,0.3c-1.7-0.5-3.3-1.1-4.9-0.9c-1.2-0.1-2.3,0-3.4,0.4c-0.7,0.3-1.5,0.2-2.3,0.4
		C59.7,24.4,59.4,24.4,59.1,24.5z M65.8,29.6c-0.3,0-0.5,0-0.8,0.1c-0.8,0.1-1.5,0.3-2.3,0.3c-0.9,0.1-1.4-0.5-1.4-1.4
		c-0.2-0.9,0.7-1.4,1.2-2c0.1-0.1,0.3-0.1,0.5-0.1c1.7,0.6,3.4,0.5,5.2,0.8c0.2,0,0.5,0.1,0.7,0.2c0.7,0.3,1.1,1,1,1.6
		c-0.1,0.5-1,1-1.6,0.9C67.4,29.9,66.6,29.7,65.8,29.6z M73.5,46.1c-0.2,0.8-0.2,1.7-0.7,2.4c-0.4,0.5-0.7,1.1-1.2,1.5
		c-0.6,0.6-1.4,0.5-1.9-0.1c-0.5-0.7-0.5-1.8,0.3-2.1c0.8-0.4,1.1-0.9,1.3-1.6c0.8-2.6,0.2-5.1-1.3-7.3c-0.4-0.5-1-0.9-1.6-1.5
		c0,0,0-0.1,0-0.2c-0.1-1.3,0-1.5,1.4-1.7c0.5-0.1,0.8,0.1,1.1,0.6c0.3,0.5,0.6,1.1,1,1.5c0.7,0.8,0.9,1.7,1.3,2.6
		C74.1,42.2,74.1,44.1,73.5,46.1z M73.9,28.8c0.7,0.6,1.4,1.3,2.1,2c1.2,1,2.1,2.3,2.5,3.9c0.1,0.2,0.1,0.4,0.2,0.6
		c0.8,1.1,1.2,2.5,1.5,3.8c0.3,1.2,0.8,2.3,0.8,3.6c0,0.9,0.4,1.9,0.6,2.8c0.2,0.9,0.3,1.7,0.5,2.6c-0.3,2.6-0.8,5-2.1,7.3
		c-0.2,0.4-0.6,0.7-0.9,1.1c-0.4,0.5-0.8,1-1.3,1.5c-0.2,0.3-0.4,0.5-0.7,0.7c-0.9,0.7-1.7,0.5-2.2-0.5c-0.3-0.5,0-1,0.2-1.4
		c0.2-0.3,0.4-0.5,0.7-0.7c0.6-0.3,1.1-0.8,1.4-1.5c0.1-0.1,0.1-0.3,0.2-0.3c1.1-0.8,1.6-2.1,2.1-3.4c0.3-0.9,0.3-1.9,0.4-2.9
		c0.1-1.5-0.1-2.9-0.6-4.3c-0.3-0.9-0.6-1.9-0.5-3c0.1-0.7-0.3-1.5-0.5-2.2c0-0.1-0.2-0.2-0.3-0.3c-0.5-0.2-0.5-0.6-0.7-1.1
		c-0.1-0.7-0.6-1.4-1-2c-0.2-0.4-0.5-0.7-0.8-1.1c-0.6-1-1.6-1.5-2.5-2.2c-0.3-0.2-0.6-0.4-0.8-0.6c-0.5-0.4-0.8-1.2-0.6-1.7
		c0.2-0.4,1.1-0.8,1.6-0.7C73.6,28.6,73.8,28.7,73.9,28.8z M92.2,45.8c0-0.3,0-0.6,0-1c0.1,0.2,0.2,0.4,0.2,0.5
		C92.4,45.5,92.3,45.7,92.2,45.8z M79.4,67c6.2-3.8,12.5-7.7,18.2-11.1C91.9,59.4,85.7,63.2,79.4,67z"/>
	<path class="st1" d="M58.6,60.5c-0.3-0.2-0.8-0.2-1.1-0.1c-0.2,0-0.2,0.5-0.3,0.8c-0.1,0.4-0.3,0.8-0.4,1.1
		c-0.2,0.4-0.4,0.8-0.6,1.3c-0.4,1.2-0.8,2.5-1.2,3.8c0.1,0,0.1,0.1,0.2,0.1c0.2-0.3,0.4-0.6,0.7-0.8c0.8-0.8,1.7-1.5,2.5-2.3
		c0.5-0.5,1.1-1.1,1.6-1.6c0.3-0.2,0.3-0.5,0.1-0.8C59.5,61.4,59.1,60.8,58.6,60.5z"/>
	<path class="st1" d="M80.5,51.8c0,0,0-0.1-0.1-0.2c-0.1,0-0.2,0.1-0.2,0.1c0,0.1,0,0.1,0.1,0.2C80.3,51.8,80.4,51.8,80.5,51.8z"/>
	<path class="st1" d="M50.8,78.6c1.7-1,3.4-2.1,5.2-3.2c-0.1,0-0.1-0.1-0.2-0.1c-0.9-0.2-1.3-0.9-1.9-1.5c-0.3-0.3-0.7-0.5-1.2-0.9
		c-0.2,0.6-0.4,1.1-0.5,1.5c-0.4,1.2-0.8,2.5-1.3,3.7C50.9,78.3,50.8,78.5,50.8,78.6z"/>
	<path class="st1" d="M49.3,82.9c-0.3,1-0.6,2-1,2.9c-0.3,0.7-0.3,1.4-0.5,2.1c0.8-0.5,1.5-0.8,2.2-1.3c1-0.7,1.9-1.3,2.8-2.1
		c1.4-1.2,2.7-2.5,4-3.8c0.8-0.7,1.5-1.5,2.2-2.2c-0.8-0.9-1.5-1.7-2.2-2.4c-0.2-0.2-0.5-0.5-0.8-0.7c-1.8,1.1-3.6,2.2-5.3,3.2
		c-0.4,1.2-0.9,2.4-1.3,3.6C49.3,82.5,49.3,82.7,49.3,82.9z"/>
</g>
<g class="st0">
	<path class="st1" d="M52.8,76.3c-1.3,0-2.6,0-3.9,0c-0.5,0-0.9,0-1.4-0.1c-1.3-0.3-2.3,0.3-1.9,1.8c0.3,1.1,0.5,2.2,0.9,3.2
		c2-1.2,4.2-2.6,6.5-4C53,76.9,52.9,76.6,52.8,76.3z"/>
	<path class="st1" d="M65.9,80.4c-0.1-0.3-0.2-0.6-0.2-0.9c-0.2-0.6-0.3-1.3-0.5-1.9c-0.1-0.3-0.2-0.7-0.2-1c0-0.6-0.3-0.8-0.8-1
		c-0.7,0.7-1.7,0.3-2.5,0.4c-0.9,0-1.8,0-2.8,0c0.4-0.1,0.8-0.2,1.1-0.3c0-0.1,0-0.2-0.1-0.2c-0.4,0.1-0.9,0-1.2,0.2
		c-0.8,0.5-1.7,0.8-2.8,0.6c0,3.4-1.3,6.2-4.1,8.5c1.8,0,3.2,0,4.7,0c0.9,0,1.8,0.1,2.7,0.1c0.2,0,0.5,0,0.7,0
		c2-1.2,4.1-2.5,6.3-3.9C66.1,80.7,66,80.5,65.9,80.4z"/>
	<path class="st1" d="M101,67.2c-0.2-1.7-0.5-3.4-0.7-5c0-0.1-0.1-0.3-0.2-0.4c-0.4,0-0.9,0.1-1.3,0c-0.6-0.1-1.2-0.3-1.8-0.5
		c-0.7-0.3-1.1,0.6-1.7,0.4c-0.2-0.1-0.4,0-0.7,0c0.3-0.1,0.4-0.2,0.6-0.3c-0.4-0.1-0.8-0.2-1.2-0.4c-1-0.4-2.6-0.1-3.7,0.5
		c-0.6,0.3-1.3,0.3-2,0.3c0,0-0.1,0-0.1,0c-2.9,1.8-5.9,3.5-8.8,5.3c2.9-1.8,5.9-3.6,8.7-5.3c-0.7,0-1.3-0.2-2-0.3
		c-1.4-0.1-2.3-1-2.9-2.2c0,0,0-0.1,0-0.1C76.7,63,70,67,63.8,70.8c-1.6,1-3.2,1.9-4.7,2.8c0.5,0,1,0,1.5,0c1,0,2.1,0,3.2,0
		c0.4,0.3,0.4,1.1,1.1,0.9c0.2,0,0.3-0.4,0.5-0.8c0.2,0.1,0.6,0.2,1,0.3c0.5,0.1,1,0,1.5,0c0,0,0-0.3,0-0.6c0.8-0.1,1.8-0.2,2.7-0.3
		c0,0.1,0,0.1,0,0.2c-0.6,0.1-1.1,0.1-1.7,0.2c0,0.1,0,0.1,0,0.2c1,0.2,1.9,0.4,3,0.7c0.4-0.6,0.9-0.8,1.8-0.5
		c0.7,0.2,1.6,0.1,2.4-0.2c0.8-0.3,1.7-0.4,2.6-0.5c0,0,0,0,0,0c5.3-3.2,10.6-6.4,15.5-9.4c-4.8,3-10,6.2-15.2,9.3
		c0.3,0,0.5,0,0.8,0.1c0.2,0.1,0.2,0.4,0.6,0.3c0.3-0.1,0.6-0.4,0.9-0.4c1.6,0,3.2,0.1,4.9,0.1c0.3,0,0.5,0,0.8-0.1
		c0.8-0.3,1.6-0.5,2.4-0.5c2.7-1.6,5.3-3.2,7.9-4.8c-2.5,1.5-5.1,3.1-7.7,4.8c0.3,0,0.6,0.1,0.9,0.2c0.1,0,0.2,0,0.3,0
		c2.3-0.1,4.6-0.1,6.8-0.2c0.9-0.1,1.7-0.4,2.5-0.7c0.5-0.2,0.7-0.6,0.7-1.1c-0.1-1.1,0-2.2,0.3-3.3C101,67.5,101,67.4,101,67.2z
		 M74.2,73.5c-0.4,0-0.8,0-1.3,0c0,0,0-0.1,0-0.1c0.4,0,0.9,0,1.3,0C74.2,73.4,74.2,73.4,74.2,73.5z"/>
	<path class="st1" d="M63.5,75.5c0-0.1,0-0.2,0-0.2c-0.7,0.1-1.5,0.2-2.2,0.2C62.1,75.8,62.8,75.8,63.5,75.5z"/>
	<path class="st1" d="M71.6,49.8C71.6,49.8,71.6,49.9,71.6,49.8C71.6,49.9,71.6,49.8,71.6,49.8z"/>
	<path class="st1" d="M49.3,82.7c1.4-0.4,2.5-1.3,2.9-2.8c0.1-0.3,0.2-0.6,0.4-0.8c0.5-0.6,0.6-1.2,0.5-1.8c-2.3,1.4-4.5,2.7-6.5,4
		c0.3,0.6,0.6,1.2,1.1,1.8C48.2,82.9,48.8,82.9,49.3,82.7z"/>
	<path class="st1" d="M51,75.2c-0.7-0.2-1.1,0.1-1.4,0.6C50.3,76,50.7,76,51,75.2z"/>
	<path class="st1" d="M46.3,49c-1.5,0.8-3,0.7-4.5,0.4c-0.2,0-0.5,0-0.7,0c-1,0.1-2,0.3-3.1,0.5c-0.4,0-0.6,0.2-0.7,0.6
		c-0.1,0.3-0.1,0.6-0.1,0.9c0,2-0.1,4,0,6c0,0.4,0.1,0.8,0.2,1.2c0.8,0.4,1.5,0.3,2.2,0.1c1-0.2,3.5,0.4,3.9,0.4
		c0.7-0.1,1.4-0.1,2.1-0.2c0.8-0.1,1.2-0.6,1.2-1.3c0.1-1.2,0.4-2.3,0.3-3.5c-0.1-1.4,0-2.9,0-4.3C47.1,49.1,46.8,48.8,46.3,49z"/>
	<path class="st1" d="M28.4,73c0,0.6,0.2,0.9,0.8,0.8c0.7,0,1.3,0,2-0.1c1-0.1,1.9-0.3,2.9,0.1c0.1,0,0.2,0,0.2,0
		c1.6,0,3.1-0.1,4.7-0.1c0.7,0,1.4,0.1,2.2,0.1c2.7,0,5.3-0.1,8-0.1c0.4,0,0.9,0.2,1.3,0.3c0.1,0,0.3,0.1,0.4,0
		c0.9-0.5,1.8-0.2,2.7-0.3c1.8-0.1,3.6-0.1,5.4-0.2c1.2-0.7,2.4-1.5,3.7-2.3c6.6-4,13.6-8.3,20.4-12.4c-0.1-0.3-0.3-0.6-0.3-1
		c-0.3-1.5-0.7-3.1-1.2-4.6c0,0-0.1-0.2-0.1-0.4c0,0,0,0,0,0c-0.3-2-1-9.9-1.2-9.9c-0.1-0.1-0.1-0.2-0.1-0.3c0-0.3-0.1-0.6,0-0.9
		c0.4-1.1-0.4-1.9-0.9-2.6c-0.2-0.3-0.9-0.4-1.4-0.5c-0.1,0-0.9,0-2.3,0c-0.2,0.1-0.5,0.2-0.6,0.1c0,0-0.1-0.1-0.1-0.1
		c-9.1-0.1-36-0.2-36.3-0.3c-0.9,0-1.8-0.1-2.8-0.1c-2-0.1-4-0.1-6-0.1c-0.9,0-1.1,0.2-1.1,1.1c0,1.7,0,3.5,0,5.2c0,1,0,1.9,0,3
		c0.8,0.1,1.5,0.3,2.2,0.3c4.2,0.1,32.2,0.1,40.5,0.2c0.2,0,0.4,0,0.6,0c0,0,0,0,0.1,0c0.5,0,0.9,0,1.2,0c0.5,0,0.7,0.2,0.8,0.6
		c0.2,0.9,0.4,1.8,0.4,2.7c0.1,1.3,0.1,2.7,0.2,4c0,0.5,0.2,1.1,0.2,1.6c0.1,0.8,0.2,1.5,0.2,2.3c0,0.6-0.1,1.2-0.1,1.9
		c-1.5,0.2-3.1,0.1-4.8,0.1c-6.2,0-18.4-0.1-18.9,0C50.1,61.1,49.1,61,48,61c-0.7,0-1.4,0.1-2.1,0.1c-0.5,0-9.7,0.2-12.6-0.1
		c-0.5,0-2.7-0.3-3.2-0.2c-0.6,0-1.1,0-1.8,0c0,0.4-0.1,0.8-0.1,1.2C28.3,65.6,28.4,69.3,28.4,73z M56.8,66.3
		c-2.9,1.7-5.7,3.5-8.6,5.2C51.1,69.8,53.9,68,56.8,66.3z"/>
	<path class="st1" d="M31.4,59.1c2.9-0.3,2.6,0.1,3.5-2.5c0.1-0.2,0.1-0.4,0.1-0.6c0.1-1.7,0.2-3.5,0.2-5.2c0-0.8-0.1-1.1-1-1.1
		c-1.4-0.1-2.8-0.1-4.2,0c-1.1,0.1-1.6,0.7-1.7,1.8c-0.1,2-0.1,4.1-0.2,6.1c0,0.4,0.1,0.8,0.1,1.3C29.5,59,30.4,59.1,31.4,59.1z"/>
	<path class="st1" d="M37.7,86.6C19,98.1,19.3,98.6,20.2,100c0.2,0.4,0.5,0.6,1,0.7c1,0.3,3.5-0.8,10.6-4.9
		c-14.5,9.1-14.1,9.8-13.4,11.1c0.2,0.4,0.5,0.6,0.9,0.7c1.6,0.4,8-3.1,37.5-21C50.4,86.6,44,86.6,37.7,86.6z"/>
	<path class="st1" d="M63.2,74c-0.1-0.1-0.3-0.1-0.4-0.2c-0.1,0-0.3,0.1-0.4,0.1c0,0.1,0,0.1,0,0.2c0.2,0,0.5,0,0.7,0
		C63.2,74.1,63.2,74,63.2,74z"/>
	<path class="st1" d="M61.6,50.6c0.2-0.3,0.1-0.1,0,0.3c0.1,1.8,0.2,3.6,0.3,5.3c0,0.3,0.1,0.6,0.2,0.9c0.3,0.7,0.4,1.3,0.3,2
		c4.6,0,8.7-0.1,8.8,0c0.7-0.2,1.9-2.2,1.6-3.2c-0.2-0.6-0.1-1.2,0.1-1.8c0.2-0.6,0.3-1.4,0.1-1.9c-0.3-0.9-0.9-1.6-1.4-2.4
		c-0.3,0-5.1-0.2-10.1-0.4C61.6,49.8,61.6,50.2,61.6,50.6z M66.9,58.7c0,0,0,0.1,0,0.1c-0.2,0-0.5,0.1-0.7,0.1c0-0.1,0-0.1,0-0.2
		C66.4,58.7,66.6,58.7,66.9,58.7z"/>
	<path class="st1" d="M50.1,59.2c0,0,0.1,0,0.2,0C50.2,59.2,50.2,59.2,50.1,59.2C50.1,59.2,50.1,59.2,50.1,59.2z"/>
	<path class="st1" d="M49.9,49.5c0-0.4-0.8,0.1-0.8,0.5c0,1-0.4,1,0.1,2c0.1,0.3,0.1,0.8,0.1,1.1c0,1.8-0.2,3.6,0.4,5.3
		c0.1,0.2,0,0.5,0,0.7c0,0.1,0.3,0.1,0.4,0.1c0.5,0,1,0,1.6,0c0,0,0,0,0,0.1c1.5,0,3.9,0,6.6,0c0.5-0.1,0.7-0.1,1.1-0.1
		c0.1-1-0.7-6.9-0.2-9.6C54.5,49.3,50.3,49.2,49.9,49.5z M51.7,49.6c0-0.1,0-0.1,0-0.2c0.3,0,0.5,0,0.8,0c0,0.1,0,0.2,0,0.2
		C52.2,49.6,51.9,49.6,51.7,49.6z"/>
	<path class="st1" d="M37,82.3c0.8-0.4,1.6-0.9,2.4-1.4c0.2-0.1,0.4-0.4,0.5-0.6c0.2-0.5,0.4-1.1,0.6-1.6c0.3-0.8,0.5-1.5,0.7-2.3
		c-2-0.6-7.1-0.4-9.5,0.2c0,1-0.1,1.9,0,2.8C32.2,81.9,34.8,83.4,37,82.3z"/>
	<path class="st1" d="M83.3,81.8c1.1,0.3,2.3,0.5,3.4,0c0.4-0.2,0.9-0.1,1.3-0.3c0.5-0.1,1.1-0.2,1.5-0.6c1.4-1.4,2.4-3,2.1-5.3
		c-1.5,0-2.9,0-4.3,0c-0.9,0-1.8,0-2.6,0c-1.1,0.7-2.3,1.4-3.4,2.1c0.1,0.6,0.2,1.3,0.4,1.9C81.9,80.6,82.2,81.5,83.3,81.8z"/>
	<path class="st1" d="M99.5,52.3c0-0.2-0.1-0.4-0.2-0.5c-1-1.3-1.9-2.6-3-3.8c-0.7-0.8-1.6-1.4-2.4-2.1c-1.2-0.9-2.4-1.9-3.7-2.8
		c-0.4-0.3-0.9-0.5-1.4-0.8c-0.3-0.2-5-2-5.1-2.3c-1.1-0.1-2,0.6-2,1.8c0,0.6,0.1,1.2,0.1,1.8c0.1,1.2,0.2,2.4,0.3,3.6
		c0,0.1,0.7,2.8,1.1,4.7c0,0.1,0,0.1,0,0.2c0.2,0.8,0.3,1.4,0.3,1.5c0.2,0.8,1,1.5,0.6,2.5c-0.1,0.1,0.1,0.4,0.2,0.5
		c0.3,0.3,0.6,0.7,1,1c3.6-2.2,7.1-4.3,10.3-6.2c-3.2,2-6.6,4.1-10.2,6.3c0.2,0.1,0.3,0.3,0.5,0.4c1,0.7,2.2,1.1,3.5,1
		c0.2,0,0.4-0.1,0.6,0c0.4,0.3,0.9,0.5,1.4,0.5c2.2-1.3,4.3-2.6,6.3-3.8c-2,1.2-4.1,2.5-6.2,3.8c0.7,0.1,1.3,0,2,0.1
		c1.3,0.2,2.5,0.2,3.7-0.3c0.6-0.3,1.4-0.3,2.1-0.3c0.6,0,0.9-0.3,0.9-0.8c0.1-0.7,0.2-1.5,0.1-2.2C100,54.9,99.7,53.6,99.5,52.3z"
		/>
	<path class="st1" d="M71.5,75.4c-0.1,0-0.3,0-0.4,0.1c-0.9,0.2-1.7,0.4-2.6,0.4c-0.6,0.1-0.9,0.3-0.8,0.9c0.1,0.6,0.2,1.3,0.3,1.9
		c0,0.4,0.1,0.7,0.2,1c2.1-1.3,4.3-2.6,6.5-4C73.6,75.8,72.6,75.7,71.5,75.4z"/>
	<path class="st1" d="M28.8,84.7c1.3,0,2.5,0,3.7,0c-0.5-0.7-1.1-1.1-1.6-1.5c-1.3-0.9-1.9-2.2-1.8-3.8c0-0.5,0-1,0-1.5
		c0-0.2-0.1-0.5-0.2-0.9C27.7,78.3,27.8,83.1,28.8,84.7z"/>
	<path class="st1" d="M43.3,80.3c0,0-0.1-0.1-0.3-0.1c-0.5,0.8-0.9,1.8-1.5,2.5c-0.6,0.7-1.4,1.3-2.1,2c0.2,0.2,0.2,0.2,0.3,0.2
		c0.2,0,0.5,0,0.7,0c1.2-0.7,2.5-1.5,3.9-2.3C43.9,81.8,43.4,81.1,43.3,80.3z"/>
	<path class="st1" d="M39,84.8c0-0.1,0-0.2-0.1-0.4c-0.2,0.2-0.3,0.2-0.4,0.3c0,0.1,0.1,0.2,0.2,0.3C38.8,85,38.9,84.9,39,84.8z"/>
	<path class="st1" d="M57,86.6c-31.5,19.2-31.3,19.6-30.3,21.3c0.2,0.4,0.5,0.6,1,0.7c1.8,0.5,8.6-3.4,39-22
		C63.5,86.6,60.2,86.6,57,86.6z"/>
	<path class="st1" d="M82.5,75.8c-1,0-1.4,0.4-1.4,1.3c0,0.2,0,0.4,0,0.6c1.1-0.7,2.2-1.3,3.3-2C83.8,75.7,83.2,75.7,82.5,75.8z"/>
	<path class="st1" d="M75.3,81.3c0.9-0.8,1.6-1.7,1.5-3c0-0.4,0.2-0.7,0.3-1.1c0.2-0.5,0.4-1,0.6-1.5c-0.2-0.1-0.2-0.2-0.2-0.2
		c-0.9,0-1.8,0.1-2.7,0.1c-2.1,1.3-4.2,2.5-6.2,3.8c-0.2,0.1-0.4,0.2-0.5,0.3c0.4,1.2,1.2,2.1,2.2,2.9c0.2,0.1,0.4,0.2,0.6,0.2
		c0.6,0.1,1.1,0.1,1.7,0c0,0,0,0,0,0C73.6,82.4,74.4,81.9,75.3,81.3z"/>
	<path class="st1" d="M67.8,84.2c-0.5-1.1-1.1-2.1-1.6-3.2c-2.2,1.3-4.2,2.6-6.2,3.8c2,0,4-0.1,6-0.1C66.7,84.6,67.2,84.6,67.8,84.2
		z"/>
	<path class="st1" d="M81.8,84.5c0-0.9-0.5-1.3-1-1.7c-0.5-0.4-1-0.8-1.6-1.3c-1.1,0.2-1.3,1.8-2.4,2.4c-0.2,0.1-0.3,0.4-0.5,0.7
		c1.1-0.1,2-0.2,2.9-0.2C80,84.3,80.9,84.4,81.8,84.5z"/>
	<path class="st1" d="M75.2,75.3c0,0-0.1-0.2-0.1-0.2c-0.2,0-0.4,0.1-0.6,0.1c0,0.1,0.1,0.2,0.1,0.4C74.8,75.5,75,75.4,75.2,75.3z"
		/>
	<path class="st1" d="M123.8,63.4c-0.2-0.3-0.6-0.6-0.9-0.7c-1-0.3-3.3,0.7-15.9,8.2c1.6-1,3.2-2,4.6-2.9c3.9-2.5,6.8-4.4,8.8-5.8
		c2.8-2,4.2-3.1,3.4-4.5c-0.2-0.3-0.6-0.6-0.9-0.7c-1-0.3-3.6,0.9-15.4,7.8c14.5-9.2,14.1-9.9,13.4-11.2c-0.2-0.4-0.6-0.6-1-0.7
		c-1-0.2-3.5,0.7-9.8,4.3c9.6-6.3,9.2-6.9,8.5-8.1c-0.2-0.4-0.5-0.6-1-0.7c-0.9-0.2-3.1,0.6-8.5,3.7c12.6-8,12.2-8.7,11.5-9.9
		c-0.2-0.4-0.6-0.6-1-0.7c-1-0.2-3.5,0.8-8.9,3.7c6.5-4.4,6.1-5,5.5-6c-0.2-0.4-0.6-0.6-1-0.7c-0.7-0.2-2,0.2-4.7,1.6
		c8.7-5.7,8.8-6.7,8.1-8c-0.2-0.3-0.6-0.6-0.9-0.7c-1.1-0.3-4.3,1.1-19.4,10.1c18.7-11.4,18.4-12,17.6-13.4
		c-0.2-0.3-0.6-0.6-0.9-0.7c-1-0.3-3.7,0.9-15.6,7.9c7.9-5.1,7.5-5.7,6.9-6.8c-0.2-0.4-0.6-0.6-1-0.7c-0.6-0.1-1.7,0.2-4,1.2
		c5.9-3.9,5.6-4.5,5-5.4c-0.2-0.4-0.5-0.6-0.9-0.7c-0.8-0.2-2.5,0.4-7.1,3c4.1-2.9,5.3-4,4.5-5.4c-0.2-0.4-0.6-0.6-1-0.7
		c-0.9-0.2-2.9,0.5-7.1,2.8c7.9-5.2,7.6-5.7,7-6.8c-0.2-0.3-0.6-0.6-0.9-0.7c-0.8-0.2-2.6,0.4-10.6,5.1c10.7-6.8,10.4-7.4,9.7-8.5
		c-0.2-0.4-0.6-0.6-1-0.7c-1.3-0.3-5.4,1.6-17.6,8.7c1.2-0.8,2.2-1.5,3.1-2.1c3.2-2.3,4.6-3.5,3.8-4.9c-0.2-0.4-0.5-0.6-1-0.7
		c-0.6-0.1-1.7,0.1-3.9,1.3c0.5-0.3,0.9-0.6,1.3-0.9c2.5-1.7,4.2-2.9,3.3-4.4c-0.2-0.3-0.6-0.6-0.9-0.7c-0.9-0.2-2.8,0.5-11.7,5.7
		C83,7.5,82.7,6.9,82,5.9c-0.2-0.3-0.6-0.6-0.9-0.7C80,4.9,77.5,6,62.3,15.1c2.7-1.8,4.8-3.2,6.3-4.2c2.3-1.6,3.9-2.8,3.1-4.3
		c-0.2-0.3-0.6-0.6-0.9-0.7c-1-0.3-2.8,0.5-15.2,8c1.4-0.9,2.7-1.8,4-2.6c9.6-6.3,9.7-6.8,9-8.1c-0.2-0.3-0.5-0.6-0.9-0.7
		c-1-0.3-2.3,0.2-20,10.9c1.9-1.3,3.8-2.5,5.4-3.5c8.1-5.4,8.5-6,7.7-7.3c-0.2-0.3-0.5-0.6-0.9-0.7c-1-0.3-1.2-0.3-22.5,12.7
		c-3.2,1.9-6.7,4.1-10.1,6.1c0.8-0.6,1.5-1.1,2.3-1.6c3.9-2.8,7.6-5.5,10.4-7.6C44.3,8,45.3,7.3,44.5,6c-0.2-0.3-0.5-0.6-0.9-0.7
		c-0.8-0.2-0.8-0.2-8.4,4.4c-2.7,1.7-6.4,3.9-7.3,4.3c-0.2,0-0.3,0.1-0.5,0.2c-0.7,0.4-0.9,1.2-0.5,1.9c0.2,0.3,0.5,0.5,0.8,0.6
		c0,0,0,0,0,0C9.5,29.9,9.5,30,10.4,31.5c0.2,0.3,0.5,0.6,0.9,0.7c0.7,0.2,1.5,0,7.6-3.5c-0.5,0.3-1,0.7-1.5,1
		c-8.3,5.6-8.8,6.2-8,7.6c0.2,0.3,0.5,0.6,0.9,0.7c0.8,0.2,2.1-0.3,9.3-4.4c-0.4,0.2-0.7,0.5-1.1,0.7c-9.7,6.4-9.9,6.9-9.1,8.3
		c0.2,0.4,0.5,0.6,1,0.7c0.5,0.1,1.2,0,2.8-0.7c-0.2,0.2-0.5,0.3-0.7,0.4C3.8,48.5,1.1,50.2,2.1,52c0.2,0.3,0.6,0.6,0.9,0.7
		c0.9,0.2,2.7-0.5,9.5-4.4C2.1,55,2.4,55.5,3.1,56.7C3.3,57,3.6,57.3,4,57.4c0.6,0.2,2-0.3,5.1-1.9c-2.6,1.8-3.9,3-3.1,4.3
		c0.2,0.4,0.6,0.6,1,0.7c0.9,0.2,3-0.6,8.3-3.5c-3.7,2.3-6.4,4.1-8.2,5.4c-2.8,2-4.3,3.1-3.4,4.5c0.2,0.3,0.6,0.6,0.9,0.7
		c0.7,0.2,1.9-0.2,6.3-2.6c-10.7,6.9-10.4,7.4-9.7,8.6c0.2,0.4,0.6,0.6,1,0.7c1,0.3,3.6-0.8,9.8-4.2c-3.5,2.4-4.8,3.6-4,5
		c0.2,0.4,0.6,0.6,1,0.7c0.6,0.1,1.7-0.1,3.5-1c-8.9,5.7-8.6,6.3-8,7.4c0.2,0.4,0.6,0.6,1,0.7c0.5,0.1,1.3-0.1,2.8-0.7
		c-5.1,3.5-4.7,4.1-4.2,5c0.2,0.4,0.6,0.6,1,0.7c0.7,0.2,2.3-0.3,5.6-2c-3.2,2.3-4.3,3.3-3.6,4.7c0.2,0.3,0.6,0.6,0.9,0.7
		c1,0.3,3.8-1,12-5.7c-0.7,0.5-1.4,0.9-2,1.3c-4.5,3.1-5.7,4.2-4.8,5.6c0.2,0.4,0.5,0.6,0.9,0.7c1,0.3,3.8-1,12-5.6
		c-2,1.3-3.6,2.3-4.9,3.3c-3.5,2.5-5,3.7-4.1,5.1c0.2,0.3,0.6,0.6,0.9,0.7c1.2,0.3,4.9-1.5,19.5-10.3c-4.1,0-8.2,0-12.3,0
		c0-0.3-0.1-0.6-0.1-0.9c0-5.5,0.1-11.1,0.1-16.6c0-1.9,0-3.8,0-5.7c0-0.5,0.1-0.9,0.2-1.4c0.3-2.4,0.3-4.7,0.1-7.1
		c-0.2-1.7-0.1-3.5-0.1-5.2c0-3.5,0.1-7,0-10.6c0-2-0.1-4.1-0.2-6.1c0-0.5,0-0.9,0-1.4c0.8,0,1.4,0,2.1,0c0.1,0.6,0.2,1.2,0.3,1.8
		c0,0.3,0,0.5,0.1,0.8c0.1,1.3,0.3,1.9,2,1.8c1.2-0.1,2.3,0,3.5,0c0.2,0,0.4-0.1,0.6,0c1.5,0.6,3,0.1,4.5,0.2c0.8-0.1,40.2,1.1,41,1
		c0.2,0,0.5,0,0.7,0c0.9,0.3,1.8,0.5,2.6,1c0.8,0.5,1.8,0.7,2.6,1c0.1,0.1,0.3,0.1,0.4,0.2c0.4,0.2,4,1.4,3.8,1.9
		c1.5,0.9,2.9,1.9,4.3,2.9c1,0.8,2,1.7,2.9,2.6c0.2,0.2,0.3,0.7,0.5,1c1.2,0.5,2.4,1,2.4,2.6c1.2,0.8,2,1.8,2.8,2.9
		c0.3,0.4,0.3,1,0.3,1.4c0.1,2.8,0.1,5.6,0.1,8.4c0,3.4,0,6.8,0,10.2c0,0.6,0,1.2,0,1.9c-1.5,0.4-2.8,0.1-4.1,0.1
		c-1.3,0-2.7,0.1-4.1,0.2c-0.2,0.6-0.4,1.2-0.4,1.8c0,1.3-0.7,2.3-1.3,3.4c-0.7,1-1.3,2-2,3.2c0.4,0,0.5,0.1,0.6,0.1
		c1,0.1,2,0,3.1,0.2c1,0.2,2.1,0,3.1,0c2.6,0,5.3,0,7.9,0c0.3,0,0.6,0,1,0c0,0.7,0,1.4,0,2.2c-13.2,0-26.5,0-39.7,0
		c-38.2,23.3-38,23.6-37,25.4c0.2,0.3,0.6,0.6,0.9,0.7c1.2,0.3,4.2-1.1,22.9-12.3c-15,9.5-14.6,10.1-13.9,11.5
		c0.2,0.3,0.6,0.6,0.9,0.7c1.2,0.3,4.6-1.3,22.6-12.1c-21,13.2-20.7,13.6-19.9,15.1c0.2,0.3,0.6,0.6,0.9,0.7
		c1.1,0.3,3.4-0.8,18.5-9.8c-15,9.5-14.8,9.8-14,11.2c0.2,0.4,0.5,0.6,0.9,0.7c0.8,0.2,2.1-0.2,6.6-2.7c-5.6,3.9-5.3,4.4-4.8,5.4
		c0.2,0.3,0.5,0.6,0.9,0.7c0.1,0,0.2,0,0.3,0c1.5,0,5.5-2.2,27.3-15.4c-2.5,1.7-4.9,3.3-7,4.7c-9.4,6.4-9.5,6.9-8.8,8.3
		c0.2,0.3,0.5,0.6,0.9,0.7c1.1,0.3,2-0.1,20.9-11.7c0.9-0.5,1.8-1.1,2.7-1.6c-3.5,2.5-7,4.9-9.7,6.8c-5.3,3.9-6.1,4.5-5.3,5.8
		c0.2,0.3,0.5,0.6,0.9,0.7c0.9,0.2,1.1,0.3,14.7-8c4.1-2.5,9.1-5.6,10.2-6.1c0.2,0,0.4-0.1,0.5-0.2c0.7-0.4,0.9-1.2,0.5-1.9
		c-0.2-0.3-0.5-0.6-0.9-0.7c-0.4-0.1-0.6-0.2-2,0.6c2.3-1.6,4.4-3.2,6.3-4.5c5.5-4,6.4-4.8,5.6-6.1c-0.2-0.3-0.6-0.6-0.9-0.7
		c-0.8-0.2-2,0.2-7.9,3.7c3-2,5.7-3.8,8-5.3c7.3-5,7.8-5.5,7.1-6.8c-0.2-0.3-0.5-0.6-0.9-0.7c-0.7-0.2-1.7,0.1-6.3,2.7
		c10.5-6.7,10.2-7.1,9.5-8.3c-0.2-0.3-0.6-0.6-0.9-0.7c-0.7-0.2-1.8,0.1-5.8,2.4c9.9-6.4,9.6-7,8.9-8.1c-0.2-0.3-0.6-0.6-0.9-0.7
		c-1-0.3-3.2,0.6-15.1,7.7C124.8,65.2,124.6,64.8,123.8,63.4z"/>
	<path class="st1" d="M74.9,81.6c-0.7,0.4-1.4,0.9-2.1,1.3c0.4-0.1,0.7-0.3,1-0.5C74.2,82.1,74.6,81.9,74.9,81.6z"/>
	<path class="st1" d="M44.1,84.9c0.9,0,1-0.4,0.7-1.2c-0.1-0.4-0.3-0.7-0.5-1c-1.3,0.8-2.6,1.6-3.8,2.3
		C41.7,84.9,42.9,84.9,44.1,84.9z"/>
</g>
<g class="st0">
	<path class="st1" d="M40.8,52.3c-0.8,0.2-1,0.7-1.1,1.4c0,0.8,0.1,1.6,0.1,2.4c0.9,0.3,1.5,1.1,2.6,0.9c0.3-1.6,0.3-3.2,0-5
		C41.8,52,41.3,52.2,40.8,52.3z"/>
	<path class="st1" d="M45.5,81.1c0.1-1.3,0.2-2.6,0.3-3.8c0-0.5,0.1-1,0.1-1.5c0-1.1-0.1-2.3,0-3.4c0-2,0.1-4.1,0.1-6.1
		c0-2.1-0.1-4.2-0.1-6.3c0-1.2,0.1-2.4,0.1-3.6c0-0.6-0.1-1.2,0-1.8c0.1-0.6,0.1-1.2-0.1-1.8c-0.1-0.3-0.2-0.7-0.1-1
		c0.3-1.3,0-2.6,0.1-3.8c0-0.5,0-1,0-1.5c0-0.8,0-1.5,0-2.3c-6.5-0.6-12.9,0.1-19.5,0.2c-0.1,1.2-0.2,2.3-0.3,3.4
		c-0.1,1.4,0,2.8-0.1,4.2c-0.2,1.9-0.2,3.9-0.2,5.8c0,1.3-0.1,2.6-0.1,3.9c0,0.8,0,1.6,0.1,2.4c0,0.6,0.1,1.1,0.1,1.7c0,1,0,2,0,3
		c0,1.5,0.1,3,0.1,4.5c0,0.9-0.2,1.8-0.1,2.7c0,1,0.2,2,0.2,3c0,0.9,0,1.9,0,2.8c0,1.3,0.4,1.6,1.7,1.4c0.5-0.1,1,0,1.6,0
		c0.7,0,1.3,0.2,2-0.1c0-0.3-0.1-0.7,0-0.9c0.6-0.9,0.5-1.8,0.5-2.7c-0.1-1.4,0.3-2.8-0.1-4.2c0.3-2.2,0.3-4.4-0.2-6.6
		c-0.1-0.7,0.4-1.3,1.1-1.3c1.1-0.1,2.2-0.3,3.3,0c0.6,0.1,1.2,0.2,1.8-0.4c0.7-0.8,2-0.7,2.6,0.3c0.5,0.8,0.6,1.8,0.5,2.7
		c-0.1,0.7-0.1,1.3-0.2,2c0,1.3,0,2.6,0,4c0,1.5,0,3,0,4.5c0,0.8,0.2,1.7,0.3,2.6c1,0,2,0,2.9,0c0.5-0.3,1.1-0.6,1.6-1
		C45.4,81.7,45.4,81.4,45.5,81.1z M27.3,58.8c0-0.8-0.2-1.5,0.2-2.2c0.1-0.2,0.1-0.5,0.1-0.8c0-0.8,0.1-1.5,0.4-2.2
		c0.1-0.2,0.1-0.5,0.1-0.8c0-0.4-0.1-0.9-0.1-1.3c0-0.5,0.2-1,0.3-1.6c2.2,0,4.4,0,6.8,0c0.2,3,0,5.9,0.1,8.9
		C32.6,58.8,30,58.8,27.3,58.8z M43.9,58.9c-0.8-0.2-1.7-0.1-2.6-0.1c-0.9,0-1.7,0-2.7,0c0-3,0-5.9,0-9c2.2,0,4.3,0,6.5,0
		c-0.5,2.8,0,5.6,0.1,8.6C45,58.9,44.6,59.1,43.9,58.9z"/>
	<path class="st1" d="M33.2,52c-0.7,0.2-1.3,0.4-2.2,0.6c-0.5,0.7-0.4,1.6-0.4,2.5c0,0.9,0.4,1.2,1.3,1.3c1.1,0.1,1.5-0.1,1.7-1.2
		c0.1-0.5,0.2-1,0.2-1.4C34,53,33.8,52.4,33.2,52z"/>
	<path class="st1" d="M68.6,47.2c0.9,0,1.7-0.3,2.4-0.9c0.6-0.5,0.4-1.2,0.4-2c-1.3-0.2-2.3,0.4-3.3,0.9c-0.5,0.2-0.4,0.8-0.3,1.2
		C67.9,46.9,68.1,47.2,68.6,47.2z"/>
	<path class="st1" d="M70.6,56.9c-0.6,0-1.2,0.1-1.7,0.2c-0.1,0.7-0.2,1.3-0.3,2.1c0.9,0,1.7,0,2.5,0c0.5,0,0.7-0.3,0.8-0.8
		C72.1,57.2,71.9,56.9,70.6,56.9z"/>
	<path class="st1" d="M53,83.3c2-0.1,4-0.2,5.9-0.2c0.1-2,0.4-3.9,0.4-5.9c0-1.2,0-2.4,0-3.6c-4.1,2.5-7.8,4.7-11.1,6.7
		c0,0.9-0.1,1.8,0.6,2.7C48.3,82.9,48,83,47.7,83c0,0.1,0,0.2,0,0.2c0.3,0,0.7,0.1,1,0.1c1-0.1,2-0.2,3-0.3c0,0.3,0,0.5,0,0.7
		c0.5,0,0.9,0,1.3-0.1c0,0,0.1-0.2,0.1-0.3C53.1,83.4,53,83.3,53,83.3C53,83.3,53,83.2,53,83.3z"/>
	<path class="st1" d="M68.5,35.2c0.8,0,1.7,0,2.6,0c0.4-0.9,0.2-1.9-0.5-2.5c-0.6-0.6-2.7-0.4-3.1,0.4c-0.2,0.4-0.1,1.1,0,1.6
		C67.6,35.3,68.1,35.2,68.5,35.2z"/>
	<path class="st1" d="M47.5,74.4c0,0.1-0.1,0.1-0.1,0.2c0.1,0,0.2,0.1,0.2,0.1c0,0,0.1-0.1,0.1-0.1C47.6,74.5,47.5,74.5,47.5,74.4z"
		/>
	<path class="st1" d="M37.8,70.8c-0.3-0.7-0.6-0.9-1.3-0.6c-0.5,0.2-1.1,0.5-1.7,0.7c-0.4,0.1-0.6,0.3-0.6,0.7
		c-0.1,2.6-0.2,5.3-0.2,7.9c0,1.2,0.3,2.4,0.4,3.7c0.8,0,1.6,0,2.5,0c0.2,0,0.5-0.2,0.5-0.3c0.2-0.7,0.6-1.3,0.3-2.1
		c-0.1-0.3-0.2-0.7-0.2-1.1c0.1-1.7,0.3-3.5,0.3-5.2C38.2,73.2,38.3,72,37.8,70.8z"/>
	<path class="st1" d="M95.2,82.7c0.9,0.3,1.9,0.5,2.7-0.1c0.9-0.6,1-1.5,0.9-2.5c-0.1-0.5-0.1-1-0.1-1.5c0-6.4-0.1-12.8-0.1-19.2
		c0-3.6,0-7.3,0-10.9c0-1.5,0-3-0.1-4.5c0-0.9-0.2-1.1-1-1.2c-1-0.1-1.9-0.4-2.9,0c-0.1,0-0.3,0-0.4,0c-0.9-0.3-1.8,0-2.7-0.4
		c-0.4-0.2-1,0-1.6,0c-0.6,0-1.1,0.2-1.7,0.2c-2.6-0.2-5.1,0.4-7.7,0.5c-1.3,0.1-1.8,0.8-1.8,2.1c0,1.2,0.1,2.3,0.1,3.5
		c0,1.9-0.1,3.9,0,5.8c0.1,2.2,0,4.5,0.1,6.7c4.2-2.5,8.3-5,12.2-7.4c0-1.6,0-3.2,0-4.8c1.9,0,3.8,0,5.7,0c0.2,2.2,0.1,4.3,0.1,6.5
		c-2,0-3.9,0-5.8,0c0-0.5,0-1.1,0-1.6c-3.9,2.4-8,4.9-12.2,7.4c0,0.9,0.1,1.9,0.2,2.8c0.1,0.9,0.1,1.7,0.2,2.6
		c6.2-3.8,12.4-7.6,18.1-11c-5.6,3.4-11.8,7.2-18.1,11c0,0.9,0,1.9,0,2.9c0,1,0.1,2,0.1,3c1.8-1.1,3.7-2.2,5.5-3.3
		c-0.1-0.7-0.1-1.3-0.3-2c-0.1-0.8,0.3-1.4,0.6-2c0.3-0.6,0.8-0.4,1.3-0.4c1.5-0.1,3,0.1,4.5-0.3c0.4-0.1,0.8,0,1.2,0.2
		c0.6-0.3,1.1-0.7,1.7-1c-0.5,0.3-1.1,0.7-1.6,1c0.2,0.2,0.4,0.4,0.6,0.7c0.3,0.6,0.5,1.3,0.5,1.9c0.1,0.9,0,1.7,0,2.6
		c1.1-0.7,2.3-1.4,3.4-2.1c-1.1,0.7-2.3,1.4-3.4,2.1c0,0.3,0,0.7,0,1c0,0.6,0,1.2,0,1.8c0.1,1.2,0.1,2.5,0.2,3.7
		c0.1,1,0.2,2,0.5,2.9c0.2,0.7,0.5,1.4,0.4,2.2C94.7,82.1,94.8,82.6,95.2,82.7z M88,55.7c-2.4,0-4.8,0-7.1,0c0-2.2,0-4.3,0-6.5
		c2.4,0,4.7,0,7.1,0C88,51.4,88,53.5,88,55.7z"/>
	<path class="st1" d="M87.7,77.8c0,1.7,0.1,3.4,0.6,5.1c1.2,0,2.3,0,3.5,0c0-0.2,0.1-0.4,0.1-0.5c-0.1-2.1-0.1-4.2-0.2-6.3
		c-0.1-1.5-0.3-2.9-0.5-4.4c-1.2,0.7-2.3,1.4-3.5,2.1C87.7,75.1,87.7,76.5,87.7,77.8z"/>
	<path class="st1" d="M39.6,85.4c-4.8,0-9.6,0-14.4,0c-0.5,0-1-0.1-1.5-0.1c-0.1-0.5-0.2-0.9-0.2-1.4c0-7.4,0-14.8,0-22.2
		c0-2.7,0-5.4,0-8.2c0-3.4,0-6.8,0-10.2c0-1.3,0.5-1.9,1.8-1.9c3.3,0,6.6,0,9.9,0c2.8,0,5.7,0,8.5-0.1c1.5,0,2.1-0.7,2-2.2
		c-0.1-1.1-0.1-2.3-0.1-3.4c0-3.8,0-7.6,0-11.4c0-0.2,0-0.3,0-0.5c0-1.3,0-1.3,1.4-1.3c1.1,0,2.3,0,3.4,0c3.1,0,6.1,0,9.2,0
		c5.6,0,11.3,0,16.9,0c0.2,0,0.3,0,0.5,0c1.4-0.2,1.7,0.3,2,1.6c0.1,0.5,0.1,1.1,0.1,1.7c0,2.7-0.1,5.4-0.1,8.1c0,1.5,0,3,0.1,4.5
		c0,1.3,0.5,1.8,1.8,1.8c1.9,0,3.9,0,5.8,0c4.4,0,8.7,0,13.1,0c0.1,0,0.1,0,0.2,0c17.2-10.6,16.9-11.1,16.1-12.5
		c-0.2-0.3-0.6-0.6-0.9-0.7c-1-0.3-3.7,0.9-15.6,7.9c7.9-5.1,7.5-5.7,6.9-6.8c-0.2-0.4-0.6-0.6-1-0.7c-0.6-0.1-1.7,0.2-4,1.2
		c5.9-3.9,5.6-4.5,5-5.4c-0.2-0.4-0.5-0.6-0.9-0.7c-0.8-0.2-2.5,0.4-7.1,3c4.1-2.9,5.3-4,4.5-5.4c-0.2-0.4-0.6-0.6-1-0.7
		c-0.9-0.2-2.9,0.5-7.1,2.8c7.9-5.2,7.6-5.7,7-6.8c-0.2-0.3-0.6-0.6-0.9-0.7c-0.8-0.2-2.6,0.4-10.6,5.1c10.7-6.8,10.4-7.4,9.7-8.5
		c-0.2-0.4-0.6-0.6-1-0.7c-1.3-0.3-5.4,1.6-17.6,8.7c1.2-0.8,2.2-1.5,3.1-2.1c3.2-2.3,4.6-3.5,3.8-4.9c-0.2-0.4-0.5-0.6-1-0.7
		c-0.6-0.1-1.7,0.1-3.9,1.3c0.5-0.3,0.9-0.6,1.3-0.9c2.5-1.7,4.2-2.9,3.3-4.4c-0.2-0.3-0.6-0.6-0.9-0.7c-0.9-0.2-2.8,0.5-11.7,5.7
		C83,7.5,82.7,6.9,82,5.9c-0.2-0.3-0.6-0.6-0.9-0.7C80,4.9,77.5,6,62.3,15.1c2.7-1.8,4.8-3.2,6.3-4.2c2.3-1.6,3.9-2.8,3.1-4.3
		c-0.2-0.3-0.6-0.6-0.9-0.7c-1-0.3-2.8,0.5-15.2,8c1.4-0.9,2.7-1.8,4-2.6c9.6-6.3,9.7-6.8,9-8.1c-0.2-0.3-0.5-0.6-0.9-0.7
		c-1-0.3-2.3,0.2-20,10.9c1.9-1.3,3.8-2.5,5.4-3.5c8.1-5.4,8.5-6,7.7-7.3c-0.2-0.3-0.5-0.6-0.9-0.7c-1-0.3-1.2-0.3-22.5,12.7
		c-3.2,1.9-6.7,4.1-10.1,6.1c0.8-0.6,1.5-1.1,2.3-1.6c3.9-2.8,7.6-5.5,10.4-7.6C44.3,8,45.3,7.3,44.5,6c-0.2-0.3-0.5-0.6-0.9-0.7
		c-0.8-0.2-0.8-0.2-8.4,4.4c-2.7,1.7-6.4,3.9-7.3,4.3c-0.2,0-0.3,0.1-0.5,0.2c-0.7,0.4-0.9,1.2-0.5,1.9c0.2,0.3,0.5,0.5,0.8,0.6
		c0,0,0,0,0,0C9.5,29.9,9.5,30,10.4,31.5c0.2,0.3,0.5,0.6,0.9,0.7c0.7,0.2,1.5,0,7.6-3.5c-0.5,0.3-1,0.7-1.5,1
		c-8.3,5.6-8.8,6.2-8,7.6c0.2,0.3,0.5,0.6,0.9,0.7c0.8,0.2,2.1-0.3,9.3-4.4c-0.4,0.2-0.7,0.5-1.1,0.7c-9.7,6.4-9.9,6.9-9.1,8.3
		c0.2,0.4,0.5,0.6,1,0.7c0.5,0.1,1.2,0,2.8-0.7c-0.2,0.2-0.5,0.3-0.7,0.4C3.8,48.5,1.1,50.2,2.1,52c0.2,0.3,0.6,0.6,0.9,0.7
		c0.9,0.2,2.7-0.5,9.5-4.4C2.1,55,2.4,55.5,3.1,56.7C3.3,57,3.6,57.3,4,57.4c0.6,0.2,2-0.3,5.1-1.9c-2.6,1.8-3.9,3-3.1,4.3
		c0.2,0.4,0.6,0.6,1,0.7c0.9,0.2,3-0.6,8.3-3.5c-3.7,2.3-6.4,4.1-8.2,5.4c-2.8,2-4.3,3.1-3.4,4.5c0.2,0.3,0.6,0.6,0.9,0.7
		c0.7,0.2,1.9-0.2,6.3-2.6c-10.7,6.9-10.4,7.4-9.7,8.6c0.2,0.4,0.6,0.6,1,0.7c1,0.3,3.6-0.8,9.8-4.2c-3.5,2.4-4.8,3.6-4,5
		c0.2,0.4,0.6,0.6,1,0.7c0.6,0.1,1.7-0.1,3.5-1c-8.9,5.7-8.6,6.3-8,7.4c0.2,0.4,0.6,0.6,1,0.7c0.5,0.1,1.3-0.1,2.8-0.7
		c-5.1,3.5-4.7,4.1-4.2,5c0.2,0.4,0.6,0.6,1,0.7c0.7,0.2,2.3-0.3,5.6-2c-3.2,2.3-4.3,3.3-3.6,4.7c0.2,0.3,0.6,0.6,0.9,0.7
		c1,0.3,3.8-1,12-5.7c-0.7,0.5-1.4,0.9-2,1.3c-4.5,3.1-5.7,4.2-4.8,5.6c0.2,0.4,0.5,0.6,0.9,0.7c1,0.3,3.8-1,12-5.6
		c-2,1.3-3.6,2.3-4.9,3.3c-3.5,2.5-5,3.7-4.1,5.1c0.2,0.3,0.6,0.6,0.9,0.7C19.3,97.2,23.2,95.3,39.6,85.4z"/>
	<path class="st1" d="M86.9,53.7c-0.4-0.8-0.8-1.5-1.1-2.2c-0.4,0-0.7,0-1,0c-0.3,0-0.6,0-0.9,0c0,0.8,0,1.6,0,2.5
		C84.9,54.1,85.9,54.2,86.9,53.7z"/>
	<path class="st1" d="M85.2,75.4c-1.7,1.1-3.5,2.1-5.2,3.2c0,0.2,0,0.5,0.1,0.7c0.1,1.2,0.2,2.3-0.7,3.3c-0.1,0.1,0,0.2-0.1,0.4
		c1.8,0,3.4,0,5,0c0.9,0,1.2-0.4,1.2-1.1c-0.1-1.7-0.2-3.4-0.4-5.1c0-0.2,0-0.4,0-0.6C85.1,75.9,85.1,75.7,85.2,75.4z"/>
	<path class="st1" d="M64.3,83.1c0.9,0.1,1.2,0,1.3-1c0-0.2,0-0.5,0-0.8c-0.9,0.6-1.9,1.1-2.8,1.7C63.4,83.1,63.9,83.1,64.3,83.1z"
		/>
	<path class="st1" d="M64.7,84.4c0,0.1,0.1,0.2,0.2,0.3c0.1-0.1,0.2-0.2,0.2-0.2c0-0.1-0.1-0.1-0.2-0.2
		C64.8,84.2,64.7,84.3,64.7,84.4z"/>
	<path class="st1" d="M68.3,83.1c0.2,0.1,0.4,0.1,0.5,0.1c1,0,2,0,2.9,0c0.2,0,0.3,0,0.5,0c0.1-0.1,0.3-0.2,0.4-0.3
		c1.5-0.9,3-1.8,4.5-2.8c0-0.1,0-0.2,0-0.3c0-1.8-0.1-3.7-0.1-5.5c-2.9,1.7-5.7,3.5-8.4,5.1c-0.3,0.2-0.7,0.4-1,0.6
		c0.1,0.1,0.1,0.2,0.2,0.3c0.1,0.1,0.2,0.3,0.1,0.4C67.7,81.6,68.3,82.3,68.3,83.1z"/>
	<path class="st1" d="M72.4,83.2c0.8,0,1.7-0.1,2.5,0.2c0.3,0.1,0.7,0,1.1-0.1c0.4-0.1,0.8-0.3,1.3-0.5c0-0.4-0.1-0.7,0-1.1
		c0-0.5,0-1,0-1.6C75.6,81.2,74,82.2,72.4,83.2z"/>
	<path class="st1" d="M71.2,84.2c0.1,0,0.3-0.1,0.3-0.2c0,0,0-0.1-0.1-0.2c-0.1,0.1-0.3,0.2-0.4,0.2C71.1,84.1,71.2,84.2,71.2,84.2z
		"/>
	<path class="st1" d="M59.3,73.4c0-0.8-0.1-1.5-0.2-2.3c-0.2-1.3-0.1-2.7-0.2-4c1.6-0.4,3-0.8,4.6-0.5c0.9,0.2,1.9,0.2,2.8-0.1
		c0.3-0.1,0.7,0,1.1,0c0.5,0,0.8,0.3,0.9,0.7c0,0.3,0.1,0.5,0.1,0.8c2.9-1.7,5.7-3.5,8.6-5.3c0-0.2,0-0.3,0-0.5
		c-0.1-3.8-0.2-7.6-0.3-11.3c0-2.5,0-5.1,0-7.6c0-1.3,0-2.6-0.1-3.9c-0.1-1.9-0.2-3.7-0.2-5.6c0-2.1,0.1-4.2,0.1-6.2
		c0-0.4,0-0.8-0.1-1.2c-0.1-0.3-0.3-0.7-0.5-0.7c-1-0.1-1.9-0.9-2.9-0.3c-0.1,0.1-0.4,0-0.6,0c-1.6-0.3-3.2-0.5-4.8-0.4
		c-0.7,0.1-1.4,0.1-2.1,0.1c-2,0-4.1-0.1-6.1-0.1c-0.7,0-1.4,0.1-2,0.1c-2.7,0-5.5,0-8.2,0c-0.4,0-0.8,0.1-1.3,0.1
		c0,0.8-0.1,1.6-0.1,2.3c0,1.2,0.1,2.3,0.1,3.5c0,0.6-0.3,1.2-0.2,1.7c0.4,1.4-0.3,2.9,0.3,4.3c0,0.1,0,0.3-0.1,0.4
		c-0.1,0.8-0.2,1.5-0.2,2.3c0,0.9,0.1,1.8,0.1,2.7c0,1.8,0,3.6,0.1,5.4c0,2.3,0.1,4.7,0.1,7c0,1.8,0.1,3.6,0.2,5.3
		c0,0.2,0,0.5-0.1,0.6c-0.3,0.4-0.2,0.8-0.1,1.2c0.1,0.3,0.1,0.6,0.1,0.9c0,3.7,0.1,7.3,0.1,11c0,2.1,0,4.2,0,6.4c0,0,0,0.1,0,0.1
		C51.5,78.2,55.2,75.9,59.3,73.4z M65.7,49.4c-0.5-0.8-0.8-1.7-0.6-2.8c0.1-0.7,0.1-1.5,0-2.2C65,43,66,42,67.5,42
		c1.5,0,3-0.2,4.5-0.5c0.2,0,0.5,0,0.7,0c0.6,0,1,0.2,1.1,0.8c0.1,0.8,0.2,1.6,0.2,2.5c0,0.3,0,0.5-0.1,0.6c0,0.7,0,1.1,0,1.6
		c0.1,0.8,0.1,1.6-0.8,2c-0.1,0-0.1,0.1-0.1,0.2c-0.2,0.3-0.4,0.8-0.7,0.9c-0.4,0.1-1,0.1-1.4,0c-0.8-0.2-1.4-0.3-2.2,0
		c-0.6,0.2-1.4,0.1-2,0C66.3,50,65.9,49.7,65.7,49.4z M74.7,55.4c0,0.6,0,1.3-0.2,1.9c-0.2,0.7-0.2,1.3,0.1,1.9
		c0.1,0.3,0.3,0.5,0.3,0.8c0.3,1.3-0.4,2.3-1.7,2.3c-0.8,0-1.7,0.2-2.6-0.3c-0.3-0.1-0.7-0.1-1,0c-1.2,0.1-2.3,0.2-3.5,0.4
		c0-1.5-0.1-2.8,0-4.1c0.1-0.8,0.1-1.5-0.1-2.2c-0.1-0.4-0.1-0.9,0.1-1.3c0.4-1.2,0.9-1.4,2.2-1.1c0.9,0.2,1.8,0.5,2.7,0
		c1.2-0.6,2.1,0,3,0.6C74.5,54.5,74.7,55.1,74.7,55.4z M64.7,34.4c0.1-0.6,0-1.3,0.1-1.9c0.1-0.9,0.2-1.8,0.2-2.8
		c0.6,0.1,1,0.2,1.3,0.2c0.6,0.1,1.2,0.1,1.8,0.1c0.9,0,1.8-0.1,2.7-0.2c0.2,0,0.5-0.1,0.7-0.3c0.8-0.4,1.8-0.3,2.3,0.3
		c0.2,0.2,0.3,0.6,0.2,0.8c-0.7,1.6-0.1,3.3-0.4,4.9c-0.1,0.6-0.1,1.3-0.2,1.9c-0.2,1-0.7,1.4-1.7,1.1c-1.6-0.4-3.3-0.7-5-0.6
		c-0.7,0-1.3-0.2-1.6-1C64.8,36.2,64.6,35.3,64.7,34.4z M58.8,62.2c-0.6,0.1-1.2,0.1-1.8,0c-1,0-1.9,0-2.8,0.4
		c-1.6,0.8-3.4-0.3-3.2-2.2c0.1-1.3,0.1-2.6,0.2-4c0-0.4,0.1-0.8,0-1.1c-0.1-0.6,0.1-1.1,0.4-1.6c0.3-0.4,0.7-0.5,1.2-0.5
		c0.6,0,1.3,0.1,1.9,0.1c1,0,1.9-0.4,2.9,0.2c0.2,0.1,0.6-0.1,0.9-0.1c1.2-0.1,2.2,0.5,2.2,1.8c0,0.4,0,0.8-0.2,1.1
		c-0.3,0.9-0.2,1.8,0.1,2.7c0,0,0,0.1,0.1,0.1C61.1,61,60.6,61.9,58.8,62.2z M60.7,45.4c0,0.7,0.2,1.3,0.3,2c0,0.2,0.1,0.4,0.1,0.5
		c0.2,1.4-0.3,2.1-1.7,2.4c-0.2,0-0.5-0.1-0.7-0.1c-0.7-0.1-1.4-0.3-2.1-0.3c-1.1,0.1-2.2,0-3.3,0.6c-0.8,0.4-2.1-0.7-2.3-1.5
		c0-0.1,0-0.2,0-0.3c0-1,0.1-2.1,0.1-3.1c0-0.9,0.5-1.5,1-2.4c2.8-0.1,5.7-0.2,8.6-0.3C60.7,43.7,60.6,44.6,60.7,45.4z M51.2,31.8
		c0.3-0.6,0.8-0.5,1.4-0.5c2.1-0.1,4.3-0.3,6.4-0.4c0.2,0,0.4,0,0.8,0c-0.4,1.2-0.7,2.2-0.5,3.3c0.1,0.4,0.2,0.9,0.3,1.3
		c0.1,0.3,0.2,0.5,0.2,0.8c0.4,2.1,0,2.6-2.1,2.7c-1.8,0.1-3.6,0.1-5.3,0.2c-1,0-1.4-0.3-1.5-1.3c0-0.6,0-1.1,0-1.7
		c0-0.4,0-0.8-0.1-1.2c0-0.6-0.2-1.1-0.2-1.7C50.8,32.8,51,32.2,51.2,31.8z M56.8,66.3c-2.9,1.7-5.7,3.5-8.6,5.2
		C51.1,69.8,53.9,68,56.8,66.3z"/>
	<path class="st1" d="M79.7,75c0.1,1.2,0.2,2.3,0.3,3.5c1.7-1.1,3.5-2.1,5.2-3.2c0.1-1.9,0.1-3.9,0-5.8c-1.8,1.1-3.7,2.2-5.5,3.4
		C79.6,73.6,79.7,74.3,79.7,75z"/>
	<path class="st1" d="M87.7,72.8c0,0.3,0,0.6,0,0.9c1.2-0.7,2.3-1.4,3.5-2.1c0-0.1,0-0.1,0-0.2c-0.2-1.1-0.5-2.2-0.7-3.4
		c-1,0.1-1.8,0.3-2.7,0.4C87.7,69.9,87.7,71.4,87.7,72.8z"/>
	<path class="st1" d="M65.6,81c-0.1-1-0.3-2-0.2-2.9c0.1-1.9,0.2-3.8,0.3-5.7c0-0.8,0-1.7,0-2.5c0-0.1,0-0.2,0-0.3
		c-0.6,0.4-1.2,0.7-1.8,1.1c-0.6,0.4-1.2,0.7-1.7,1c0,0,0,0.1,0,0.1c0,0.4,0,0.8,0,1.2c-0.1,1.1-0.2,2.2-0.3,3.4c0,0.6,0,1.3,0,1.9
		c0.1,1.5,0.1,3.1,0.2,4.7c0.2,0,0.4,0,0.6,0c1-0.6,2-1.2,3-1.8C65.6,81.2,65.6,81.1,65.6,81z"/>
	<path class="st1" d="M65.6,69.6c-0.1-0.3-0.4-0.4-0.8-0.3c-0.5,0.1-1,0.1-1.6,0.2c-0.8,0.1-1.1,0.2-1.1,1.1c0,0.4,0,0.8,0,1.2
		c0.2-0.1,0.4-0.3,0.6-0.4C63.6,70.8,64.6,70.2,65.6,69.6z"/>
	<path class="st1" d="M45.3,82c-0.5,0.3-1.1,0.7-1.6,1c0.4,0,0.8,0,1.3,0C45,82.6,45.1,82.3,45.3,82z"/>
	<path class="st1" d="M55,85.4c-5.1,0-10.2,0-15.4,0C19,98,19.3,98.5,20.2,100c0.2,0.4,0.5,0.6,1,0.7c1,0.3,3.5-0.8,10.6-4.9
		c-14.5,9.1-14.1,9.8-13.4,11.1c0.2,0.4,0.5,0.6,0.9,0.7c1.7,0.4,8.3-3.3,39.5-22.3C57.5,85.4,56.3,85.4,55,85.4z"/>
	<path class="st1" d="M71.2,83.5C71.1,83.7,71,83.8,71,84c0,0,0,0,0,0c0.1-0.1,0.2-0.1,0.4-0.2C71.3,83.7,71.3,83.6,71.2,83.5z"/>
	<path class="st1" d="M59,85.4c-33.5,20.4-33.3,20.8-32.3,22.5c0.2,0.4,0.5,0.6,1,0.7c1.8,0.5,8.9-3.5,41.1-23.3
		C65.5,85.4,62.2,85.4,59,85.4z"/>
	<path class="st1" d="M123.8,63.4c-0.2-0.3-0.6-0.6-0.9-0.7c-1-0.3-3.3,0.7-15.9,8.2c1.6-1,3.2-2,4.6-2.9c3.9-2.5,6.8-4.4,8.8-5.8
		c2.8-2,4.2-3.1,3.4-4.5c-0.2-0.3-0.6-0.6-0.9-0.7c-1-0.3-3.6,0.9-15.4,7.8c14.5-9.2,14.1-9.9,13.4-11.2c-0.2-0.4-0.6-0.6-1-0.7
		c-1-0.2-3.5,0.7-9.8,4.3c9.6-6.3,9.2-6.9,8.5-8.1c-0.2-0.4-0.5-0.6-1-0.7c-0.9-0.2-3.1,0.6-8.5,3.7c12.6-8,12.2-8.7,11.5-9.9
		c-0.2-0.4-0.6-0.6-1-0.7c-1-0.2-3.5,0.8-8.9,3.7c6.5-4.4,6.1-5,5.5-6c-0.2-0.4-0.6-0.6-1-0.7c-0.7-0.2-2,0.2-4.7,1.6
		c8.7-5.7,8.8-6.7,8.1-8c-0.2-0.3-0.6-0.6-0.9-0.7c-1.1-0.3-4.1,1.1-17.9,9.2c0.3,0,0.5,0,0.8,0c0,0.2,0.1,0.4,0.1,0.6
		c0,1.3-0.1,2.7-0.2,4c0,0.8,0.1,1.6,0.1,2.4c0,3.1,0,6.1,0.1,9.2c0,2.2,0.2,4.4,0.3,6.5c0,0.7,0.1,1.3-0.3,2
		c-0.2,0.3,0.1,0.6,0.2,0.9c0.2,1.2,0.3,2.5,0.3,3.7c0.1,1.3,0.2,2.6,0.2,4c0,2.4,0,4.8,0,7.1c0,0.3-0.2,0.7-0.4,1.2
		c0.7,0.7,0.2,1.7,0.4,2.5c0,0.4-0.3,0.6-0.7,0.6c-0.5,0-0.9,0-1.4,0c-8.1,0.3-16.2,0.2-24.3,0.2c-2.1,0-4.1,0-6.2,0
		c-40.2,24.5-40.1,24.8-39,26.6c0.2,0.3,0.6,0.6,0.9,0.7c1.2,0.3,4.2-1.1,22.9-12.3c-15,9.5-14.6,10.1-13.9,11.5
		c0.2,0.3,0.6,0.6,0.9,0.7c1.2,0.3,4.6-1.3,22.6-12.1c-21,13.2-20.7,13.6-19.9,15.1c0.2,0.3,0.6,0.6,0.9,0.7
		c1.1,0.3,3.4-0.8,18.5-9.8c-15,9.5-14.8,9.8-14,11.2c0.2,0.4,0.5,0.6,0.9,0.7c0.8,0.2,2.1-0.2,6.6-2.7c-5.6,3.9-5.3,4.4-4.8,5.4
		c0.2,0.3,0.5,0.6,0.9,0.7c0.1,0,0.2,0,0.3,0c1.5,0,5.5-2.2,27.3-15.4c-2.5,1.7-4.9,3.3-7,4.7c-9.4,6.4-9.5,6.9-8.8,8.3
		c0.2,0.3,0.5,0.6,0.9,0.7c1.1,0.3,2-0.1,20.9-11.7c0.9-0.5,1.8-1.1,2.7-1.6c-3.5,2.5-7,4.9-9.7,6.8c-5.3,3.9-6.1,4.5-5.3,5.8
		c0.2,0.3,0.5,0.6,0.9,0.7c0.9,0.2,1.1,0.3,14.7-8c4.1-2.5,9.1-5.6,10.2-6.1c0.2,0,0.4-0.1,0.5-0.2c0.7-0.4,0.9-1.2,0.5-1.9
		c-0.2-0.3-0.5-0.6-0.9-0.7c-0.4-0.1-0.6-0.2-2,0.6c2.3-1.6,4.4-3.2,6.3-4.5c5.5-4,6.4-4.8,5.6-6.1c-0.2-0.3-0.6-0.6-0.9-0.7
		c-0.8-0.2-2,0.2-7.9,3.7c3-2,5.7-3.8,8-5.3c7.3-5,7.8-5.5,7.1-6.8c-0.2-0.3-0.5-0.6-0.9-0.7c-0.7-0.2-1.7,0.1-6.3,2.7
		c10.5-6.7,10.2-7.1,9.5-8.3c-0.2-0.3-0.6-0.6-0.9-0.7c-0.7-0.2-1.8,0.1-5.8,2.4c9.9-6.4,9.6-7,8.9-8.1c-0.2-0.3-0.6-0.6-0.9-0.7
		c-1-0.3-3.2,0.6-15.1,7.7C124.8,65.2,124.6,64.8,123.8,63.4z"/>
	<path class="st1" d="M87.3,41.5c-0.1,0-0.1,0.1-0.2,0.2c0.1,0.1,0.2,0.2,0.3,0.2c0.1-0.1,0.1-0.2,0.2-0.3
		C87.4,41.6,87.3,41.4,87.3,41.5z"/>
	<path class="st1" d="M68.4,69c0,0.4-0.2,0.9-0.2,1.3c-0.1,0.7-0.1,1.4-0.2,2c-0.1,1.3-0.3,2.5-0.2,3.8c0,0.8,0,1.5-0.2,2.2
		c-0.1,0.5-0.3,1.1,0,1.7c3.1-1.9,6.3-3.8,9.5-5.8c-0.1-2.4-0.2-4.8-0.1-7.2c0.1-1.4,0-2.9,0-4.3c-2.9,1.7-5.8,3.5-8.6,5.2
		C68.4,68.3,68.4,68.7,68.4,69z"/>
	<path class="st1" d="M94.9,53.1c0.3,0,0.5,0,1,0c0-0.6,0-1.1-0.1-1.6c-0.2-1.3-0.5-1.4-1.9-1c0,0.5,0,1.1,0.1,1.7
		c0,0.1,0,0.1,0,0.2c0.5-0.3,1-0.6,1.5-0.9c-0.5,0.3-1,0.6-1.5,0.9C94.1,52.8,94.4,53.1,94.9,53.1z"/>
	<path class="st1" d="M54.1,36.4c0.9,0.1,1.8,0.2,2.9,0.3c0.1-1.2-0.1-2.3-0.3-3.3c-0.5,0-1,0.1-1.2,0c-0.5-0.3-0.9-0.2-1.2,0.2
		c-0.2,0.3-0.6,0.5-0.9,0.7c0,0.4,0,0.9,0.1,1.3C53.5,36.1,53.7,36.4,54.1,36.4z"/>
	<path class="st1" d="M57.8,56.6c-1-0.7-2-0.4-3-0.3c-1,0.2-1.1,0.4-1.1,1.5c0,0.3,0,0.6,0,0.9c0,0.7,0.2,0.9,0.9,0.9
		c0.8,0,1.7,0,2.5-0.1c0.8-0.1,1-0.4,0.9-1.3C57.9,57.7,57.8,57.1,57.8,56.6z"/>
	<path class="st1" d="M58.1,45.4c-1.5,0.2-2.9,0.4-4.4,0.6c0,1,0.1,1.3,0.8,1.3c1,0.1,2.1,0.1,3.1,0c0.7,0,0.8-0.3,0.7-1
		C58.3,46,58.2,45.7,58.1,45.4z"/>
</g>
<g class="st0">
	<path class="st1" d="M95.7,52.3c-0.5,0-1,0-1.5,0c-4.5,2.8-9.5,5.9-14.6,8.9c2-0.1,4-0.6,6-0.4c0,0.8,0,1.5,0,2.3
		c3.8-2.3,7.6-4.6,11.1-6.7c0-1.3,0-2.6,0-4C96.4,52.4,96,52.3,95.7,52.3z"/>
	<path class="st1" d="M89.2,51c-0.4,0-0.7-0.1-1.1-0.1C88.6,51.5,88.6,51.5,89.2,51z"/>
	<path class="st1" d="M87.4,51.2c-0.4-0.1-0.7,0-0.9,0.4C87.2,51.7,87.2,51.7,87.4,51.2z"/>
	<path class="st1" d="M80.2,68.4c1,0,1.9,0,2.9,0c0.9,0,0.9-0.1,0.9-1c0-1-0.1-2.1-0.2-3.1c-1.4,0.8-2.8,1.7-4.2,2.6
		C79.7,67.4,79.8,67.9,80.2,68.4z"/>
	<path class="st1" d="M80.5,63.7c-0.4,0-0.8,0.1-0.8,0.5c0,0.9-0.2,1.7-0.1,2.6c1.4-0.9,2.8-1.7,4.2-2.6c0-0.1,0-0.2,0-0.3
		C82.7,63.6,81.6,63.7,80.5,63.7z"/>
	<path class="st1" d="M82.1,70.8c-0.9-0.1-1.9,0.1-2.8,0.1c-1,0.1-1.6-0.4-1.7-1.4c-0.1-2-0.3-4-0.2-6c0-0.4,0.1-0.8,0.3-1.2
		c-2,1.2-4.1,2.5-6.1,3.7c0,0.4-0.1,0.8-0.1,1.2c0,0.5-0.1,1-0.1,1.6c0,1.4-0.1,2.8-0.1,4.3c0,1.6,0,3.1,0.1,4.7
		c3.8-2.3,7.6-4.7,11.4-7C82.5,70.8,82.3,70.9,82.1,70.8z"/>
	<path class="st1" d="M39.1,85.7c-2.8,0-5.7,0-8.5,0c-0.5,0-1.1-0.1-1.6-0.3c-0.6-0.2-0.9-0.9-0.5-1.3c0.5-0.6,0.5-1.2,0.5-1.9
		c0-2,0-4,0-6c0-2.6,0-5.2-0.1-7.7c0-2.2-0.1-4.4-0.1-6.6c0-0.8-0.3-1.6-0.2-2.4c0.4-1.8,0-3.5,0.1-5.4c-1-0.3-2-0.6-2.9-0.5
		c-1.5,0.2-2.2-0.8-2.9-1.8c-0.2-0.3-0.2-0.8-0.1-1.2c0.2-0.7,0.5-1.4,0.7-2.2c0.5-2.3,1.7-4.3,2.1-6.6c0.3-1.6,1-3.1,1.6-4.6
		c0.2-0.6,0.4-1.2,0.3-1.9c-0.1-0.3,0.1-0.8,0.4-1c0.6-0.7,1.4-1.2,2.4-1.2c1,0,2,0,2.9,0c2.8,0.1,5.5-0.2,8.2-0.3
		c2.9-0.1,5.8-0.1,8.7-0.2c1.6,0,3.1-0.1,4.7-0.1c3.1-0.1,6.2-0.3,9.3-0.5c2.3-0.1,4.6-0.4,7-0.5c1.7-0.1,3.3-0.1,5-0.1
		c0.6,0,1.1-0.1,1.7-0.1c0.7-0.1,1.4-0.2,2.1-0.2c3.2,0,6.3,0,9.5,0c1.6,0,3.1,0.1,4.7,0.2c0.8,0,1.3,0.3,1.9,0.9
		c1.7,1.9,2.2,4.2,2.9,6.5c0.2,0.6,0.4,1.2,0.5,1.8c17.6-10.8,17.3-11.3,16.5-12.7c-0.2-0.3-0.6-0.6-0.9-0.7
		c-1-0.3-3.7,0.9-15.6,7.9c7.9-5.1,7.5-5.7,6.9-6.8c-0.2-0.4-0.6-0.6-1-0.7c-0.6-0.1-1.7,0.2-4,1.2c5.9-3.9,5.6-4.5,5-5.4
		c-0.2-0.4-0.5-0.6-0.9-0.7c-0.8-0.2-2.5,0.4-7.1,3c4.1-2.9,5.3-4,4.5-5.4c-0.2-0.4-0.6-0.6-1-0.7c-0.9-0.2-2.9,0.5-7.1,2.8
		c7.9-5.2,7.6-5.7,7-6.8c-0.2-0.3-0.6-0.6-0.9-0.7c-0.8-0.2-2.6,0.4-10.6,5.1c10.7-6.8,10.4-7.4,9.7-8.5c-0.2-0.4-0.6-0.6-1-0.7
		c-1.3-0.3-5.4,1.6-17.6,8.7c1.2-0.8,2.2-1.5,3.1-2.1c3.2-2.3,4.6-3.5,3.8-4.9c-0.2-0.4-0.5-0.6-1-0.7c-0.6-0.1-1.7,0.1-3.9,1.3
		c0.5-0.3,0.9-0.6,1.3-0.9c2.5-1.7,4.2-2.9,3.3-4.4c-0.2-0.3-0.6-0.6-0.9-0.7c-0.9-0.2-2.8,0.5-11.7,5.7C83,7.5,82.7,6.9,82,5.9
		c-0.2-0.3-0.6-0.6-0.9-0.7C80,4.9,77.5,6,62.3,15.1c2.7-1.8,4.8-3.2,6.3-4.2c2.3-1.6,3.9-2.8,3.1-4.3c-0.2-0.3-0.6-0.6-0.9-0.7
		c-1-0.3-2.8,0.5-15.2,8c1.4-0.9,2.7-1.8,4-2.6c9.6-6.3,9.7-6.8,9-8.1c-0.2-0.3-0.5-0.6-0.9-0.7c-1-0.3-2.3,0.2-20,10.9
		c1.9-1.3,3.8-2.5,5.4-3.5c8.1-5.4,8.5-6,7.7-7.3c-0.2-0.3-0.5-0.6-0.9-0.7c-1-0.3-1.2-0.3-22.5,12.7c-3.2,1.9-6.7,4.1-10.1,6.1
		c0.8-0.6,1.5-1.1,2.3-1.6c3.9-2.8,7.6-5.5,10.4-7.6C44.3,8,45.3,7.3,44.5,6c-0.2-0.3-0.5-0.6-0.9-0.7c-0.8-0.2-0.8-0.2-8.4,4.4
		c-2.7,1.7-6.4,3.9-7.3,4.3c-0.2,0-0.3,0.1-0.5,0.2c-0.7,0.4-0.9,1.2-0.5,1.9c0.2,0.3,0.5,0.5,0.8,0.6c0,0,0,0,0,0
		C9.5,29.9,9.5,30,10.4,31.5c0.2,0.3,0.5,0.6,0.9,0.7c0.7,0.2,1.5,0,7.6-3.5c-0.5,0.3-1,0.7-1.5,1c-8.3,5.6-8.8,6.2-8,7.6
		c0.2,0.3,0.5,0.6,0.9,0.7c0.8,0.2,2.1-0.3,9.3-4.4c-0.4,0.2-0.7,0.5-1.1,0.7c-9.7,6.4-9.9,6.9-9.1,8.3c0.2,0.4,0.5,0.6,1,0.7
		c0.5,0.1,1.2,0,2.8-0.7c-0.2,0.2-0.5,0.3-0.7,0.4C3.8,48.5,1.1,50.2,2.1,52c0.2,0.3,0.6,0.6,0.9,0.7c0.9,0.2,2.7-0.5,9.5-4.4
		C2.1,55,2.4,55.5,3.1,56.7C3.3,57,3.6,57.3,4,57.4c0.6,0.2,2-0.3,5.1-1.9c-2.6,1.8-3.9,3-3.1,4.3c0.2,0.4,0.6,0.6,1,0.7
		c0.9,0.2,3-0.6,8.3-3.5c-3.7,2.3-6.4,4.1-8.2,5.4c-2.8,2-4.3,3.1-3.4,4.5c0.2,0.3,0.6,0.6,0.9,0.7c0.7,0.2,1.9-0.2,6.3-2.6
		c-10.7,6.9-10.4,7.4-9.7,8.6c0.2,0.4,0.6,0.6,1,0.7c1,0.3,3.6-0.8,9.8-4.2c-3.5,2.4-4.8,3.6-4,5c0.2,0.4,0.6,0.6,1,0.7
		c0.6,0.1,1.7-0.1,3.5-1c-8.9,5.7-8.6,6.3-8,7.4c0.2,0.4,0.6,0.6,1,0.7c0.5,0.1,1.3-0.1,2.8-0.7c-5.1,3.5-4.7,4.1-4.2,5
		c0.2,0.4,0.6,0.6,1,0.7c0.7,0.2,2.3-0.3,5.6-2c-3.2,2.3-4.3,3.3-3.6,4.7c0.2,0.3,0.6,0.6,0.9,0.7c1,0.3,3.8-1,12-5.7
		c-0.7,0.5-1.4,0.9-2,1.3c-4.5,3.1-5.7,4.2-4.8,5.6c0.2,0.4,0.5,0.6,0.9,0.7c1,0.3,3.8-1,12-5.6c-2,1.3-3.6,2.3-4.9,3.3
		c-3.5,2.5-5,3.7-4.1,5.1c0.2,0.3,0.6,0.6,0.9,0.7C19.3,97.2,23.2,95.3,39.1,85.7z"/>
	<path class="st1" d="M69.2,79c0-0.4,0-0.9,0-1.3c0-0.4,0-0.8,0-1.1c0-0.9-0.1-1.8-0.1-2.7c0.1-2.1,0.2-4.3,0.3-6.4
		c-1.2,0.7-2.4,1.5-3.6,2.2c0.5-0.1,1,0,1.3,0.5c0.4,0.6,0.8,1.1,0.7,1.7c0.1,1.8-1.1,2.3-2.5,1.9c-0.6-0.2-0.8-0.5-0.8-1.1
		c0.1-0.7,0.2-1.4,0.3-2.1c0-0.2,0.1-0.4,0.3-0.5c-0.4,0.2-0.8,0.5-1.1,0.7c-2.2,1.4-4.4,2.6-6.4,3.9c0,1.4-0.1,2.8-0.1,4.3
		c0,0.3-0.1,0.7,0.1,1c0.4,0.8,0.3,1.6,0.3,2.5c0,0.4,0,0.9,0,1.4c1.2,0.1,2.2,0.1,3.2,0.1c0.1,0,0.3,0,0.4,0c1.9-1.2,3.9-2.4,6-3.7
		C67.9,79.9,68.6,79.5,69.2,79z"/>
	<path class="st1" d="M31.2,82.1c0,0.5,0.3,1,0.5,1.5c3.6,0,7.2,0,10.9,0c3.5-2.1,7.6-4.6,12.3-7.5c0,0,0-0.1,0-0.1
		c0.1-0.3,0.1-0.7,0.2-1c0.1-1.1,0.3-2.2,0.3-3.3c0.1-0.9,0-1.7,0.1-2.6c0-0.7,0-1.3,0-2c-0.8,0.5-1.7,1-2.5,1.5
		c0,0.6-0.1,1.1-0.2,1.7c-0.2,0.9-1.3,1.6-2.2,1.3c-0.7-0.3-1.4-0.3-2.1-0.3c-0.1,0.1-0.2,0.1-0.3,0.2c0.1-0.1,0.2-0.1,0.3-0.2
		c-0.5,0-1.1,0.1-1.6,0.1c-0.5,0-1.1,0-1.8,0c0-2.5,0-4.9,0-7.2c0-0.3,0-0.7,0-1c0-1,0.7-1.4,1.7-1.3c1,0.1,2,0.1,3,0.1
		c0.8,0,1.6-0.1,2.4-0.1c1.2,0,1.7,0.8,1.2,1.8c-0.1,0.3-0.2,0.7-0.3,1c0,1,0,2.1-0.1,3.1c0,0.3,0,0.5-0.1,0.8
		c0.8-0.5,1.7-1,2.5-1.5c0-1.3,0.1-2.6,0.1-3.9c0-0.4,0.3-0.9,0.6-1c0.7-0.3,1.3-0.7,2.1-0.5c1.6,0.3,3.3,0.5,4.9,0.3
		c0.8-0.1,1.6-0.1,2.4-0.1c1.9,0,3.8,0.1,5.6,0.1c0.1,0,0.3,0.1,0.5,0.1c0,0.3,0.1,0.5,0.1,0.8c-0.1,1-0.2,2-0.3,3
		c2-1.3,4.1-2.5,6.2-3.8c0.1-0.3,0.2-0.6,0.3-0.9c0.4,0,0.8,0,1.2,0c5.2-3.1,10.3-6.2,14.9-9c-1.4,0-2.7,0-4.1,0
		c-1,0-1.9,0.1-2.9,0.1c-1.1,0-2.2,0.1-3.3,0.1c-0.3,0-0.6,0-0.9,0.1c-3,0.6-6,0.7-9,0.8c-1.3,0.1-2.6,0.1-3.9,0.2
		c-0.5,0-0.8-0.2-1.2-0.6c-0.8-1-1.3-2.1-1.9-3.2c-0.9-1.7-1.6-3.6-3-5c-0.2-0.2-0.3-0.5-0.5-0.8c-1.5,1.5-2.9,3.1-3.7,5
		c-0.2,0.4-0.5,0.7-0.8,1c-0.5,0.6-1,1.3-1.3,2.1c-0.7,1.8-1.1,1.9-3.3,1.7c-0.4,0-0.8-0.2-1.2-0.2c-4.8,0-9.7,0-14.5,0
		c-2.2,0-4.4,0.1-6.6,0.1c-0.3,0-0.5,0.1-0.9,0.1c-0.1,2.8-0.2,5.5-0.3,8.3c-0.2,3.8,0,7.5,0,11.3c0,0.9-0.1,1.7,0,2.6
		C30.9,78.1,31,80.1,31.2,82.1z M33.9,62.6c1.5-0.1,2.9-0.2,4.4-0.3c1-0.1,1.9-0.1,2.9-0.2c0.9-0.1,1.2,0.1,1.2,1c0,2.4,0,4.9,0,7.3
		c0,1.3-0.3,1.5-1.6,1.5c-1.8-0.1-3.6-0.1-5.4,0.2c-0.4,0.1-0.8,0.1-1.1,0c-0.7-0.1-0.9-0.3-1-1c-0.1-1.1,0-2.3,0-3.4
		c0-0.9,0.1-1.7,0-2.6C33.1,64.1,33.3,63.3,33.9,62.6z"/>
	<path class="st1" d="M40.3,69.2c0.1-1.7,0-3.2-0.1-4.6c-1.6-0.1-3-0.2-4.5-0.4c-0.1,0.8-0.2,1.5-0.3,2.2c-0.2,1.1,0.2,2.1,0.9,3
		C37.7,69.3,39,69.3,40.3,69.2z"/>
	<path class="st1" d="M42.5,83.6c4.1,0,8.1,0,12.2,0c0-0.8,0.1-1.7,0.1-2.6c0-1.4-0.1-2.8-0.2-4.3c0-0.2,0-0.4,0.1-0.5
		C50.1,79,46.1,81.5,42.5,83.6z"/>
	<path class="st1" d="M69.1,82.6c0-0.3,0-0.6,0-0.8c0-0.9,0-1.7,0.1-2.6c-0.2,0.1-0.4,0.2-0.5,0.3c-2.6,1.6-5,3-7.3,4.4
		c2,0,4.1,0.1,6.1,0.1C68.8,84.1,68.9,84,69.1,82.6z"/>
	<path class="st1" d="M52.5,85.9c-2.3,0-4.7-0.1-7-0.2c-0.8,0-1.5,0.1-2.3,0.1c-0.5,0-1-0.1-1.6-0.1c-0.8,0-1.7,0-2.5,0
		C19,98.1,19.3,98.5,20.2,100c0.2,0.4,0.5,0.6,1,0.7c1,0.3,3.5-0.8,10.6-4.9c-14.5,9.1-14.1,9.8-13.4,11.1c0.2,0.4,0.5,0.6,0.9,0.7
		c1.7,0.4,8.2-3.2,38.6-21.7C56.1,86,54.3,85.9,52.5,85.9z"/>
	<path class="st1" d="M69.4,65.7c0.1-1.3-0.7-1.8-1.9-1.5c-0.4,0.1-0.9,0.2-1.3,0.2c-1,0-2.1-0.2-3.1-0.1c-1.1,0.1-2.3,0.1-3.4,0.1
		c-1.3,0-1.7,0.4-1.9,1.7c-0.1,0.4-0.1,0.8-0.1,1.1c-0.1,1.9-0.1,3.9-0.2,5.8c0,0.5,0,1-0.1,1.5c1.7-1,3.4-2.1,5.3-3.2
		c0.8-0.5,1.7-1,2.5-1.6c0,0,0.1,0,0.1-0.1c1.3-0.8,2.7-1.6,4-2.5C69.4,66.8,69.4,66.2,69.4,65.7z"/>
	<path class="st1" d="M85.6,69.1c1.5-0.9,3-1.8,4.5-2.7c0-1.8,0-3.7,0-5.6c0.3,0,0.6-0.1,0.8-0.1c1.2,0,2.3,0,3.5,0
		c0.4,0,0.9-0.1,1.3-0.2c0.6-0.2,0.9-0.7,0.9-1.3c0-0.9,0-1.8,0-2.7c-3.5,2.2-7.3,4.4-11.1,6.8C85.6,65.1,85.6,67.1,85.6,69.1z"/>
	<path class="st1" d="M67.5,86c-2.7,0-5.5,0-8.2-0.1c-0.4,0-0.8,0-1.2,0c-32.6,19.9-32.3,20.3-31.4,22c0.2,0.4,0.5,0.6,1,0.7
		c1.8,0.5,8.7-3.4,40-22.6C67.6,86,67.6,86,67.5,86z"/>
	<path class="st1" d="M123.8,63.4c-0.2-0.3-0.6-0.6-0.9-0.7c-1-0.3-3.3,0.7-15.9,8.2c1.6-1,3.2-2,4.6-2.9c3.9-2.5,6.8-4.4,8.8-5.8
		c2.8-2,4.2-3.1,3.4-4.5c-0.2-0.3-0.6-0.6-0.9-0.7c-1-0.3-3.6,0.9-15.4,7.8c14.5-9.2,14.1-9.9,13.4-11.2c-0.2-0.4-0.6-0.6-1-0.7
		c-1-0.2-3.5,0.7-9.8,4.3c9.6-6.3,9.2-6.9,8.5-8.1c-0.2-0.4-0.5-0.6-1-0.7c-0.9-0.2-3.1,0.6-8.5,3.7c12.6-8,12.2-8.7,11.5-9.9
		c-0.2-0.4-0.6-0.6-1-0.7c-1-0.2-3.5,0.8-8.9,3.7c6.5-4.4,6.1-5,5.5-6c-0.2-0.4-0.6-0.6-1-0.7c-0.7-0.2-2,0.2-4.7,1.6
		c8.7-5.7,8.8-6.7,8.1-8c-0.2-0.3-0.6-0.6-0.9-0.7c-1.1-0.3-4.1,1.1-18.4,9.5c0.6,2.1,1.3,4.2,2,6.3c0.5,1.3,1.2,2.6,1.8,3.9
		c0.4,0.9,0.1,1.5-0.9,1.6c-0.5,0-1,0-1.6,0c-0.8,0-1.5,0.1-2.4,0.1c0,1.9-0.1,3.6-0.1,5.3c0,2.6,0.1,5.2,0.1,7.8
		c0,2.1,0.2,4.1,0.2,6.2c0,3.4,0,6.8,0,10.1c0,0.3-0.1,0.5-0.1,0.8c-1.1-0.1-1.2-0.2-1.3-1.1c-0.1-2-0.1-4-0.1-6
		c0-1.8-0.1-3.7-0.2-5.6c-0.9,0-1.7-0.2-2.5-0.3C87,74.3,79,79.1,71.6,83.7c0,0.1,0,0.2,0,0.3c0,0,0.1,0.1,0.2,0.1
		c3.2,0,6.3,0,9.5-0.1c3.6,0,7.2,0,10.7-0.1c1.4,0,2.7-0.1,4.1-0.2c0.5,0,0.9-0.1,1.4,0c0.7,0.1,1,0.4,0.9,1.1c0,0.3-0.2,0.7-0.3,1
		c-0.1,0.3-0.3,0.5-0.7,0.5c-1.1,0-2.3-0.1-3.4-0.1c-0.4,0-0.8-0.1-1.1,0c-0.5,0.2-1,0.2-1.5,0.1c-1.1-0.1-2.3-0.2-3.4-0.2
		c-2.7,0-5.5,0-8.2,0c-2.3,0-4.5-0.1-6.8-0.1c-1.7,0-3.4,0.1-5.1,0.1c-39.1,23.9-39,24.2-37.9,26c0.2,0.3,0.6,0.6,0.9,0.7
		c1.2,0.3,4.2-1.1,22.9-12.3c-15,9.5-14.6,10.1-13.9,11.5c0.2,0.3,0.6,0.6,0.9,0.7c1.2,0.3,4.6-1.3,22.6-12.1
		c-21,13.2-20.7,13.6-19.9,15.1c0.2,0.3,0.6,0.6,0.9,0.7c1.1,0.3,3.4-0.8,18.5-9.8c-15,9.5-14.8,9.8-14,11.2
		c0.2,0.4,0.5,0.6,0.9,0.7c0.8,0.2,2.1-0.2,6.6-2.7c-5.6,3.9-5.3,4.4-4.8,5.4c0.2,0.3,0.5,0.6,0.9,0.7c0.1,0,0.2,0,0.3,0
		c1.5,0,5.5-2.2,27.3-15.4c-2.5,1.7-4.9,3.3-7,4.7c-9.4,6.4-9.5,6.9-8.8,8.3c0.2,0.3,0.5,0.6,0.9,0.7c1.1,0.3,2-0.1,20.9-11.7
		c0.9-0.5,1.8-1.1,2.7-1.6c-3.5,2.5-7,4.9-9.7,6.8c-5.3,3.9-6.1,4.5-5.3,5.8c0.2,0.3,0.5,0.6,0.9,0.7c0.9,0.2,1.1,0.3,14.7-8
		c4.1-2.5,9.1-5.6,10.2-6.1c0.2,0,0.4-0.1,0.5-0.2c0.7-0.4,0.9-1.2,0.5-1.9c-0.2-0.3-0.5-0.6-0.9-0.7c-0.4-0.1-0.6-0.2-2,0.6
		c2.3-1.6,4.4-3.2,6.3-4.5c5.5-4,6.4-4.8,5.6-6.1c-0.2-0.3-0.6-0.6-0.9-0.7c-0.8-0.2-2,0.2-7.9,3.7c3-2,5.7-3.8,8-5.3
		c7.3-5,7.8-5.5,7.1-6.8c-0.2-0.3-0.5-0.6-0.9-0.7c-0.7-0.2-1.7,0.1-6.3,2.7c10.5-6.7,10.2-7.1,9.5-8.3c-0.2-0.3-0.6-0.6-0.9-0.7
		c-0.7-0.2-1.8,0.1-5.8,2.4c9.9-6.4,9.6-7,8.9-8.1c-0.2-0.3-0.6-0.6-0.9-0.7c-1-0.3-3.2,0.6-15.1,7.7
		C124.8,65.2,124.6,64.8,123.8,63.4z"/>
	<path class="st1" d="M98.4,50.5c0.6-0.1,1.1-0.2,1.8-0.3c-0.3-0.9-0.4-1.8-0.7-2.6c-0.5-1.3-1.1-2.6-1.6-4
		c-0.7-2.1-1.2-4.2-1.9-6.3c-0.3-0.9-0.7-1.7-1.2-2.6c-1-1.7-1-1.7-2.9-1.5c-2.9,0.3-5.7,0.1-8.5-0.1c-1.2-0.1-2.4-0.1-3.6-0.2
		c-0.7,0-1.3-0.2-2-0.2c-1,0.1-2,0.4-3.1,0.6c-0.3,0.1-0.5,0.1-0.8,0.1c-1.8,0.1-3.6,0-5.3,0.2c-1.6,0.1-3.1,0.5-4.7,0.2
		c-0.2,0-0.5,0-0.7,0.1c-0.5,0.1-1,0.2-1.4,0.2c-1.5,0.1-3,0.1-4.5,0.2c-1.6,0.1-3.3,0.2-4.9,0.2c-2.7,0.1-5.4,0.1-8,0.2
		c-2.9,0-5.8,0.1-8.6,0.1c-1.4,0-2.7-0.1-4.1-0.1c-0.4,0-0.8,0-0.8,0.4c0,0.5-0.3,0.8-0.7,1.1c-0.2,0.2-0.4,0.5-0.5,0.8
		c-0.1,1.4-0.9,2.5-1.3,3.8c-1,3.2-2.3,6.3-3.5,9.5c-0.1,0.4-0.1,0.7,0.3,0.9c0.4,0.2,0.9,0.3,1.4,0.3c5.7,0,11.4,0,17.1,0
		c3.4,0,6.9,0,10.3,0c0.7,0,1.1-0.2,1.6-0.8c1.1-1.2,1.4-2.9,2.8-3.8c0.1-0.1,0.2-0.3,0.3-0.4c0.8-1.9,2.2-3.2,3.3-4.9
		c0.2-0.3,0.5-0.6,0.8-0.9c1.1-0.9,2.2-0.4,2.5,0.5c0.2,0.7,0.6,1.3,1,1.9c0.8,1.2,1.5,2.5,2.2,3.8c0.7,1.3,1.3,2.8,2.3,3.9
		c0.1,0.2,0.4,0.3,0.6,0.3c1.5,0.1,3,0.1,4.5,0.1c1.8,0,3.5-0.1,5.3-0.3c0.7,0,1.1,0.1,1.3,0.8c0,0,0.1,0,0.3,0.1
		c0-0.3,0.1-0.6,0.1-0.8c1.1-0.2,2.1-0.4,3.1-0.5c1.5-0.1,3,0,4.5-0.1c0.7,0,1.3-0.2,2-0.2c1,0,2,0,3,0c0.9,0,1.8,0.1,2.6-0.6
		C98,50.1,98.2,50.3,98.4,50.5z"/>
	<path class="st1" d="M50.5,65.4c-0.1-0.5-0.5-0.8-1-0.8c-0.8,0-1.6,0-2.6,0c-0.1,1.2-0.1,2.3-0.2,3.3c0,0.5,0.3,0.9,0.8,0.9
		c0.8,0,1.7,0,2.4,0C50.4,68,50.7,66.1,50.5,65.4z"/>
	<path class="st1" d="M92.1,67.8c1,0,2,0,2.9,0c0.9,0,1.7-0.7,1.7-1.3c0-1.2,0-2.3,0-3.6c-1.3,0-2.5,0-3.7,0c-0.5,0-0.9,0.4-0.9,0.9
		c0,0.5,0,1,0,1.5c0.7-0.4,1.4-0.8,2.1-1.2c-0.7,0.4-1.4,0.9-2.1,1.3C92.1,66,92.1,66.9,92.1,67.8z"/>
	<path class="st1" d="M94.2,69.8c-0.4,0-0.8,0-1.2,0.1c-0.6,0.2-1.2,0.3-1.8,0.4c-0.7,0-1.1-0.4-1.1-0.9c0-1,0-1.9,0-2.9
		c-1.5,0.9-3,1.8-4.5,2.8c0,0.4,0,0.8,0,1.2c-0.9-0.2-1.7,0.2-2.6,0.4c-3.9,2.4-7.9,4.8-11.7,7.1c0,0.6,0,1.2,0,1.8
		c0,0.6,0.1,1.1,0.2,1.7c0,0.7,0.1,1.5,0.1,2.3c0.4-0.2,0.7-0.4,1.1-0.7C79.7,78.7,87.2,74,94.2,69.8z"/>
	<path class="st1" d="M94.8,67.9c-0.3,0.1-0.6,0.2-0.9,0.4c0.3-0.1,0.7-0.1,1-0.2C94.8,68,94.8,68,94.8,67.9z"/>
	<path class="st1" d="M93.7,68.3c-0.1,0.3,0,0.6,0.4,0.8c0-0.2,0.1-0.4,0.1-0.5C94.1,68.5,93.9,68.4,93.7,68.3
		C93.7,68.3,93.7,68.3,93.7,68.3z"/>
</g>
<g>
	<path class="st2" d="M42.3,42.2c1,0,2,0,3,0c0.8,0,1.5,0,2.3,0c0-1.8,0-3.6,0-5.4c-1.6,1.6-3.1,3.1-4.7,4.7
		C42.7,41.7,42.5,41.9,42.3,42.2z"/>
	<path class="st2" d="M52.4,53.7c5.1,0,10.2,0,15.3,0c0.1,0,0.3,0,0.4,0c0-1.1,0-2.1,0-3.2c0-2.2,0-4.4,0-6.6c-5.9,0-11.8,0-17.8,0
		c0,3.2,0,6.5,0,9.7C51,53.6,51.8,53.7,52.4,53.7z"/>
	<path class="st2" d="M70.8,66.4c1-0.6,2-1.2,3-1.8c-0.1,0-0.2,0-0.3,0c-0.9,0-1.8,0-2.7,0C70.8,65.2,70.8,65.8,70.8,66.4z"/>
	<path class="st2" d="M75.3,41.7c-1.5-1.5-3-3-4.6-4.6c0,0.1,0,0.1,0,0.2c0,1.6,0,3.2,0,4.8c1.7,0,3.3,0,5,0
		C75.6,42,75.5,41.9,75.3,41.7z"/>
	<path class="st2" d="M70.8,62.7c1.6,0,3.3,0,4.9,0c-1.6-1.6-3.3-3.3-4.9-4.9C70.8,59.4,70.8,61,70.8,62.7z"/>
	<path class="st2" d="M52.6,33.2c5.1,0,10.2,0,15.4,0c0.1,0,0.1,0,0.2,0c0-0.1,0-0.3,0-0.4c-0.2-0.7-1-1.5-1.4-2.2
		c-1.3-2.1-2.7-4.2-4-6.3c-2.4,0-4.9,0-7.3,0c-1.5,2.3-2.9,4.6-4.4,6.9c-0.2,0.3-0.4,0.7-0.7,1.1c0,0,0,0,0,0
		c0.1,0.2,0.1,0.5,0.1,0.8C51.1,33.2,51.9,33.2,52.6,33.2z"/>
	<path class="st2" d="M68.1,55.8c-0.4,0-0.8,0-1.2,0c-5.5,0-11,0-16.6,0c0,2.3,0,4.6,0,6.9c5.9,0,11.8,0,17.8,0
		C68.1,60.4,68.1,58.1,68.1,55.8z"/>
	<path class="st2" d="M43,62.1c-0.2,0.2-0.4,0.4-0.5,0.5c0.8,0,1.7,0,2.5,0c0.9,0,1.8,0,2.7,0c0-1.7,0-3.5,0-5.2
		C46.1,59,44.5,60.6,43,62.1z"/>
	<path class="st2" d="M31.5,95c-0.6,0-0.5-0.3-0.2-0.6c0.5-0.4,1.3-0.5,1.9-0.5c2,0,4,0,6.1,0c0.6,0,1.3,0,1.9,0
		c0.1-0.4,0.2-0.9,0.3-1.3c0.9-3.3,1.7-6.5,2.6-9.8C19,98,19.2,98.4,20.2,100c0.2,0.4,0.5,0.6,1,0.7c1,0.3,3.5-0.8,10.6-4.9
		c-14.5,9.1-14.1,9.8-13.4,11.1c0.2,0.4,0.5,0.6,0.9,0.7c1.4,0.3,5.9-2,23.7-12.7C39.1,95,35.3,95,31.5,95z"/>
	<path class="st2" d="M68.1,42.2c0-2.4,0-4.7,0-7.1c-0.5,0-1.1,0-1.6,0c-5.4,0-10.8,0-16.2,0c0,2.4,0,4.7,0,7.1
		C56.2,42.2,62.2,42.2,68.1,42.2z"/>
	<path class="st2" d="M47.1,80.8c2.4-1.5,5-3.1,7.8-4.8c-1.8-1.6-3.5-3.3-5.3-4.9c-0.7,2.6-1.4,5.3-2.1,7.9
		C47.4,79.7,47.3,80.3,47.1,80.8z"/>
	<path class="st2" d="M44.6,90.7c4.4-4,8.8-8.1,13.1-12.1c-0.9-0.8-1.8-1.7-2.7-2.5c-2.8,1.7-5.5,3.3-7.9,4.8
		C46.3,84.1,45.4,87.4,44.6,90.7C44.6,90.7,44.6,90.7,44.6,90.7z"/>
	<path class="st2" d="M68.5,70.8c-0.4,0.4-0.8,0.7-1.2,1.1c-2.2,2-4.4,4.1-6.7,6.1c1.4,1.2,2.7,2.5,4.1,3.7c0.8-0.5,1.6-1,2.5-1.5
		c1.1-0.6,2.1-1.3,3.2-2c-0.1-0.3-0.2-0.7-0.3-1C69.6,75.1,69,73,68.5,70.8z"/>
	<path class="st2" d="M57.2,74.8c0.8,0.7,1.6,1.4,2.3,2.2c2.9-2.6,5.7-5.3,8.6-7.9c0-0.3,0-0.5,0-0.8c-1.4,0.9-2.9,1.7-4.3,2.6
		C61.5,72.2,59.2,73.5,57.2,74.8z"/>
	<path class="st2" d="M123.8,63.4c-0.2-0.3-0.6-0.6-0.9-0.7c-1-0.3-3.3,0.7-15.9,8.2c1.6-1,3.2-2,4.6-2.9c3.9-2.5,6.8-4.4,8.8-5.8
		c2.8-2,4.2-3.1,3.4-4.5c-0.2-0.3-0.6-0.6-0.9-0.7c-1-0.3-3.6,0.9-15.4,7.8c14.5-9.2,14.1-9.9,13.4-11.2c-0.2-0.4-0.6-0.6-1-0.7
		c-1-0.2-3.5,0.7-9.8,4.3c9.6-6.3,9.2-6.9,8.5-8.1c-0.2-0.4-0.5-0.6-1-0.7c-0.9-0.2-3.1,0.6-8.5,3.7c12.6-8,12.2-8.7,11.5-9.9
		c-0.2-0.4-0.6-0.6-1-0.7c-1-0.2-3.5,0.8-8.9,3.7c6.5-4.4,6.1-5,5.5-6c-0.2-0.4-0.6-0.6-1-0.7c-0.7-0.2-2,0.2-4.7,1.6
		c8.7-5.7,8.8-6.7,8.1-8c-0.2-0.3-0.6-0.6-0.9-0.7c-1.1-0.3-4.3,1.1-19.4,10.1c18.7-11.4,18.4-12,17.6-13.4
		c-0.2-0.3-0.6-0.6-0.9-0.7c-1-0.3-3.7,0.9-15.6,7.9c7.9-5.1,7.5-5.7,6.9-6.8c-0.2-0.4-0.6-0.6-1-0.7c-0.6-0.1-1.7,0.2-4,1.2
		c5.9-3.9,5.6-4.5,5-5.4c-0.2-0.4-0.5-0.6-0.9-0.7c-0.8-0.2-2.5,0.4-7.1,3c4.1-2.9,5.3-4,4.5-5.4c-0.2-0.4-0.6-0.6-1-0.7
		c-0.9-0.2-2.9,0.5-7.1,2.8c7.9-5.2,7.6-5.7,7-6.8c-0.2-0.3-0.6-0.6-0.9-0.7c-0.8-0.2-2.6,0.4-10.6,5.1c10.7-6.8,10.4-7.4,9.7-8.5
		c-0.2-0.4-0.6-0.6-1-0.7c-1.3-0.3-5.4,1.6-17.6,8.7c1.2-0.8,2.2-1.5,3.1-2.1c3.2-2.3,4.6-3.5,3.8-4.9c-0.2-0.4-0.5-0.6-1-0.7
		c-0.6-0.1-1.7,0.1-3.9,1.3c0.5-0.3,0.9-0.6,1.3-0.9c2.5-1.7,4.2-2.9,3.3-4.4c-0.2-0.3-0.6-0.6-0.9-0.7c-0.9-0.2-2.8,0.5-11.7,5.7
		C83,7.5,82.7,6.9,82,5.9c-0.2-0.3-0.6-0.6-0.9-0.7C80,4.9,77.5,6,62.3,15.1c2.7-1.8,4.8-3.2,6.3-4.2c2.3-1.6,3.9-2.8,3.1-4.3
		c-0.2-0.3-0.6-0.6-0.9-0.7c-1-0.3-2.8,0.5-15.2,8c1.4-0.9,2.7-1.8,4-2.6c9.6-6.3,9.7-6.8,9-8.1c-0.2-0.3-0.5-0.6-0.9-0.7
		c-1-0.3-2.3,0.2-20,10.9c1.9-1.3,3.8-2.5,5.4-3.5c8.1-5.4,8.5-6,7.7-7.3c-0.2-0.3-0.5-0.6-0.9-0.7c-1-0.3-1.2-0.3-22.5,12.7
		c-3.2,1.9-6.7,4.1-10.1,6.1c0.8-0.6,1.5-1.1,2.3-1.6c3.9-2.8,7.6-5.5,10.4-7.6C44.3,8,45.3,7.3,44.5,6c-0.2-0.3-0.5-0.6-0.9-0.7
		c-0.8-0.2-0.8-0.2-8.4,4.4c-2.7,1.7-6.4,3.9-7.3,4.3c-0.2,0-0.3,0.1-0.5,0.2c-0.7,0.4-0.9,1.2-0.5,1.9c0.2,0.3,0.5,0.5,0.8,0.6
		c0,0,0,0,0,0C9.5,29.9,9.5,30,10.4,31.5c0.2,0.3,0.5,0.6,0.9,0.7c0.7,0.2,1.5,0,7.6-3.5c-0.5,0.3-1,0.7-1.5,1
		c-8.3,5.6-8.8,6.2-8,7.6c0.2,0.3,0.5,0.6,0.9,0.7c0.8,0.2,2.1-0.3,9.3-4.4c-0.4,0.2-0.7,0.5-1.1,0.7c-9.7,6.4-9.9,6.9-9.1,8.3
		c0.2,0.4,0.5,0.6,1,0.7c0.5,0.1,1.2,0,2.8-0.7c-0.2,0.2-0.5,0.3-0.7,0.4C3.8,48.5,1.1,50.2,2.1,52c0.2,0.3,0.6,0.6,0.9,0.7
		c0.9,0.2,2.7-0.5,9.5-4.4C2.1,55,2.4,55.5,3.1,56.7C3.3,57,3.6,57.3,4,57.4c0.6,0.2,2-0.3,5.1-1.9c-2.6,1.8-3.9,3-3.1,4.3
		c0.2,0.4,0.6,0.6,1,0.7c0.9,0.2,3-0.6,8.3-3.5c-3.7,2.3-6.4,4.1-8.2,5.4c-2.8,2-4.3,3.1-3.4,4.5c0.2,0.3,0.6,0.6,0.9,0.7
		c0.7,0.2,1.9-0.2,6.3-2.6c-10.7,6.9-10.4,7.4-9.7,8.6c0.2,0.4,0.6,0.6,1,0.7c1,0.3,3.6-0.8,9.8-4.2c-3.5,2.4-4.8,3.6-4,5
		c0.2,0.4,0.6,0.6,1,0.7c0.6,0.1,1.7-0.1,3.5-1c-8.9,5.7-8.6,6.3-8,7.4c0.2,0.4,0.6,0.6,1,0.7c0.5,0.1,1.3-0.1,2.8-0.7
		c-5.1,3.5-4.7,4.1-4.2,5c0.2,0.4,0.6,0.6,1,0.7c0.7,0.2,2.3-0.3,5.6-2c-3.2,2.3-4.3,3.3-3.6,4.7c0.2,0.3,0.6,0.6,0.9,0.7
		c1,0.3,3.8-1,12-5.7c-0.7,0.5-1.4,0.9-2,1.3c-4.5,3.1-5.7,4.2-4.8,5.6c0.2,0.4,0.5,0.6,0.9,0.7c1,0.3,3.8-1,12-5.6
		c-2,1.3-3.6,2.3-4.9,3.3c-3.5,2.5-5,3.7-4.1,5.1c0.2,0.3,0.6,0.6,0.9,0.7c1.4,0.3,5.9-2,26.1-14.2c0.8-3.2,1.6-6.3,2.5-9.5
		c0.3-1.1,0.6-2.2,0.8-3.2c0.1-0.3,0.2-0.5,0.2-0.8c0,0,0-0.1,0-0.1c0.1-1.5,0-3,0-4.5c-2.1,0-4.1,0-6.2,0c0,0.7-0.1,1.4-0.1,2.1
		c0,0.7,0,1.4,0,2c0,1.3-2.7,1.7-2.7,0.2c0-1.2,0-2.4,0-3.5c0-0.8-0.2-1.7,0.4-2.4c1.6-1.9,3.6-3.6,5.3-5.3c0.8-0.8,1.6-1.6,2.5-2.5
		c0.3-0.3,0.6-0.6,0.9-0.9c0-3.5,0-7,0-10.4c-2.1,0-4.1,0-6.2,0c0,0.7-0.1,1.6-0.1,2.2c0,0.7,0,1.4,0,2c0,1.1-2.7,1.6-2.7,0.2
		c0-1.2,0-2.4,0-3.5c0-0.5-0.1-1.1,0-1.6c0-0.1,0-0.2,0.1-0.3c0-0.1,0.1-0.2,0.1-0.2c0-0.1,0.1-0.1,0.1-0.2c1.7-1.9,3.6-3.6,5.3-5.3
		c0.8-0.8,1.6-1.6,2.5-2.5c0.3-0.3,0.5-0.6,0.8-0.8c0-0.3,0-0.6,0-0.9c0.1-0.6,0.6-1.1,0.9-1.6c0.9-1.4,1.8-2.9,2.7-4.3
		c0.6-1,1.2-2.3,2-3.2c0.8-0.9,2.3-0.7,3.5-0.7c1.7,0,3.5,0,5.2,0c0.8,0,2.6-0.3,3.2,0.3c0.7,0.7,1.3,2,1.8,2.9
		c0.9,1.5,1.9,2.9,2.8,4.4c0.3,0.5,0.8,1.1,1,1.6c0.1,0.4,0,0.9,0,1.3c0.1,0.1,0.1,0.1,0.2,0.2c1.6,1.5,3.1,3.1,4.7,4.7
		c0.9,0.9,1.9,1.9,2.8,2.8c0.4,0.4,1,0.8,1.2,1.2c0.4,0.7,0.1,2,0.1,2.7c0,1,0,2,0,3c0,1.1-2.7,1.6-2.7,0.2c0-1.5-0.2-3.1,0-4.5
		c-1.3,0-2.6,0-4,0c-0.8,0-1.5,0-2.3,0c0,1.2,0,2.4,0,3.6c0,2.2,0,4.4,0,6.6c0,0,0,0,0.1,0c1.7,1.5,3.2,3.2,4.8,4.8
		c0.9,0.9,2,1.8,2.9,2.8c5.9-3.6,11.8-7.1,17-10.2c-5.1,3.2-11,6.7-16.9,10.3c0.3,0.3,0.6,0.6,0.8,0.9c0.6,0.7,0.3,2.1,0.3,3
		c0,0.3,0,0.6,0,1C85.9,63,92,59.2,97.6,55.9c-5.5,3.4-11.6,7.1-17.8,10.8c0,0.7,0,1.3,0,2c0,1.3-2.7,1.7-2.7,0.2c0-1.4,0-2.8,0-4.3
		c-1,0-2,0-3.1,0c-1.1,0.7-2.2,1.3-3.2,1.9c0,0.1,0,0.2,0,0.2c0,0.9,0,1.7,0.2,2.5c0.6,2.5,1.3,5,1.9,7.5
		c7.1-4.4,14.5-8.9,21.2-12.9c-6.7,4.1-14.1,8.7-21.2,13c0,0.2,0.1,0.3,0.1,0.5c0.4,1.5,0.8,3.1,1.2,4.6c7.5-4.6,15.5-9.6,22.8-13.9
		c-7.1,4.4-15.2,9.3-22.8,14c1,3.8,2,7.6,3,11.3c0,0.2-0.1,0.3-0.2,0.5c1.7,0,3.4,0,5.2,0c0.6,0,0.5,0.3,0.2,0.6
		c-0.5,0.4-1.3,0.5-1.9,0.5c-2,0-4,0-6.1,0c-7.1,0-14.2,0-21.3,0c-24.5,15-24.2,15.5-23.3,17c0.2,0.3,0.6,0.6,0.9,0.7
		c1.2,0.3,4.2-1.1,22.9-12.3c-15,9.5-14.6,10.1-13.9,11.5c0.2,0.3,0.6,0.6,0.9,0.7c1.2,0.3,4.6-1.3,22.6-12.1
		c-21,13.2-20.7,13.6-19.9,15.1c0.2,0.3,0.6,0.6,0.9,0.7c1.1,0.3,3.4-0.8,18.5-9.8c-15,9.5-14.8,9.8-14,11.2
		c0.2,0.4,0.5,0.6,0.9,0.7c0.8,0.2,2.1-0.2,6.6-2.7c-5.6,3.9-5.3,4.4-4.8,5.4c0.2,0.3,0.5,0.6,0.9,0.7c0.1,0,0.2,0,0.3,0
		c1.5,0,5.5-2.2,27.3-15.4c-2.5,1.7-4.9,3.3-7,4.7c-9.4,6.4-9.5,6.9-8.8,8.3c0.2,0.3,0.5,0.6,0.9,0.7c1.1,0.3,2-0.1,20.9-11.7
		c0.9-0.5,1.8-1.1,2.7-1.6c-3.5,2.5-7,4.9-9.7,6.8c-5.3,3.9-6.1,4.5-5.3,5.8c0.2,0.3,0.5,0.6,0.9,0.7c0.9,0.2,1.1,0.3,14.7-8
		c4.1-2.5,9.1-5.6,10.2-6.1c0.2,0,0.4-0.1,0.5-0.2c0.7-0.4,0.9-1.2,0.5-1.9c-0.2-0.3-0.5-0.6-0.9-0.7c-0.4-0.1-0.6-0.2-2,0.6
		c2.3-1.6,4.4-3.2,6.3-4.5c5.5-4,6.4-4.8,5.6-6.1c-0.2-0.3-0.6-0.6-0.9-0.7c-0.8-0.2-2,0.2-7.9,3.7c3-2,5.7-3.8,8-5.3
		c7.3-5,7.8-5.5,7.1-6.8c-0.2-0.3-0.5-0.6-0.9-0.7c-0.7-0.2-1.7,0.1-6.3,2.7c10.5-6.7,10.2-7.1,9.5-8.3c-0.2-0.3-0.6-0.6-0.9-0.7
		c-0.7-0.2-1.8,0.1-5.8,2.4c9.9-6.4,9.6-7,8.9-8.1c-0.2-0.3-0.6-0.6-0.9-0.7c-1-0.3-3.2,0.6-15.1,7.7
		C124.8,65.2,124.6,64.8,123.8,63.4z"/>
	<path class="st2" d="M48.1,95c-1.6,0-3.1,0-4.7,0c-17.8,11-17.5,11.6-16.7,13c0.2,0.4,0.5,0.6,1,0.7c1.5,0.4,6.4-2.2,25.4-13.7
		C51.4,95,49.7,95,48.1,95z"/>
	<path class="st2" d="M62.6,83.1c-1.2-1.1-2.5-2.3-3.7-3.4c-5.1,4.7-10.1,9.3-15.2,14c0,0-0.2,0.1-0.3,0.2c0.5,0,1,0,1.5,0
		C49.8,90.9,55.6,87.3,62.6,83.1z"/>
	<path class="st2" d="M64.8,81.9c1.3,1.2,2.6,2.4,3.9,3.6c1-0.6,2-1.3,3.1-1.9c-0.4-1.7-0.9-3.4-1.3-5.1c-0.6,0.4-1.2,0.7-1.8,1.1
		C67.3,80.3,66.1,81.1,64.8,81.9z"/>
	<path class="st2" d="M50.3,68.4c0.4,0.4,0.8,0.7,1.2,1.1c1.8-1.1,3.6-2.2,5.4-3.2c-1.8,1.1-3.6,2.2-5.4,3.2
		c0.7,0.6,1.4,1.3,2.1,1.9c1.2,1.1,2.4,2.2,3.6,3.3c1.8-1.1,3.6-2.2,5.6-3.4c1.8-1.1,3.6-2.2,5.4-3.3c0-0.1,0-0.2,0-0.2
		c0-1.1,0-2.1,0-3.2c-5.9,0-11.8,0-17.8,0c0,1.1,0,2.3,0,3.4C50.3,68.2,50.3,68.3,50.3,68.4z"/>
	<path class="st2" d="M66.5,86.7c-1.3-1.2-2.6-2.4-3.9-3.6c-7.1,4.3-12.8,7.8-17.4,10.7c3.2,0,6.4,0,9.7,0
		C58.3,91.8,62.2,89.4,66.5,86.7z"/>
	<path class="st2" d="M70.9,84.1c-0.7,0.5-1.5,0.9-2.2,1.3c1.6,1.5,3.1,2.9,4.7,4.4c-0.5-2.1-1.1-4.2-1.6-6.2
		C71.5,83.7,71.2,83.9,70.9,84.1z"/>
	<path class="st2" d="M74.2,93.8c-1-0.9-2-1.8-2.9-2.7c-1.6-1.5-3.2-2.9-4.8-4.4c-4.3,2.7-8.2,5-11.6,7.1c3.5,0,7.1,0,10.6,0
		C68.5,93.8,71.4,93.8,74.2,93.8z"/>
</g>
</svg>
