<?xml version="1.0" encoding="utf-8"?>
<!-- Generator: Adobe Illustrator 28.0.0, SVG Export Plug-In . SVG Version: 6.00 Build 0)  -->
<svg version="1.1" id="Layer_1" xmlns="http://www.w3.org/2000/svg" xmlns:xlink="http://www.w3.org/1999/xlink" x="0px" y="0px"
	 viewBox="0 0 16 16" style="enable-background:new 0 0 16 16;" xml:space="preserve">
<style type="text/css">
	.st0{fill:#194259;}
	.st1{fill:#FFFFFF;}
</style>
<g>
	<path class="st0" d="M8.1,12.7c-2.4,0-4.5-0.6-5.8-1.6c0,0-0.1,0-0.1-0.1h0L2.1,11c-0.6-0.5-1.2-1.1-1.5-1.9l0-0.1V8.3
		c0-1,0.5-1.9,1.4-2.6C2,5.6,2.1,5.6,2.2,5.5c0.1-0.2,0.2-0.3,0.2-0.3l0,0l0.1-0.1l0.5-0.3c0.2-0.1,0.3-0.1,0.4-0.2
		C3.7,4.6,3.8,4.5,4,4.4c0.2,0,0.3-0.1,0.5-0.1C4.7,4.2,5,4.1,5.3,4.1c0.1,0,0.2,0,0.2-0.1l0.1,0l0.1,0c0.7-0.1,1.5-0.1,2.2-0.1
		c0.7,0,1.5,0,2.2,0.2c0.1,0,0.3,0,0.4,0.1c0.5,0.1,0.9,0.2,1.3,0.4c0.2,0.1,0.5,0.2,0.9,0.4l0.5,0.2c0.2,0.1,0.4,0.2,0.5,0.3
		c0.1,0,0.2,0.1,0.2,0.1c0.1,0,0.1,0.1,0.2,0.1c0.9,0.7,1.4,1.6,1.4,2.6V9c0,0.1-0.1,0.3-0.1,0.3v0.1l-0.1,0.2
		c-0.5,1-1.5,1.7-2.7,2.2C11.3,12.4,9.7,12.7,8.1,12.7z M8.2,9.3C8.3,9.3,8.3,9.4,8.2,9.3c0.3,0.3,0.2,0.7,0.2,0.8
		c0,0.3,0,0.8-0.4,1c0.8,0,1.6-0.1,2.4-0.3h0l-0.1,0c-0.3-0.1-0.4-0.3-0.6-0.6l0-0.1c0,0,0-0.1,0-0.2c-0.1,0-0.3-0.1-0.5-0.1
		c-0.1,0-0.2,0-0.2-0.1c-0.1,0-0.2-0.1-0.3-0.1H8.6L8.5,9.5C8.4,9.4,8.3,9.3,8.2,9.3z M4.5,10.5C4.5,10.5,4.5,10.5,4.5,10.5
		C4.5,10.5,4.4,10.5,4.5,10.5c-0.1-0.1-0.1,0-0.1,0C4.4,10.5,4.4,10.5,4.5,10.5z M11.4,9.7L11.4,9.7c0.1,0.1,0.2,0.3,0.3,0.4
		c0.1,0,0.1,0,0.2,0c0.2,0,0.2,0,0.3-0.1c0.2-0.2,0.3-0.3,0.5-0.4c0,0-0.2-0.1-0.3-0.1c-0.1,0.2-0.3,0.3-0.5,0.3l-0.2,0
		C11.5,9.7,11.5,9.7,11.4,9.7C11.4,9.7,11.4,9.7,11.4,9.7L11.4,9.7z"/>
	<path class="st1" d="M7.9,4.3c0.7,0,1.4,0,2.2,0.2c0.1,0,0.2,0,0.4,0.1c0.4,0.1,0.9,0.2,1.3,0.4C12,5,12.2,5.1,12.5,5.3
		c0.2,0.1,0.4,0.2,0.5,0.3s0.4,0.2,0.4,0.3c0.2,0.1,0.3,0.2,0.4,0.3c0.7,0.5,1.2,1.3,1.2,2.2c0,0.1,0,0.1,0,0.2c0,0.1,0,0.1,0,0.2
		c0,0,0,0,0,0.1v0.1v0.1V9c0,0.1-0.1,0.2-0.1,0.3v0.1c-0.4,0.8-1.3,1.5-2.4,2c-1.3,0.5-2.8,0.9-4.5,0.9c-2.2,0-4.3-0.5-5.6-1.5
		c-0.1,0-0.1-0.1-0.2-0.1C1.7,10.2,1.2,9.5,1,8.9V8.8V8.7c0,0,0,0,0-0.1s0-0.1,0-0.2c0-0.1,0-0.1,0-0.2C1,7.5,1.4,6.7,2.2,6
		c0.1-0.1,0.3-0.2,0.4-0.3c-0.2-0.1,0-0.2,0.1-0.3C3,5.4,3.1,5.3,3.3,5.2C3.6,5.1,3.9,5,4.1,4.9c0.4-0.1,0.8-0.3,1.3-0.4
		c0.1,0,0.2,0,0.4-0.1C6.5,4.3,7.2,4.3,7.9,4.3 M7.2,5C7.2,5,7.2,5,7.2,5c0.2,0,0.3,0,0.4,0.1s0.1,0.2,0.1,0.4c0,1,0,2,0,3
		c0,0.1,0,0.2,0,0.2h0.1c0.1,0,0.3-0.1,0.4-0.1c0-0.5,0-1,0-1.5c0.2,0,0.4,0,0.4,0C8.8,7,9,7.1,9.1,7.3C9.2,7.5,9.3,7.7,9.3,8
		c0,0.3-0.1,0.5-0.2,0.6c0.1,0.1,0,0.1-0.1,0.1c0.2,0.1,0.3,0.2,0.4,0.2C9.7,8.7,9.9,8.5,9.9,8c0-0.3-0.1-0.5-0.2-0.7
		C9.5,7.1,9.3,6.9,9.2,6.9c0.2-0.1,0.3-0.2,0.4-0.3C9.7,6.5,9.7,6.3,9.7,6c0-0.4-0.1-0.6-0.3-0.8C9.3,5,9.2,5,9,5
		C8.6,4.9,8.3,4.9,7.9,4.9c-0.3,0-0.4,0-0.7,0C7.2,5,7.2,5,7.2,5 M5.2,5.3L5.2,5.3c0.2,0,0.3,0,0.4,0s0.1,0.1,0.1,0.2v0.1
		c0,0.1,0,0.1,0,0.2C5.4,6.4,5.2,7,5,7.7C5,7.8,4.9,8,4.9,8.2S4.8,8.5,4.8,8.6c0-0.1-0.1-0.3-0.1-0.4S4.7,7.9,4.7,7.7
		C4.4,7.1,4.3,6.6,4.1,6V5.9V5.9c0-0.1,0-0.2,0.1-0.2c-0.1-0.1,0-0.1,0.1-0.2h0.1V5.4C4,5.5,3.7,5.7,3.3,5.9c0.1,0,0.1,0,0.1,0
		c0.1,0,0.1,0.1,0.1,0.2c0.4,0.9,0.7,2,1,3.1c0.1,0,0.2,0,0.4,0C5.2,8,5.6,6.8,5.9,5.7C5.9,5.4,6,5.3,6,5.2c0.1,0,0.2-0.1,0.3-0.1
		h0.1c0-0.1,0-0.1,0-0.2C5.9,5,5.6,5.1,5.2,5.3L5.2,5.3 M10.8,5.3c0,0,0,0.1,0,0.2c0.2,0.1,0.3,0.1,0.4,0.2c0.1,0.1,0.1,0.2,0.1,0.4
		c0,0.8,0,1.7,0,2.5c0,0.2,0,0.3-0.1,0.3h0.1h0.1c0.1,0,0.2,0,0.3-0.1V8.6c0-0.8,0-1.6,0-2.4c0-0.2,0-0.3,0.1-0.3c0.1,0,0.2,0,0.3,0
		c0,0,0,0,0.1,0c0-0.1,0-0.1,0-0.2C11.7,5.6,11.3,5.4,10.8,5.3C10.8,5.3,10.8,5.3,10.8,5.3C10.8,5.3,10.8,5.3,10.8,5.3 M7.5,10.8
		c-0.1,0-0.3,0-0.4,0c-0.3,0-0.5,0-0.8,0.1C6,10.9,5.7,11,5.4,11c-0.1,0-0.3,0-0.4-0.1c-0.1,0-0.1-0.2,0-0.3
		c0.3-0.2-0.2-0.4-0.3-0.5c0-0.1,0-0.3,0.1-0.4c0.1-0.1,0.4-0.2,0.5-0.3c0.1,0,0.2-0.1,0.3-0.1C4.5,9.4,3.5,9.1,2.4,9
		c-0.4,0-0.6-0.1-1-0.1C1.6,9.3,2,9.7,2.3,10c0-0.1,0-0.3,0-0.4c0,0,0.1,0,0.1,0c0.1,0,0.1,0,0.2,0c0.1,0,0.1,0.1,0.1,0.1
		C2.8,9.8,2.9,9.9,3,9.9C3.1,10,3.1,10,3.2,10c0.1,0,0.2-0.1,0.4-0.1C3.9,9.8,4,9.8,4.3,9.8c0.1,0,0.2,0.2,0.1,0.2
		c-0.1,0.1-0.3,0.1-0.4,0.2c-0.5,0.4-0.3,0.2-0.3,0.4c0,0.1,0,0.1-0.1,0.1c1.2,0.5,2.7,0.8,4.2,0.8c1.1,0,2.1-0.2,3.1-0.4
		c0-0.1,0-0.1,0-0.2c0.1,0,0.1-0.1,0.2-0.1h0.1c0.1-0.2,0.2-0.3,0.3-0.3c0.4-0.2,0.7,0,1-0.4c0.3-0.3,0.5-0.4,0.9-0.4
		c0.1-0.1,0.2-0.3,0.3-0.3c0.1,0,0.1,0,0.2,0c0.2,0,0.2,0,0.2-0.1c-0.3,0-0.5,0-0.7-0.1c-0.4-0.1-1-0.5-1.5-0.5c0,0-0.1,0-0.1,0
		c0.1,0,0.2,0,0.2,0.1C12,9.1,12,9.3,11.8,9.3c-0.3-0.1-0.6-0.1-0.9-0.1c-0.1,0-0.2,0-0.4,0l-0.4,0.1c0.3,0.1,0.4,0.1,0.7,0.2
		c0.2,0,0.1,0.3-0.1,0.3c-0.4-0.1-0.9-0.2-1.4-0.4c-0.1,0-0.2-0.1-0.2-0.1H9.1C9,9.3,8.9,9.2,8.8,9.2C8.6,8.9,8.3,8.8,8.1,8.8
		c-0.1,0-0.3,0-0.4,0.1c0,0.1,0,0.1,0.1,0.2c0,0.4,0.2,0.5,0.3,0.6c0.1,0.1,0,0.3,0,0.4c0,0.3,0,0.5-0.3,0.6
		C7.7,10.7,7.6,10.8,7.5,10.8 M8.5,5.1c0.3,0,0.4,0.1,0.5,0.2c0.1,0.1,0.2,0.4,0.2,0.6c0,0.3-0.1,0.4-0.2,0.6C9,6.7,8.8,6.8,8.5,6.8
		c-0.1,0-0.2,0-0.4,0c0-0.5,0-1.1,0-1.6C8.3,5.1,8.4,5.1,8.5,5.1 M10.3,9.8c0,0,0.1,0,0.1,0.1c0.2,0.2,0.5,0.1,0.7,0.2
		c0.2,0.2,0.2,0.5,0,0.7c0,0-0.2,0-0.2-0.1c0-0.1,0-0.2-0.2-0.3c-0.1,0-0.2-0.1-0.3-0.1c-0.2-0.1-0.3-0.2-0.4-0.4
		C10.2,9.9,10.2,9.8,10.3,9.8 M7.9,3.4c-0.7,0-1.5,0-2.3,0.1l-0.2,0L5.3,3.6l0,0l-0.1,0C4.9,3.7,4.6,3.8,4.3,3.9C4.2,3.9,4,4,3.9,4
		l0,0l0,0C3.6,4.1,3.5,4.2,3.3,4.2C3.2,4.3,3.1,4.3,3,4.4L3,4.4l-0.1,0L2.4,4.7L2.2,4.8L2.1,4.9C2,5,1.9,5.1,1.8,5.2
		c-0.1,0-0.1,0.1-0.2,0.1c-1,0.8-1.6,1.9-1.6,2.9v0.2v0.2v0.1v0.1v0.1v0.2l0.1,0.2c0.3,0.6,0.7,1.4,1.7,2.1L2,11.5h0
		c1.4,1,3.6,1.6,6,1.6c1.7,0,3.4-0.3,4.9-1c1.3-0.5,2.3-1.3,2.9-2.4l0.1-0.2V9.4C16,9.3,16,9.2,16,9V8.9V8.8V8.7V8.6V8.5V8.3
		c0-1.1-0.6-2.2-1.5-2.9l-0.1,0l-0.1,0c-0.1,0-0.1-0.1-0.1-0.1c-0.1,0-0.1-0.1-0.2-0.1c-0.2-0.1-0.4-0.2-0.6-0.3l-0.5-0.2
		c-0.3-0.2-0.7-0.3-0.9-0.4c-0.4-0.2-0.9-0.3-1.3-0.4c-0.2-0.1-0.4-0.1-0.5-0.1C9.4,3.4,8.6,3.4,7.9,3.4L7.9,3.4z M8.9,10.6
		c0-0.2,0-0.3,0-0.4c0.1,0,0.2,0.1,0.2,0.1c0.1,0,0.1,0,0.2,0.1l0.1,0.1c0,0,0,0.1,0.1,0.1C9.2,10.5,9,10.6,8.9,10.6L8.9,10.6z"/>
</g>
</svg>
