<?xml version="1.0" encoding="utf-8"?>
<!-- Generator: Adobe Illustrator 28.0.0, SVG Export Plug-In . SVG Version: 6.00 Build 0)  -->
<svg version="1.1" id="Layer_1" xmlns="http://www.w3.org/2000/svg" xmlns:xlink="http://www.w3.org/1999/xlink" x="0px" y="0px"
	 viewBox="0 0 16 16" style="enable-background:new 0 0 16 16;" xml:space="preserve">
<style type="text/css">
	.st0{fill:#194259;}
</style>
<path class="st0" d="M8.7,6.7c-0.1,0-0.2,0-0.4,0c0-0.6,0-1.2,0-1.8c0.1,0,0.2,0,0.4,0C9,4.9,9.2,5,9.3,5.1c0.1,0.1,0.2,0.4,0.2,0.7
	c0,0.3-0.1,0.5-0.2,0.7C9.2,6.6,9,6.7,8.7,6.7z M10.8,10.2c-0.1-0.1-0.3-0.1-0.3,0.1c0,0,0,0,0,0c0,0,0,0,0,0
	c0.1,0.2,0.2,0.3,0.4,0.4c0.1,0,0.2,0.1,0.3,0.1c0.2,0.1,0.2,0.2,0.2,0.3c0,0.1,0.2,0.1,0.2,0.1c0.2-0.2,0.2-0.6,0-0.8
	C11.4,10.3,11,10.4,10.8,10.2z M16,8.4c0,0.1,0,0.1,0,0.2c0,0,0,0,0,0c0,0.1,0,0.1,0,0.2c0,0,0,0,0,0.1c0,0,0,0.1,0,0.1
	c0,0,0,0.1,0,0.1c0,0,0,0.1,0,0.1c0,0.1-0.1,0.2-0.1,0.3c0,0,0,0.1,0,0.1c-0.5,0.9-1.4,1.7-2.7,2.2c0,0,0,0,0,0c-1.4,0.6-3.1,1-5,1
	c-2.5,0-4.8-0.6-6.2-1.7c0,0,0,0,0,0c-0.1,0-0.1-0.1-0.2-0.1c0,0,0,0,0,0c-0.7-0.5-1.2-1.2-1.5-1.9c0,0,0,0,0,0c0,0,0-0.1,0-0.1
	c0,0,0-0.1,0-0.1c0,0,0,0,0-0.1c0-0.1,0-0.1,0-0.2c0,0,0,0,0,0c0-0.1,0-0.1,0-0.2c0-0.9,0.5-1.8,1.4-2.5c0.1-0.1,0.3-0.2,0.5-0.3
	C2,5.5,2.2,5.4,2.3,5.3C2.5,5.2,2.7,5.1,2.9,5c0.3-0.1,0.6-0.3,0.9-0.4c0.4-0.1,0.9-0.3,1.4-0.4c0.1,0,0.2,0,0.4-0.1
	C6.4,4,7.2,4,8,4h0C8.8,4,9.6,4,10.4,4.2c0.1,0,0.2,0,0.4,0.1c0.5,0.1,1,0.2,1.4,0.4c0.3,0.1,0.6,0.2,0.9,0.4
	c0.2,0.1,0.4,0.2,0.6,0.3c0.2,0.1,0.4,0.2,0.5,0.3c0.2,0.1,0.3,0.2,0.5,0.3C15.5,6.6,16,7.5,16,8.4z M11.3,5.3
	C11.3,5.3,11.3,5.3,11.3,5.3c0.2,0.1,0.3,0.1,0.4,0.2c0.1,0.1,0.1,0.2,0.1,0.4c0,0.9,0,1.9,0,2.8c0,0.2,0,0.3-0.1,0.3c0,0,0,0,0,0
	c0,0,0.1,0,0.1,0c0,0,0.1,0,0.1,0c0,0,0,0,0,0c0,0,0,0,0,0c0,0,0,0,0,0c0,0,0,0,0,0c0,0,0,0,0,0c0,0,0,0,0,0c0.1,0,0.2,0,0.3-0.1
	c0,0,0,0,0,0c0,0,0-0.1,0-0.1c0-0.9,0-1.8,0-2.7c0-0.2,0-0.3,0.1-0.3c0.1,0,0.2,0,0.3,0c0,0,0,0,0.1,0c0-0.1,0-0.1,0-0.2
	c-0.5-0.2-1-0.4-1.5-0.5C11.3,5.1,11.3,5.2,11.3,5.3z M7.2,4.6c0,0.1,0,0.1,0,0.2c0,0,0,0,0.1,0c0.1,0,0.2,0,0.3,0.1
	c0.1,0.1,0.1,0.2,0.1,0.4c0,1.1,0,2.2,0,3.3c0,0.1,0,0.2,0,0.2c0,0,0.1,0,0.1,0c0,0,0,0,0,0c0.1,0,0.3-0.1,0.4-0.1
	c0-0.6,0-1.1,0-1.7c0.2,0,0.4,0,0.5,0c0.3,0,0.5,0.1,0.6,0.3c0.1,0.2,0.2,0.4,0.2,0.8c0,0.3-0.1,0.6-0.2,0.7
	C9.4,8.9,9.3,8.9,9.2,8.9C9.4,9,9.5,9.1,9.7,9.1c0,0,0,0,0,0c0.3-0.2,0.5-0.5,0.5-1c0-0.3-0.1-0.6-0.2-0.8C9.8,7.1,9.6,6.9,9.4,6.9
	c0,0,0,0,0,0c0.2-0.1,0.3-0.2,0.5-0.3C10,6.4,10,6.2,10,5.9C10,5.5,9.9,5.2,9.7,5C9.6,4.8,9.4,4.7,9.2,4.7C8.8,4.6,8.4,4.6,8,4.6
	C7.7,4.6,7.5,4.6,7.2,4.6z M2.9,5.7c0.1,0,0.1,0,0.1,0c0.1,0,0.1,0.1,0.1,0.2c0.4,1,0.8,2.2,1.1,3.4c0.1,0,0.2,0,0.4,0c0,0,0,0,0,0
	c0,0,0,0,0,0C5,8.1,5.4,6.8,5.8,5.5C5.8,5.2,5.9,5.1,5.9,5C6,5,6.1,4.9,6.2,4.9c0,0,0.1,0,0.1,0c0-0.1,0-0.1,0-0.2
	C5.8,4.8,5.4,4.9,5,5c0,0,0,0.1,0,0.1c0,0,0.1,0,0.1,0c0.1,0,0.2,0,0.3,0c0.1,0,0.1,0.1,0.1,0.2c0,0,0,0.1,0,0.1c0,0.1,0,0.1,0,0.2
	C5.2,6.3,5,7,4.8,7.7C4.8,7.9,4.7,8.1,4.7,8.3c0,0.2-0.1,0.3-0.1,0.5c0-0.1-0.1-0.3-0.1-0.5c0-0.2-0.1-0.3-0.1-0.5
	C4.1,7.1,4,6.5,3.8,5.9c0,0,0-0.1,0-0.1c0,0,0-0.1,0-0.1c0-0.1,0-0.2,0.1-0.2C3.8,5.4,3.9,5.4,4,5.3c0,0,0.1,0,0.1,0
	c0,0,0-0.1,0-0.1C3.7,5.3,3.3,5.5,2.9,5.7z M14.8,9.7c-0.3,0-0.6,0-0.8-0.1c-0.5-0.1-1.2-0.6-1.8-0.5c0.1,0,0.2,0,0.2,0.1
	c0.2,0.1,0.1,0.3-0.1,0.3c-0.5-0.1-0.9-0.2-1.4-0.1l-0.4,0.1c0.3,0.1,0.5,0.1,0.8,0.2c0.2,0,0.1,0.3-0.1,0.3c-0.5-0.1-1-0.2-1.6-0.4
	h0c0,0,0,0,0,0c-0.1,0-0.2-0.1-0.2-0.1c0,0-0.1,0-0.1,0c-0.1,0-0.2-0.1-0.3-0.1C8.6,9,8.2,8.9,7.7,9.1c0,0,0,0,0,0c0,0,0,0,0,0
	c0,0,0,0,0,0c0,0,0,0,0,0c0,0,0,0,0,0c0,0,0,0,0,0c0,0,0,0,0,0c0,0,0,0,0,0c0,0.1,0,0.1,0.1,0.2h0C7.8,9.7,8,9.9,8.1,10
	c0.1,0.1,0,0.3,0,0.4c0,0.3,0,0.6-0.3,0.7c-0.2,0.1-0.5,0-0.7,0c-0.3,0-0.6,0-0.9,0.1c-0.4,0.1-1,0.3-1.5,0.1c-0.1,0-0.1-0.2,0-0.3
	c0.3-0.2-0.2-0.5-0.3-0.6c0-0.1,0-0.3,0.1-0.4c0.1-0.1,0.4-0.2,0.6-0.3c0.1,0,0.2-0.1,0.3-0.1c-1.2,0-2.3-0.3-3.5-0.4
	c-0.4,0-0.7-0.1-1.1-0.1c0.2,0.4,0.6,0.9,1,1.2c0-0.1,0-0.3,0-0.4C1.9,10,2,9.9,2.1,9.9c0.1,0,0.1,0.1,0.1,0.1
	c0.1,0.1,0.2,0.2,0.3,0.2c0.3,0.2,0.4,0.1,0.7,0c0.3-0.1,0.5-0.1,0.8-0.1c0.1,0,0.2,0.2,0.1,0.2c-0.1,0.1-0.3,0.1-0.4,0.2
	c-0.6,0.4-0.3,0.2-0.3,0.5c0,0.1,0,0.1-0.1,0.1c1.3,0.6,3,0.9,4.7,0.9c1.2,0,2.3-0.2,3.4-0.4c0-0.1,0-0.1,0-0.2
	c0.1,0,0.1-0.1,0.2-0.1c0,0,0.1,0,0.1,0c0.1-0.2,0.2-0.3,0.3-0.3c0.4-0.2,0.8,0,1.1-0.4c0.3-0.3,0.6-0.4,1-0.5
	c0.1-0.1,0.2-0.3,0.3-0.3c0.1,0,0.1,0,0.2,0C14.8,9.8,14.8,9.8,14.8,9.7z"/>
</svg>
