<?xml version="1.0" encoding="utf-8"?>
<!-- Generator: Adobe Illustrator 27.9.0, SVG Export Plug-In . SVG Version: 6.00 Build 0)  -->
<svg version="1.1" id="Layer_1" xmlns="http://www.w3.org/2000/svg" xmlns:xlink="http://www.w3.org/1999/xlink" x="0px" y="0px"
	 viewBox="0 0 1680 136.5" style="enable-background:new 0 0 1680 136.5;" xml:space="preserve">
<style type="text/css">
	.st0{clip-path:url(#SVGID_00000183251299923913300710000011980712704100308615_);fill:#194259;}
</style>
<g>
	<defs>
		<rect id="SVGID_1_" width="1680" height="136.5"/>
	</defs>
	<clipPath id="SVGID_00000028316749897811824020000000727597534894877112_">
		<use xlink:href="#SVGID_1_"  style="overflow:visible;"/>
	</clipPath>
	<path style="clip-path:url(#SVGID_00000028316749897811824020000000727597534894877112_);fill:#194259;" d="M609.6,136.7
		c-1.8-15.8,5.7-19.6,18.7-24.9c9.3-3.8,17.8-7.2,25.1-14.4c3.1-3.1,0.9-9.1-3.7-8.9c-16.3,0.7-32.2,3.4-47.6,9.1
		c-3.5,1.3-7.1,3.5-10.8,4.4c-8.6,2.2-18.3-0.9-26.3-5.4c-6.7-3.8-12.8-10.7-18.2-17c0.7-3-2.2-5.5-5.2-5.7c-4-2.6-9.1,2.4-7.2,6.8
		c-5,11.9,1.2,25.1-4.8,36.8c-4,7.9-19.9,15.7-17.1,27.2c2.8,11.5,22.3,6.7,30,6.5c12.5-0.2,25-0.4,37.5-0.7
		c9-0.2,19.2,1.2,27.9-1.4c2.4-0.7,3.7-2.7,3.8-5C611.9,140.4,609.9,140,609.6,136.7z M1047.2,97.4c3.8,9.7,10.6,17.6,19.9,22.6
		c5.4,2.9,11.3,4.1,16.8,6.5c10,4.4,12,12.6,13.8,22.5c0.7,3.9,6.2,5,8.7,2.3c9.1-9.8,10.8-31,0.1-40.4
		c-14.1-12.5-36.7-5.7-50.4-19.2c-2.3-6-12-3.3-9.9,3.1c0.1,0.2,0.1,0.3,0.2,0.5C1046.5,96,1046.8,96.7,1047.2,97.4z M1274.9,106.5
		c9.7,0.6,23.2,1.7,32.4-1.7c5.1-1.9,7.5-7.1,4.4-11.9c-1.8-2.8-4.4-2.8-6.6-4.7c-0.5,0.3-0.9,0.5-1.4,0.8c1-0.7,2.1-1.3,3.1-2
		c3.1-2.1,6.3-4,9.4-6.1c4.1-2.7,2.8-10-2.6-9.7c-10.4,0.5-22.2-0.2-32.1,3.1c-9,3-14.2,10-19.1,17.7c-0.1,0.1-0.1,0.2-0.1,0.3
		c-20.9,1.6-39.8,8.6-57.4,26c-11.4,11.3-21.9,16.8-37.9,18.6c-8.9,1-18,1-26.7,3.6c-12.3,3.7-22.4,11-26.5,23
		c-1.3-0.7-3-0.8-4.7,0.4c-4,2.8-8,5.6-12.1,8.4c-4.3,3-2.7,9.4,2.6,9.7c24,1.4,48,3.2,72,4c14.3,0.5,27.2-1.3,35.9-13.7
		c3.6-5.1,4.8-11.7,9.4-16.1c4-3.9,11-5.6,16.1-7.5c5.7-2.2,11.5-4.6,15.5-9.4c6.2-7.6,5.8-18.1,13-25.3
		C1265.4,110.2,1269.9,107.9,1274.9,106.5z M1707.6,94.3c-20,2.4-38.9-2.2-58.7,3.6c-7.8,2.3-15.4,5.3-23,8.2
		c-0.9,1-2.2,1.5-3.6,1.4c-7.7,2.9-15.5,5.7-23.5,7.7c-17.2,4.2-34.9,5.7-52.5,7.9c-21.9,2.8-43.3,7.4-64.2,14.6
		c-16,5.5-31.4,11.9-48.2,14.1c-37.9,5-77.7-5-113.9,10.6c-6.1,2.6-11.4-6.4-5.3-9c31.7-13.7,64.8-9.5,98.5-10.5
		c29.1-0.8,55.7-11.7,83.1-20c-6.2-1.4-12.1-3.9-17.7-8c-1.6-0.7-2.8-2.2-2.7-4.6c1-15.3,5.5-29.6,14.8-41.9
		c1.3-1.8,3.2-4.2,5.3-6.6c-3.2-0.1-6.4-0.3-9.6-0.8c-15.9-2.2-27.7-3-42.9,3.1c-6.4,2.6-12.5,4.8-19.5,5.2
		c-19.8,1.2-39.5-7.6-59.1-9.7c-41.4-4.5-84,2.8-124.4-9.7c-33.4-10.4-74.8-41.6-109.9-25c8.4,1.5,16.8,3.6,25.2,6.4
		c6.4,2.1,3.6,12.2-2.8,10.1c-12.1-4-24.3-6.6-36.5-8c-0.8,0.1-1.5,0-2.2-0.2c-29.4-3.1-59.1,0.3-88.4,6.2
		c21.7,5.8,43.7,10.5,65.6,15.2c6.6,1.4,3.8,11.5-2.8,10.1c-42.7-9.1-85.7-18.4-126.2-35.3c-18.7-7.8-36.5-18.8-57.5-17.6
		c-10.3,0.6-20.2,3.4-29.8,7c-0.2,0.1-0.4,0.3-0.6,0.4c-25.1,14.1,0.3,33.6,11.2,45.6c7.2,7.9,11,16.2,11.5,26.9
		c0.5,10.8,0.4,26.7-3.6,36.9c-4,10.3-14.1,12.4-24.2,13.5c-14.3,1.7-28.3-1.1-42.5-2.5c-19.4-1.9-34.4,2.5-52.8,7.6
		c-14,3.9-28.4,5.2-42.9,5.6c-12.5,0.4-25,1.7-36.4-4.1c-3.3-1.7-3.5-7.4,0-9c25.3-11.9-13.9-30.2-14.4-44.3
		c-0.4-9.7,7.6-15.7,15.4-19.5c15-7.1,31.5-10.3,46.3-18c2.9-1.5,5.6-3.5,8.4-5.7c-37.6,2.2-75.7-1.3-113.1-6.5
		C575.1,36.8,513.8,26,451.3,27c-0.5,1.7-1.8,3-4,3.1c-34.2,10.2-68.4,20.5-102.6,30.7c-16.6,5-33.3,10-49.9,14.9
		c-9.2,2.8-23.7,5-35.2,10.3c36.3-11.6,74.2-15.9,112.5-12.6c5.4,0.5,7.6,9.3,1.4,10.3c-31,4.9-61.9,10.1-91.9,19.3
		c-27.2,8.4-53.6,19.3-80.6,28.2c-15.2,5-46.3,19.8-62.1,8.9c-6.5-4.5-4.3-7.7-6.8-13.9c-5.6-14.2-34-9.5-46.7-10.2
		c-4.4-0.2-7.1-5.6-3.7-8.9c9.5-9.2,20.4-16,33.4-18.6c17.1-3.5,40.3,2.5,52.9-12.2c-9.3-3.6-18.7-6.8-29.5-7.8
		c-18.5-1.7-37.2,0.4-55.1,5C45,83.4,10.7,104.5-22.8,124.9c-5.8,3.5-11-5.5-5.3-9C7.9,94,44.9,71.4,86.4,62.1
		c19-4.2,38.6-5.8,58-3.3c19.5,2.5,34.7,12.2,53.2,17.1c5.3,1.4,10.5,1.6,15.7,1.1c7.9-1.3,15.6-3.8,22.7-6.5
		c9.4-4.1,18.6-9.1,27.3-12.8c7.7-3.3,15.5-6.4,23.3-9.3c10.8-4.5,21.7-8.7,33-12.1c13.4-4,27.2-7,41.2-9.3
		c19.8-4.1,39.8-7.1,59.9-9c80.7-7.4,158.4,10.4,238.1,20c36.3,4.4,73.3,6.5,109.7,2.4c0,0,0.1,0,0.1,0c4.8-1.4,10-1.7,15.2-2
		c8.7-1.4,17.3-3.3,25.8-5.6c4.1-1.8,8.1-3.7,12.2-5.4c15-6.1,30.4-11.5,45.8-16.7c5.5-2.2,11-4.2,16.7-5.8
		c35.3-9.8,60.8,7,92.9,19.1c9.2,3.5,18.5,6.6,27.9,9.5c0.5-0.3,1.1-0.6,1.8-0.8c35.5-8,71.9-13.6,107.7-10
		c28.3-21.2,63.2-11,93.1,2.4c24.6,11,47.3,19.6,74.5,21.6c23.3,1.7,46.7,0.3,70.1,1.6c10,0.5,19.9,1.5,29.7,3.3
		c12.9,2.4,26,7.7,39.2,7.5c11.8-0.2,21.1-7.2,32.1-9.9c8.9-2.2,17.9-1,26.8,0.3c24.9,3.6,49.2-1.1,74.3,0.7
		c22.3,1.6,44.2,6,66.1,10.4c13.4-1.5,25.4-9.4,38.9-11.6c11.3-1.8,22.9-1.6,34.2-0.1c27.8,3.7,53.4,15.6,78.6,27.4
		c6.1,2.8,0.8,11.8-5.3,9c-5.1-2.4-10.2-4.8-15.4-7.1C1737.6,85.3,1723.4,92.4,1707.6,94.3z M1633.5,67.8c-4.2,1.4-8.5,2.6-13.3,3.1
		c-1,0.1-1.9-0.1-2.6-0.4c-24.2-4.9-48.5-9.7-73.2-10.5c-6.2-0.2-12.5,0.1-18.7,0.5c0.9,0.8,1.8,1.6,2.7,2.1c7.1,4.3,15,7.1,22.4,11
		c15.9,8.3,30.5,19.2,43.8,31.2c0.1,0.1,0.2,0.2,0.3,0.3c7.7-2,15.1-4.5,22.5-7.2C1619.6,87.1,1625.5,76.4,1633.5,67.8z
		 M1704.2,83.3c12.2-1.6,23.2-5.3,34.7-10.7c-17-7.1-34.6-12.8-53.1-14.2c-2.1-0.2-4.1-0.3-6.1-0.3
		C1689.4,65.4,1698,76.6,1704.2,83.3z"/>
</g>
</svg>
