<?xml version="1.0" encoding="utf-8"?>
<!-- Generator: Adobe Illustrator 27.9.0, SVG Export Plug-In . SVG Version: 6.00 Build 0)  -->
<svg version="1.1" id="Layer_1" xmlns="http://www.w3.org/2000/svg" xmlns:xlink="http://www.w3.org/1999/xlink" x="0px" y="0px"
	 viewBox="0 0 226.1 45" style="enable-background:new 0 0 226.1 45;" xml:space="preserve">
<style type="text/css">
	.st0{fill:#194259;}
</style>
<path class="st0" d="M8.8,30.1h5V31h-0.4c-0.4,0-0.7,0.1-0.9,0.3c-0.2,0.2-0.4,0.6-0.7,1.3L7.6,44.7H6.1L1.7,32.1
	c-0.1-0.4-0.3-0.7-0.5-0.9C1,31.1,0.7,31,0.3,31H0v-0.9h5.6V31H5.1c-0.4,0-0.7,0.1-0.9,0.2C4,31.4,3.9,31.6,3.9,32
	c0,0.1,0,0.2,0,0.3c0,0.1,0.1,0.3,0.1,0.4l2.2,6.6c0.2,0.6,0.4,1.2,0.5,1.8c0.1,0.6,0.3,1.1,0.4,1.6c0.1-0.5,0.2-1,0.4-1.6
	C7.8,40.6,8,40,8.2,39.4l2.2-6.5c0.1-0.2,0.1-0.3,0.1-0.5c0-0.2,0.1-0.3,0.1-0.4c0-0.4-0.1-0.6-0.3-0.8C10,31.1,9.7,31,9.3,31H8.8
	V30.1z M14.5,31h0.3c0.5,0,0.9,0.1,1.2,0.3c0.3,0.2,0.5,0.6,0.5,1.2v9.9c0,0.6-0.2,1-0.5,1.2c-0.3,0.2-0.7,0.3-1.2,0.3h-0.3v0.9h5.9
	v-0.9h-0.3c-0.5,0-0.9-0.1-1.2-0.3c-0.3-0.2-0.5-0.6-0.5-1.2v-9.9c0-0.6,0.2-1,0.5-1.2c0.3-0.2,0.7-0.3,1.2-0.3h0.3v-0.9h-5.9V31z
	 M28.9,31c0.6,0,1.1,0.1,1.4,0.4c0.3,0.3,0.6,0.6,0.7,1c0.1,0.4,0.2,0.8,0.2,1.2c0.5,0,0.9-0.1,1.3-0.4c0.3-0.3,0.5-0.6,0.5-1
	c0-0.7-0.3-1.2-1-1.6c-0.7-0.4-1.7-0.7-3.1-0.7c-1.4,0-2.6,0.3-3.6,0.9c-1,0.6-1.7,1.5-2.2,2.6c-0.5,1.1-0.7,2.4-0.7,3.9
	c0,1.5,0.2,2.8,0.7,3.9s1.2,2,2.1,2.6c0.9,0.6,2.1,0.9,3.4,0.9c1,0,1.8-0.1,2.5-0.4c0.6-0.2,1.1-0.5,1.4-0.9c0.3-0.4,0.5-0.7,0.5-1
	c0-0.2,0-0.4-0.1-0.5c-0.1-0.1-0.2-0.2-0.3-0.3c-0.2,0.3-0.5,0.6-0.8,0.8c-0.3,0.3-0.7,0.5-1.2,0.6c-0.5,0.2-1,0.2-1.7,0.2
	c-1,0-1.8-0.3-2.4-0.8c-0.6-0.5-1.1-1.2-1.4-2.2c-0.3-0.9-0.4-2-0.4-3.2c0-2,0.3-3.6,1-4.7C26.3,31.6,27.4,31,28.9,31z M34.3,30.1
	l-0.1,3.6h1.1l0.1-0.9c0.1-0.4,0.2-0.8,0.4-1.2c0.2-0.3,0.6-0.5,1.2-0.5h2v11.3c0,0.6-0.2,1-0.5,1.1c-0.3,0.2-0.7,0.2-1.2,0.2h-0.5
	v0.9h6.3v-0.9h-0.5c-0.5,0-0.9-0.1-1.2-0.3C41.2,43.4,41,43,41,42.4V31.2h2c0.6,0,1,0.2,1.3,0.5c0.2,0.3,0.4,0.7,0.4,1.2l0.1,0.9
	h1.1l-0.1-3.6H34.3z M59.5,33.5c0.5,1.1,0.7,2.4,0.7,3.9c0,1.5-0.2,2.8-0.7,3.9c-0.5,1.1-1.2,2-2.2,2.6c-1,0.6-2.1,0.9-3.5,0.9
	c-1.4,0-2.6-0.3-3.6-0.9c-1-0.6-1.7-1.5-2.1-2.6c-0.5-1.1-0.7-2.4-0.7-4c0-1.5,0.2-2.8,0.7-3.9c0.5-1.1,1.2-2,2.1-2.6
	c1-0.6,2.2-0.9,3.6-0.9c1.4,0,2.5,0.3,3.5,0.9C58.3,31.5,59,32.3,59.5,33.5z M58,37.4c0-2-0.3-3.6-0.9-4.7c-0.6-1.1-1.7-1.7-3.2-1.7
	c-1.5,0-2.6,0.6-3.2,1.7c-0.6,1.1-0.9,2.7-0.9,4.7c0,2,0.3,3.6,0.9,4.7c0.6,1.1,1.7,1.7,3.2,1.7c1.5,0,2.6-0.6,3.2-1.7
	C57.7,41,58,39.4,58,37.4z M74.9,43.9L74.9,43.9l0.1,0.9h-0.3c-0.8,0-1.5,0-2-0.1c-0.5-0.1-0.8-0.3-1.1-0.5
	c-0.3-0.3-0.6-0.7-0.9-1.2l-2.8-4.6h-1.7v4.2c0,0.6,0.2,1,0.5,1.1c0.3,0.2,0.7,0.2,1.2,0.2h0.3v0.9h-5.9v-0.9h0.3
	c0.4,0,0.8-0.1,1.2-0.2c0.3-0.2,0.5-0.5,0.5-1.1V32.4c0-0.6-0.2-1-0.5-1.1c-0.3-0.2-0.7-0.2-1.2-0.2h-0.3v-0.9h5.5
	c1.8,0,3.1,0.3,3.9,1c0.9,0.7,1.3,1.6,1.3,3c0,0.7-0.1,1.3-0.4,1.8c-0.3,0.5-0.7,0.9-1.1,1.2c-0.5,0.3-0.9,0.5-1.4,0.7l2.8,4.4
	c0.4,0.5,0.7,1,1,1.2C74.1,43.7,74.5,43.9,74.9,43.9z M70.1,36.5c0.4-0.5,0.7-1.3,0.7-2.4c0-1.1-0.2-1.9-0.7-2.3
	c-0.5-0.5-1.3-0.7-2.4-0.7h-1.4v6.2h1.4C68.8,37.3,69.7,37.1,70.1,36.5z M75.6,31h0.3c0.5,0,0.9,0.1,1.2,0.3
	c0.3,0.2,0.5,0.6,0.5,1.2v9.9c0,0.6-0.2,1-0.5,1.2c-0.3,0.2-0.7,0.3-1.2,0.3h-0.3v0.9h5.9v-0.9h-0.3c-0.5,0-0.9-0.1-1.2-0.3
	c-0.3-0.2-0.5-0.6-0.5-1.2v-9.9c0-0.6,0.2-1,0.5-1.2c0.3-0.2,0.7-0.3,1.2-0.3h0.3v-0.9h-5.9V31z M96.4,43.9h0.3v0.9h-5.6v-0.9h0.5
	c0.4,0,0.7-0.1,0.9-0.2c0.2-0.2,0.3-0.4,0.3-0.7c0-0.1,0-0.2,0-0.3c0-0.1-0.1-0.3-0.1-0.4l-0.8-2.3h-5.4L85.6,42
	c-0.1,0.2-0.1,0.3-0.1,0.5c0,0.2-0.1,0.3-0.1,0.4c0,0.3,0.1,0.6,0.3,0.8c0.2,0.2,0.6,0.2,1,0.2h0.5v0.9h-5v-0.9h0.4
	c0.4,0,0.7-0.1,0.9-0.3c0.2-0.2,0.4-0.6,0.7-1.3l4.5-12.1h1.6L95,42.8c0.1,0.4,0.3,0.7,0.5,0.9C95.7,43.8,96,43.9,96.4,43.9z
	 M91.4,38.8l-1.3-3.6c-0.2-0.6-0.4-1.2-0.6-1.7c-0.2-0.5-0.3-1-0.4-1.5c-0.1,0.5-0.2,1-0.4,1.4c-0.1,0.4-0.3,1-0.6,1.6l-1.4,3.8
	H91.4z M113.2,38.2c0.6,0.6,0.9,1.5,0.9,2.5c0,2.6-1.7,3.9-5.2,3.9h-6.1v-0.9h0.3c0.5,0,0.9-0.1,1.2-0.3c0.3-0.2,0.5-0.6,0.5-1.2
	v-10c0-0.6-0.2-1-0.5-1.1c-0.3-0.2-0.7-0.2-1.2-0.2h-0.3v-0.9h5.5c1.8,0,3.1,0.3,3.9,0.9c0.9,0.6,1.3,1.5,1.3,2.8
	c0,0.9-0.2,1.6-0.7,2.1c-0.5,0.5-1.1,0.9-1.8,1.1v0.1C111.9,37.2,112.6,37.6,113.2,38.2z M106.8,36.6h1.4c1.2,0,2-0.2,2.5-0.7
	c0.4-0.4,0.7-1.1,0.7-2.1c0-1-0.2-1.7-0.7-2.1c-0.5-0.4-1.3-0.6-2.4-0.6h-1.4V36.6z M111.9,40.7c0-1.1-0.2-1.8-0.7-2.4
	c-0.4-0.5-1.3-0.8-2.5-0.8h-2v6.1h2c1.2,0,2-0.2,2.4-0.7C111.7,42.6,111.9,41.8,111.9,40.7z M124.5,31h0.3c0.4,0,0.8,0.1,1.2,0.2
	c0.3,0.2,0.5,0.5,0.5,1.1v8.1c0,0.9-0.3,1.7-0.8,2.3c-0.6,0.6-1.4,0.9-2.6,0.9c-1,0-1.8-0.2-2.4-0.7c-0.6-0.5-1-1.3-1-2.5v-8
	c0-0.6,0.2-1,0.5-1.2c0.3-0.2,0.7-0.3,1.2-0.3h0.3v-0.9h-5.9V31h0.3c0.4,0,0.8,0.1,1.2,0.2c0.3,0.2,0.5,0.5,0.5,1.1v7.9
	c0,1.7,0.5,2.8,1.4,3.6c0.9,0.7,2.2,1.1,3.8,1.1c1.6,0,2.9-0.4,3.7-1.2c0.9-0.8,1.3-1.8,1.3-3.2v-8.1c0-0.6,0.2-1,0.5-1.2
	c0.3-0.2,0.7-0.3,1.2-0.3h0.3v-0.9h-5.1V31z M139.8,31h0.3c0.4,0,0.8,0.1,1.2,0.2c0.3,0.2,0.5,0.5,0.5,1.1v9l-7.3-11.3h-3.7V31h0.3
	c0.4,0,0.8,0.1,1.2,0.2c0.3,0.2,0.5,0.5,0.5,1.1v10c0,0.6-0.2,1-0.5,1.2c-0.3,0.2-0.7,0.3-1.2,0.3h-0.3v0.9h5.1v-0.9h-0.3
	c-0.5,0-0.9-0.1-1.2-0.3c-0.3-0.2-0.5-0.6-0.5-1.2V33l7.7,11.8h1.4V32.5c0-0.6,0.2-1,0.5-1.2c0.3-0.2,0.7-0.3,1.2-0.3h0.3v-0.9h-5.1
	V31z M158.9,43.4c-0.4-0.3-0.7-0.7-1.1-1.2l-4.3-6l3-3.3c0.5-0.6,1-1.1,1.4-1.4c0.4-0.3,0.9-0.5,1.3-0.5v-0.8h-4.5V31
	c0.3,0,0.6,0,0.8,0.1c0.2,0.1,0.2,0.2,0.2,0.4c0,0.2-0.1,0.4-0.2,0.7c-0.2,0.3-0.5,0.7-0.9,1.2l-4.2,4.8v-5.8c0-0.6,0.2-1,0.5-1.2
	c0.3-0.2,0.7-0.3,1.2-0.3h0.3v-0.9h-5.9V31h0.3c0.4,0,0.8,0.1,1.2,0.2c0.3,0.2,0.5,0.5,0.5,1.1v10.1c0,0.6-0.2,1-0.5,1.1
	c-0.3,0.2-0.7,0.2-1.2,0.2h-0.3v0.9h5.9v-0.9H152c-0.5,0-0.9-0.1-1.2-0.3c-0.3-0.2-0.5-0.6-0.5-1.2v-2.8l1.7-1.7l3.5,5
	c0.3,0.4,0.5,0.7,0.7,0.9c0.2,0.2,0.5,0.4,0.8,0.6c0.3,0.1,0.7,0.2,1.1,0.3c0.4,0.1,1,0.1,1.7,0.1h0.2v-0.9h0
	C159.6,43.9,159.3,43.7,158.9,43.4z M170.5,42c-0.1,0.4-0.2,0.8-0.5,1.2c-0.3,0.3-0.8,0.5-1.4,0.5h-3.9v-6.1h4.9v-1h-4.9v-5.4h3.4
	c0.6,0,1.1,0.2,1.3,0.5s0.4,0.7,0.5,1.2l0.1,0.9h1.1l-0.1-3.6h-10.3V31h0.3c0.5,0,0.9,0.1,1.2,0.3c0.3,0.2,0.5,0.6,0.5,1.2v10
	c0,0.6-0.2,1-0.5,1.1c-0.3,0.2-0.7,0.2-1.2,0.2h-0.3v0.9h10.9l0.1-3.6h-1.1L170.5,42z M186,43.9L186,43.9l0.1,0.9h-0.3
	c-0.8,0-1.5,0-2-0.1c-0.5-0.1-0.8-0.3-1.1-0.5c-0.3-0.3-0.6-0.7-0.9-1.2l-2.8-4.6h-1.7v4.2c0,0.6,0.2,1,0.5,1.1
	c0.3,0.2,0.7,0.2,1.2,0.2h0.3v0.9h-5.9v-0.9h0.3c0.4,0,0.8-0.1,1.2-0.2c0.3-0.2,0.5-0.5,0.5-1.1V32.4c0-0.6-0.2-1-0.5-1.1
	c-0.3-0.2-0.7-0.2-1.2-0.2h-0.3v-0.9h5.5c1.8,0,3.1,0.3,3.9,1c0.9,0.7,1.3,1.6,1.3,3c0,0.7-0.1,1.3-0.4,1.8
	c-0.3,0.5-0.7,0.9-1.1,1.2c-0.5,0.3-0.9,0.5-1.4,0.7l2.8,4.4c0.4,0.5,0.7,1,1,1.2C185.2,43.7,185.5,43.9,186,43.9z M181.2,36.5
	c0.4-0.5,0.7-1.3,0.7-2.4c0-1.1-0.2-1.9-0.7-2.3c-0.5-0.5-1.3-0.7-2.4-0.7h-1.4v6.2h1.4C179.9,37.3,180.7,37.1,181.2,36.5z M192,31
	h0.3c0.5,0,0.9,0.1,1.2,0.3c0.3,0.2,0.5,0.6,0.5,1.2v9.9c0,0.6-0.2,1-0.5,1.2c-0.3,0.2-0.7,0.3-1.2,0.3H192v0.9h5.9v-0.9h-0.3
	c-0.5,0-0.9-0.1-1.2-0.3c-0.3-0.2-0.5-0.6-0.5-1.2v-9.9c0-0.6,0.2-1,0.5-1.2c0.3-0.2,0.7-0.3,1.2-0.3h0.3v-0.9H192V31z M208.6,31
	h0.3c0.4,0,0.8,0.1,1.2,0.2c0.3,0.2,0.5,0.5,0.5,1.1v9l-7.3-11.3h-3.7V31h0.3c0.4,0,0.8,0.1,1.2,0.2c0.3,0.2,0.5,0.5,0.5,1.1v10
	c0,0.6-0.2,1-0.5,1.2c-0.3,0.2-0.7,0.3-1.2,0.3h-0.3v0.9h5.1v-0.9h-0.3c-0.5,0-0.9-0.1-1.2-0.3c-0.3-0.2-0.5-0.6-0.5-1.2V33
	l7.7,11.8h1.4V32.5c0-0.6,0.2-1,0.5-1.2c0.3-0.2,0.7-0.3,1.2-0.3h0.3v-0.9h-5.1V31z M225.6,41.8c-0.2,0.3-0.5,0.6-0.8,0.8
	s-0.7,0.5-1.2,0.6c-0.5,0.2-1,0.2-1.7,0.2c-1,0-1.8-0.3-2.4-0.8c-0.6-0.5-1.1-1.2-1.4-2.2c-0.3-0.9-0.4-2-0.4-3.2c0-2,0.3-3.6,1-4.7
	c0.6-1.1,1.7-1.7,3.3-1.7c0.6,0,1.1,0.1,1.4,0.4c0.3,0.3,0.6,0.6,0.7,1c0.1,0.4,0.2,0.8,0.2,1.2c0.5,0,0.9-0.1,1.3-0.4
	c0.3-0.3,0.5-0.6,0.5-1c0-0.7-0.3-1.2-1-1.6c-0.7-0.4-1.7-0.7-3.1-0.7c-1.4,0-2.6,0.3-3.6,0.9c-1,0.6-1.7,1.5-2.2,2.6
	c-0.5,1.1-0.7,2.4-0.7,3.9c0,1.5,0.2,2.8,0.7,3.9c0.5,1.1,1.2,2,2.1,2.6c0.9,0.6,2.1,0.9,3.4,0.9c1,0,1.8-0.1,2.5-0.4
	c0.6-0.2,1.1-0.5,1.4-0.9c0.3-0.4,0.5-0.7,0.5-1c0-0.2,0-0.4-0.1-0.5S225.7,41.9,225.6,41.8z M82.1,16.6c-0.2-1.9,0.7-2.4,2.3-3
	c1.1-0.5,2.2-0.9,3.1-1.8c0.4-0.4,0.1-1.1-0.5-1.1c-2,0.1-3.9,0.4-5.8,1.1c-0.4,0.2-0.9,0.4-1.3,0.5c-1.1,0.3-2.2-0.1-3.2-0.7
	c-0.8-0.5-1.6-1.3-2.2-2.1C74.5,9.3,74.1,9,73.8,9c-0.5-0.3-1.1,0.3-0.9,0.8c-0.6,1.5,0.1,3.1-0.6,4.5c-0.5,1-2.4,1.9-2.1,3.3
	c0.3,1.4,2.7,0.8,3.7,0.8c1.5,0,3.1-0.1,4.6-0.1c1.1,0,2.3,0.1,3.4-0.2c0.3-0.1,0.4-0.3,0.5-0.6C82.4,17.1,82.1,17,82.1,16.6z
	 M135.5,11.8c0.5,1.2,1.3,2.1,2.4,2.8c0.7,0.4,1.4,0.5,2.1,0.8c1.2,0.5,1.5,1.5,1.7,2.7c0.1,0.5,0.8,0.6,1.1,0.3
	c1.1-1.2,1.3-3.8,0-4.9c-1.7-1.5-4.5-0.7-6.2-2.3c-0.3-0.7-1.5-0.4-1.2,0.4c0,0,0,0,0,0.1C135.4,11.7,135.4,11.7,135.5,11.8z
	 M163.3,12.9c1.2,0.1,2.8,0.2,4-0.2c0.6-0.2,0.9-0.9,0.5-1.4c-0.2-0.3-0.5-0.3-0.8-0.6c-0.1,0-0.1,0.1-0.2,0.1
	c0.1-0.1,0.3-0.2,0.4-0.2c0.4-0.3,0.8-0.5,1.1-0.7c0.5-0.3,0.3-1.2-0.3-1.2c-1.3,0.1-2.7,0-3.9,0.4c-1.1,0.4-1.7,1.2-2.3,2.2
	c0,0,0,0,0,0c-2.5,0.2-4.9,1-7,3.2c-1.4,1.4-2.7,2.1-4.6,2.3c-1.1,0.1-2.2,0.1-3.3,0.4c-1.5,0.4-2.7,1.3-3.2,2.8
	c-0.2-0.1-0.4-0.1-0.6,0.1c-0.5,0.3-1,0.7-1.5,1c-0.5,0.4-0.3,1.2,0.3,1.2c2.9,0.2,5.9,0.4,8.8,0.5c1.7,0.1,3.3-0.2,4.4-1.7
	c0.4-0.6,0.6-1.4,1.2-2c0.5-0.5,1.3-0.7,2-0.9c0.7-0.3,1.4-0.6,1.9-1.2c0.8-0.9,0.7-2.2,1.6-3.1C162.1,13.4,162.7,13.1,163.3,12.9z
	 M216.1,11.4c-2.4,0.3-4.8-0.3-7.2,0.4c-1,0.3-1.9,0.6-2.8,1c-0.1,0.1-0.3,0.2-0.4,0.2c-0.9,0.4-1.9,0.7-2.9,0.9
	c-2.1,0.5-4.3,0.7-6.4,1c-2.7,0.3-5.3,0.9-7.8,1.8c-1.9,0.7-3.8,1.4-5.9,1.7c-4.6,0.6-9.5-0.6-13.9,1.3c-0.7,0.3-1.4-0.8-0.6-1.1
	c3.9-1.7,7.9-1.2,12-1.3c3.6-0.1,6.8-1.4,10.1-2.4c-0.8-0.2-1.5-0.5-2.2-1c-0.2-0.1-0.3-0.3-0.3-0.6c0.1-1.9,0.7-3.6,1.8-5.1
	c0.2-0.2,0.4-0.5,0.6-0.8c-0.4,0-0.8,0-1.2-0.1c-1.9-0.3-3.4-0.4-5.2,0.4c-0.8,0.3-1.5,0.6-2.4,0.6c-2.4,0.1-4.8-0.9-7.2-1.2
	C169.2,6.7,164,7.6,159.1,6C155,4.8,150,0.9,145.7,3c1,0.2,2.1,0.4,3.1,0.8c0.8,0.3,0.4,1.5-0.3,1.2c-1.5-0.5-3-0.8-4.5-1
	c-0.1,0-0.2,0-0.3,0c-3.6-0.4-7.2,0-10.8,0.8c2.7,0.7,5.3,1.3,8,1.9c0.8,0.2,0.5,1.4-0.3,1.2c-5.2-1.1-10.5-2.2-15.4-4.3
	c-2.3-1-4.5-2.3-7-2.1c-1.3,0.1-2.5,0.4-3.6,0.9c0,0,0,0-0.1,0c-3.1,1.7,0,4.1,1.4,5.6c0.9,1,1.3,2,1.4,3.3c0.1,1.3,0,3.3-0.4,4.5
	c-0.5,1.3-1.7,1.5-3,1.7c-1.7,0.2-3.5-0.1-5.2-0.3c-2.4-0.2-4.2,0.3-6.5,0.9c-1.7,0.5-3.5,0.6-5.2,0.7c-1.5,0-3.1,0.2-4.4-0.5
	c-0.4-0.2-0.4-0.9,0-1.1c3.1-1.5-1.7-3.7-1.8-5.4c0-1.2,0.9-1.9,1.9-2.4c1.8-0.9,3.8-1.3,5.7-2.2c0.4-0.2,0.7-0.4,1-0.7
	c-4.6,0.3-9.2-0.2-13.8-0.8c-7.6-1.1-15.1-2.4-22.7-2.3c-0.1,0.2-0.2,0.4-0.5,0.4c-4.2,1.2-8.4,2.5-12.5,3.7c-2,0.6-4.1,1.2-6.1,1.8
	c-1.1,0.3-2.9,0.6-4.3,1.3c4.4-1.4,9.1-1.9,13.7-1.5C53.7,9,54,10,53.2,10.2c-3.8,0.6-7.6,1.2-11.2,2.4c-3.3,1-6.5,2.4-9.8,3.4
	c-1.9,0.6-5.7,2.4-7.6,1.1c-0.8-0.6-0.5-0.9-0.8-1.7c-0.7-1.7-4.2-1.2-5.7-1.2c-0.5,0-0.9-0.7-0.5-1.1c1.2-1.1,2.5-1.9,4.1-2.3
	c2.1-0.4,4.9,0.3,6.5-1.5c-1.1-0.4-2.3-0.8-3.6-0.9c-2.3-0.2-4.5,0-6.7,0.6c-4.7,1.2-8.9,3.8-13,6.3c-0.7,0.4-1.3-0.7-0.6-1.1
	c4.4-2.7,8.9-5.4,14-6.6c2.3-0.5,4.7-0.7,7.1-0.4c2.4,0.3,4.2,1.5,6.5,2.1c0.6,0.2,1.3,0.2,1.9,0.1c1-0.2,1.9-0.5,2.8-0.8
	C37.6,8,38.7,7.4,39.8,7c0.9-0.4,1.9-0.8,2.8-1.1c1.3-0.6,2.7-1.1,4-1.5c1.6-0.5,3.3-0.9,5-1.1c2.4-0.5,4.9-0.9,7.3-1.1
	c9.9-0.9,19.3,1.3,29.1,2.4c4.4,0.5,8.9,0.8,13.4,0.3c0,0,0,0,0,0c0.6-0.2,1.2-0.2,1.9-0.2c1.1-0.2,2.1-0.4,3.2-0.7
	c0.5-0.2,1-0.5,1.5-0.7c1.8-0.7,3.7-1.4,5.6-2c0.7-0.3,1.3-0.5,2-0.7c4.3-1.2,7.4,0.8,11.3,2.3c1.1,0.4,2.3,0.8,3.4,1.2
	c0.1,0,0.1-0.1,0.2-0.1c4.3-1,8.8-1.7,13.1-1.2c3.5-2.6,7.7-1.3,11.4,0.3c3,1.3,5.8,2.4,9.1,2.6c2.8,0.2,5.7,0,8.6,0.2
	c1.2,0.1,2.4,0.2,3.6,0.4c1.6,0.3,3.2,0.9,4.8,0.9c1.4,0,2.6-0.9,3.9-1.2c1.1-0.3,2.2-0.1,3.3,0c3,0.4,6-0.1,9.1,0.1
	c2.7,0.2,5.4,0.7,8.1,1.3c1.6-0.2,3.1-1.1,4.8-1.4c1.4-0.2,2.8-0.2,4.2,0c3.4,0.5,6.5,1.9,9.6,3.3c0.7,0.3,0.1,1.4-0.6,1.1
	c-0.6-0.3-1.2-0.6-1.9-0.9C219.8,10.4,218.1,11.2,216.1,11.4z M207.1,8.2c-0.5,0.2-1,0.3-1.6,0.4c-0.1,0-0.2,0-0.3-0.1
	c-3-0.6-5.9-1.2-8.9-1.3c-0.8,0-1.5,0-2.3,0.1c0.1,0.1,0.2,0.2,0.3,0.3c0.9,0.5,1.8,0.9,2.7,1.3c1.9,1,3.7,2.3,5.3,3.8c0,0,0,0,0,0
	c0.9-0.2,1.8-0.5,2.7-0.9C205.4,10.6,206.1,9.3,207.1,8.2z M215.7,10.1c1.5-0.2,2.8-0.6,4.2-1.3c-2.1-0.9-4.2-1.6-6.5-1.7
	c-0.3,0-0.5,0-0.8,0C213.9,7.9,215,9.3,215.7,10.1z"/>
</svg>
